<svg width="43" height="42" viewBox="0 0 43 42" fill="none" xmlns="http://www.w3.org/2000/svg">
<path d="M21.4046 37.1896C30.3458 37.1896 37.5942 29.9413 37.5942 21C37.5942 12.0588 30.3458 4.81042 21.4046 4.81042C12.4633 4.81042 5.21497 12.0588 5.21497 21C5.21497 29.9413 12.4633 37.1896 21.4046 37.1896Z" fill="#3343CC"/>
<path d="M5.99474 25.9256L5.03967 21.8104L15.2901 13.2796L19.1888 17.1784L27.1408 9.21872L29.8738 11.9517L19.1888 22.6367L15.0353 18.4832L5.99474 25.9256Z" fill="#72F9FB"/>
<path d="M30.4374 14.1058L32.4292 6.66333L24.9868 8.65518L30.4374 14.1058Z" fill="#72F9FB"/>
<path d="M19.1888 33.8081L15.0353 29.6623L10.5961 33.314L8.14099 30.334L15.2901 24.451L19.1888 28.3498L26.6853 20.8456L31.7653 21.8956L34.3285 19.2012L37.1232 21.857L33.0855 26.1109L27.9437 25.0455L19.1888 33.8081Z" fill="#72F9FB"/>
<path d="M37.7409 23.9956L39.5397 16.5145L32.1591 18.6917L37.7409 23.9956Z" fill="#72F9FB"/>
</svg>
