<svg width="250" height="75" viewBox="0 0 250 75" fill="none" xmlns="http://www.w3.org/2000/svg">
<path d="M21.9663 26.6407V48.3595L19.1207 50.0034V24.9969L21.9663 26.6407Z" fill="white"/>
<path d="M62.4232 24.9968L59.5776 26.6406L40.7681 15.7876V12.5L62.4232 24.9968Z" fill="white"/>
<path d="M62.4232 50.0032L40.7681 62.5V59.2125L59.5776 48.3594L62.4232 50.0032Z" fill="white"/>
<g opacity="0.3">
<path opacity="0.3" d="M40.7681 59.2125V62.5L19.1207 50.0032L21.9663 48.3594L40.7681 59.2125Z" fill="white"/>
</g>
<g opacity="0.3">
<path opacity="0.3" d="M62.4233 24.9971V50.0035L59.5776 48.3597V26.6408L62.4233 24.9971Z" fill="white"/>
</g>
<g opacity="0.3">
<path opacity="0.3" d="M40.7681 12.5V15.7876L21.9663 26.6406L19.1207 24.9968L40.7681 12.5Z" fill="white"/>
</g>
<path fill-rule="evenodd" clip-rule="evenodd" d="M40.7632 26.3129L48.219 28.5639C48.3265 28.6101 48.4134 28.6942 48.4629 28.8003C48.5124 28.9063 48.5212 29.0268 48.4877 29.1389C48.454 29.2511 48.3805 29.3469 48.2809 29.4082C48.1812 29.4696 48.0624 29.4922 47.9472 29.4717L40.7632 27.3017L33.5999 29.4717C33.4845 29.4929 33.3652 29.4709 33.2651 29.4097C33.1649 29.3486 33.0907 29.2526 33.0569 29.1402C33.023 29.0278 33.0318 28.9069 33.0816 28.8005C33.1313 28.6942 33.2185 28.61 33.3265 28.5639L40.7632 26.3129Z" fill="white"/>
<path fill-rule="evenodd" clip-rule="evenodd" d="M51.5161 29.8884C51.4989 29.7874 51.4503 29.6942 51.3771 29.6224C51.3039 29.5505 51.2101 29.5035 51.1088 29.488C51.0074 29.4725 50.9038 29.4894 50.8126 29.5362C50.7213 29.5829 50.6471 29.6572 50.6004 29.7484L46.2796 38.174H35.2644L30.9483 29.7484C30.9033 29.6627 30.8341 29.592 30.7494 29.545C30.6646 29.4982 30.568 29.4772 30.4714 29.4845C30.3632 29.4932 30.2609 29.5375 30.1806 29.6105C30.1003 29.6837 30.0466 29.7814 30.0279 29.8884C29.6357 32.615 29.7783 35.392 30.4476 38.0644C31.5079 42.2802 34.1834 47.1687 40.5566 50.2765L40.7649 50.3767L40.9714 50.2765C47.3399 47.1687 50.0329 42.2802 51.0838 38.069C51.7584 35.3962 51.9053 32.6174 51.5161 29.8884ZM31.368 37.837C30.8619 35.7787 30.6705 33.6557 30.8005 31.54L34.5554 38.8607L39.6424 48.725C34.5188 45.7665 32.2932 41.533 31.368 37.837ZM40.7649 48.8204L35.7556 39.123H45.7916L40.7649 48.8204ZM50.1681 37.837C49.2364 41.5284 47.0046 45.7617 41.8841 48.7219L46.9918 38.8655L50.7451 31.5527C50.8706 33.6647 50.6761 35.7834 50.1681 37.837Z" fill="white"/>
<path fill-rule="evenodd" clip-rule="evenodd" d="M77.3301 39.4442C77.6186 39.7412 77.9649 39.9758 78.3477 40.1333C78.7306 40.2908 79.1417 40.368 79.5557 40.3598H95.2081V38.2408H79.5572C79.2847 38.244 79.0214 38.1415 78.8229 37.9547C78.6362 37.7557 78.5327 37.493 78.5336 37.2202V24.6534C78.5312 24.522 78.5557 24.3916 78.6054 24.2699C78.6551 24.1483 78.7291 24.0381 78.8229 23.946C78.9171 23.8456 79.0309 23.7657 79.1571 23.711C79.2834 23.6563 79.4196 23.6281 79.5572 23.628H95.2097V21.5137H79.5572C79.1442 21.5116 78.7349 21.5914 78.3527 21.7484C77.9707 21.9054 77.6236 22.1365 77.3314 22.4284C77.0391 22.7203 76.8076 23.0673 76.6502 23.4492C76.4929 23.8311 76.4127 24.2404 76.4144 24.6534V37.2202C76.4072 37.634 76.4849 38.0448 76.6424 38.4277C76.7997 38.8103 77.0339 39.1568 77.3301 39.4458V39.4442ZM107.336 21.5137V40.3615H124.537V38.2408H109.458V32.0107H121.577V29.8693H109.458V23.6376H124.537V21.5137H107.336ZM136.644 40.3615V21.5375H152.354C153.185 21.547 153.978 21.8812 154.566 22.4686C155.153 23.0559 155.487 23.8498 155.497 24.6804V30.2032C155.501 30.6165 155.422 31.0267 155.265 31.409C155.108 31.7913 154.875 32.1382 154.581 32.4288C154.292 32.7248 153.945 32.9587 153.563 33.1162C153.18 33.2735 152.769 33.3513 152.356 33.3445H149.472L155.389 40.3392V40.3615H152.586L146.704 33.3477L138.771 33.3207V40.3615H136.644ZM139.787 31.2015H152.354C152.485 31.2042 152.615 31.1798 152.736 31.1302C152.857 31.0803 152.967 31.0062 153.058 30.9122C153.153 30.8205 153.227 30.7105 153.277 30.5887C153.327 30.467 153.351 30.3362 153.348 30.2047V24.6804C153.351 24.5489 153.327 24.4182 153.277 24.2965C153.227 24.1747 153.153 24.0646 153.058 23.973C152.971 23.8721 152.863 23.7913 152.741 23.7364C152.619 23.6815 152.487 23.6537 152.354 23.6551H139.787C139.65 23.6557 139.514 23.6843 139.387 23.7389C139.261 23.7936 139.147 23.8732 139.053 23.973C138.959 24.0653 138.886 24.1756 138.837 24.2972C138.788 24.4189 138.764 24.5493 138.767 24.6804V30.2032C138.763 30.3343 138.787 30.465 138.836 30.5867C138.885 30.7085 138.959 30.8187 139.053 30.9105C139.252 31.0972 139.514 31.2007 139.787 31.1998V31.2015ZM175.05 23.6328V40.3615H177.173V23.6328H185.525V21.5137H166.677V23.6328H175.05ZM196.721 21.5137H198.867V40.3615H196.721V21.5137ZM211.796 21.5137V40.3615H213.941V32.0107H220.014L227.034 40.3615H229.782V40.3377L221.877 30.9392L229.756 21.5391V21.5153H227.034L220.016 29.8693H213.942V21.5137H211.796Z" fill="white"/>
<path d="M198.909 40.4029H196.684V21.474H198.909V40.4029ZM196.762 40.3234H198.829V21.5535H196.762V40.3234ZM229.829 40.3997H227.024L227.011 40.3854L220.004 32.0506H213.982V40.3997H211.757V21.482H213.982V29.8329H219.997L227.016 21.482H229.794V21.5599L229.784 21.571L221.927 30.9504L229.821 40.3297L229.829 40.3997ZM227.059 40.3202H229.724L221.832 30.9409L221.854 30.9154L229.697 21.5567H227.059L220.039 29.9044H213.904V21.5535H211.837V40.3202H213.904V31.9711H220.039L220.051 31.9852L227.059 40.3202ZM177.222 40.3997H175.019V23.6694H166.646V21.474H185.574V23.6694H177.222V40.3997ZM175.098 40.3202H177.142V23.5931H185.495V21.5535H166.717V23.5931H175.09L175.098 40.3202ZM155.436 40.3997H152.575L152.562 40.3854L146.68 33.3906L138.805 33.3667V40.4077H136.605V21.4979H152.354C153.195 21.5062 153.999 21.8438 154.593 22.4383C155.187 23.0327 155.525 23.8366 155.533 24.6773V30.2032C155.537 30.6217 155.457 31.0369 155.298 31.4241C155.139 31.8112 154.904 32.1626 154.607 32.4574C154.314 32.7571 153.963 32.9937 153.576 33.1534C153.188 33.3131 152.773 33.3921 152.354 33.3859H149.558L155.428 40.3219L155.436 40.3997ZM152.613 40.3202H155.331L149.394 33.3064H152.362C152.768 33.3104 153.17 33.2322 153.545 33.0769C153.92 32.9214 154.259 32.6917 154.543 32.4019C154.833 32.1141 155.062 31.7714 155.217 31.3939C155.373 31.0162 155.451 30.6116 155.448 30.2032V24.6805C155.44 23.8604 155.111 23.0759 154.532 22.4956C153.952 21.9154 153.168 21.5857 152.348 21.5774H136.684V40.3202H138.727V33.2794L146.718 33.3064L146.729 33.3207L152.613 40.3202ZM124.585 40.3997H107.296V21.482H124.577V23.6694H109.498V29.8217H121.617V32.0472H109.498V38.1979H124.577L124.585 40.3997ZM107.384 40.3202H124.497V38.2806H109.419V31.9711H121.537V29.9044H109.419V23.5931H124.497V21.5535H107.376L107.384 40.3202ZM95.2574 40.3997H79.5572C79.1381 40.4067 78.7217 40.3282 78.3337 40.1689C77.9459 40.0096 77.5947 39.7727 77.3014 39.4729C77.0024 39.1797 76.7661 38.8291 76.6067 38.4417C76.4474 38.0546 76.3684 37.6389 76.3747 37.2202V24.6535C76.3727 24.2354 76.4537 23.8211 76.6127 23.4345C76.7719 23.0479 77.0061 22.6967 77.3017 22.401C77.5972 22.1054 77.9486 21.8713 78.3351 21.7122C78.7217 21.5531 79.1361 21.4721 79.5541 21.474H95.2462V23.6694H79.5572C79.4252 23.6691 79.2946 23.6957 79.1732 23.7476C79.0519 23.7996 78.9424 23.8757 78.8514 23.9715C78.7612 24.0597 78.6901 24.1654 78.6422 24.2821C78.5944 24.3989 78.5709 24.5242 78.5732 24.6503V37.2171C78.5694 37.3472 78.5924 37.4767 78.6406 37.5976C78.6887 37.7186 78.7611 37.8282 78.8532 37.9202C78.9456 38.0121 79.0556 38.0841 79.1766 38.1319C79.2976 38.1796 79.4272 38.2021 79.5572 38.1979H95.2462L95.2574 40.3997ZM77.3666 39.4172C77.6524 39.7094 77.9947 39.9401 78.3729 40.0954C78.7509 40.2507 79.1566 40.3272 79.5652 40.3202H95.1779V38.2806H79.5572C79.2747 38.2832 79.0019 38.1767 78.7957 37.9834C78.6016 37.7767 78.4936 37.5039 78.4937 37.2202V24.6535C78.4912 24.5169 78.5167 24.3813 78.5687 24.255C78.6207 24.1287 78.6979 24.0143 78.7957 23.919C78.8944 23.817 79.0129 23.7362 79.1437 23.6815C79.2747 23.6269 79.4154 23.5995 79.5572 23.6011H95.1699V21.5535H79.5572C79.1496 21.5516 78.7454 21.6305 78.3682 21.7856C77.9911 21.9407 77.6484 22.1689 77.3599 22.4571C77.0714 22.7453 76.8429 23.0877 76.6874 23.4647C76.5319 23.8417 76.4527 24.2457 76.4541 24.6535V37.2202C76.4481 37.6287 76.5251 38.0341 76.6806 38.4117C76.8361 38.7894 77.0667 39.1316 77.3587 39.4172H77.3666ZM152.362 31.2397H139.787C139.505 31.2396 139.233 31.1322 139.027 30.9392C138.929 30.8437 138.852 30.7291 138.801 30.6024C138.749 30.4759 138.724 30.3399 138.727 30.2032V24.6805C138.724 24.5442 138.749 24.4087 138.8 24.2824C138.852 24.1561 138.928 24.0416 139.026 23.9461C139.124 23.8431 139.242 23.7611 139.373 23.705C139.504 23.649 139.645 23.6201 139.787 23.6202H152.354C152.492 23.618 152.63 23.6461 152.756 23.7023C152.883 23.7586 152.996 23.8418 153.087 23.9461C153.185 24.0411 153.262 24.1555 153.314 24.2819C153.366 24.4083 153.391 24.544 153.387 24.6805V30.2032C153.388 30.3394 153.362 30.4744 153.311 30.6004C153.259 30.7264 153.183 30.8409 153.087 30.9374C152.991 31.0337 152.877 31.1102 152.751 31.1621C152.625 31.2139 152.49 31.2404 152.354 31.2397H152.362ZM139.795 23.6996C139.663 23.6999 139.533 23.7268 139.411 23.7787C139.29 23.8306 139.181 23.9065 139.089 24.0017C139 24.0902 138.929 24.196 138.882 24.3127C138.834 24.4294 138.811 24.5546 138.814 24.6805V30.2032C138.811 30.3292 138.834 30.4544 138.882 30.5711C138.929 30.6877 139 30.7936 139.089 30.8821C139.28 31.0614 139.533 31.1611 139.795 31.1602H152.362C152.488 31.1622 152.612 31.1386 152.728 31.0907C152.845 31.0429 152.95 30.9719 153.038 30.8821C153.129 30.7946 153.201 30.6891 153.249 30.5721C153.296 30.4552 153.319 30.3296 153.316 30.2032V24.6805C153.319 24.5543 153.296 24.4287 153.248 24.3119C153.2 24.195 153.128 24.0894 153.038 24.0017C152.953 23.9055 152.849 23.8287 152.733 23.7766C152.616 23.7244 152.49 23.6982 152.362 23.6996H139.795Z" fill="white"/>
<path d="M82.673 52.1743H81.9703V51.931C81.9688 51.8422 81.9328 51.7573 81.8698 51.6945C81.807 51.6317 81.7223 51.5957 81.6333 51.594H77.4763C77.3873 51.5957 77.3027 51.6317 77.2398 51.6945C77.1768 51.7573 77.1408 51.8422 77.1392 51.931V53.3252C77.1408 53.4133 77.1772 53.4973 77.2403 53.5588C77.3033 53.6205 77.3882 53.6547 77.4763 53.6543H81.6333C81.77 53.654 81.9053 53.6808 82.0315 53.733C82.1577 53.7852 82.2725 53.8618 82.369 53.9583C82.4657 54.055 82.5422 54.1697 82.5943 54.2958C82.6465 54.4222 82.6733 54.5573 82.673 54.694V56.0882C82.6742 56.225 82.648 56.3607 82.5962 56.4873C82.5442 56.6138 82.4677 56.729 82.3708 56.8257C82.2742 56.9225 82.1592 56.999 82.0325 57.0508C81.9058 57.1027 81.7702 57.1288 81.6333 57.1278H77.4763C77.3395 57.1288 77.2038 57.1027 77.0773 57.0508C76.9508 56.999 76.836 56.9223 76.7393 56.8257C76.6427 56.7288 76.5663 56.6138 76.5145 56.4872C76.4628 56.3605 76.4368 56.2248 76.4382 56.0882V55.845H77.1392V56.0882C77.1408 56.177 77.1768 56.2618 77.2398 56.3247C77.3027 56.3875 77.3873 56.4235 77.4763 56.4252H81.6333C81.7223 56.4235 81.807 56.3875 81.8698 56.3247C81.9328 56.2618 81.9688 56.177 81.9703 56.0882V54.694C81.9683 54.606 81.9318 54.5223 81.869 54.4608C81.806 54.3993 81.7213 54.3648 81.6333 54.3648H77.4763C77.3397 54.3653 77.2043 54.3387 77.0782 54.2867C76.9518 54.2345 76.8372 54.1578 76.7407 54.0612C76.6442 53.9645 76.5678 53.8498 76.5158 53.7235C76.464 53.5972 76.4375 53.4618 76.4382 53.3252V51.931C76.4372 51.7943 76.4632 51.659 76.515 51.5325C76.5668 51.4062 76.6433 51.2912 76.7398 51.1947C76.8365 51.098 76.9513 51.0217 77.0778 50.9698C77.2042 50.918 77.3397 50.8918 77.4763 50.893H81.6333C81.7702 50.8917 81.9058 50.9177 82.0323 50.9693C82.159 51.021 82.274 51.0975 82.3708 51.194C82.4677 51.2907 82.5442 51.4057 82.596 51.5322C82.648 51.6587 82.6742 51.7943 82.673 51.931V52.1743Z" fill="white"/>
<path d="M81.6334 57.1714H77.4762C77.3337 57.1729 77.1922 57.1459 77.0602 57.0921C76.9282 57.0382 76.8082 56.9584 76.7074 56.8576C76.6066 56.7569 76.5269 56.6369 76.4731 56.5049C76.4192 56.3729 76.3922 56.2314 76.3937 56.0887V55.8027H77.1886V56.0887C77.1909 56.1661 77.2227 56.2394 77.2774 56.2941C77.3321 56.3487 77.4054 56.3806 77.4827 56.3829H81.6397C81.7171 56.3806 81.7904 56.3487 81.8451 56.2941C81.8997 56.2394 81.9316 56.1661 81.9339 56.0887V54.6946C81.9314 54.6181 81.8994 54.5456 81.8446 54.4922C81.7897 54.4389 81.7162 54.4089 81.6397 54.4084H77.4762C77.1892 54.4081 76.9142 54.2939 76.7112 54.0909C76.5082 53.8881 76.3941 53.6129 76.3937 53.3259V51.9317C76.3922 51.7891 76.4192 51.6477 76.4731 51.5156C76.5269 51.3836 76.6066 51.2637 76.7074 51.1629C76.8082 51.0621 76.9282 50.9824 77.0602 50.9284C77.1922 50.8746 77.3337 50.8476 77.4762 50.8491H81.6334C81.7761 50.8476 81.9174 50.8746 82.0494 50.9284C82.1816 50.9824 82.3014 51.0621 82.4022 51.1629C82.5031 51.2637 82.5827 51.3836 82.6367 51.5156C82.6906 51.6477 82.7176 51.7891 82.7161 51.9317V52.2179H81.9212V51.9317C81.9187 51.8544 81.8871 51.7811 81.8324 51.7264C81.7777 51.6717 81.7042 51.6399 81.6271 51.6376H77.4762C77.3991 51.6399 77.3256 51.6717 77.2711 51.7264C77.2164 51.7811 77.1846 51.8544 77.1822 51.9317V53.3259C77.1842 53.4026 77.2162 53.4752 77.2711 53.5287C77.3261 53.5822 77.3997 53.6121 77.4762 53.6121H81.6334C81.9206 53.6121 82.1959 53.7261 82.3989 53.9291C82.6019 54.1321 82.7161 54.4076 82.7161 54.6946V56.0887C82.7176 56.2314 82.6906 56.3729 82.6367 56.5049C82.5827 56.6369 82.5031 56.7569 82.4022 56.8576C82.3014 56.9584 82.1816 57.0382 82.0494 57.0921C81.9174 57.1459 81.7761 57.1729 81.6334 57.1714ZM76.4876 55.8901V56.0887C76.4861 56.2199 76.5107 56.3501 76.5602 56.4714C76.6097 56.5927 76.6829 56.7031 76.7757 56.7959C76.8684 56.8886 76.9787 56.9617 77.1001 57.0112C77.2216 57.0607 77.3516 57.0854 77.4827 57.0839H81.6397C81.7709 57.0854 81.9009 57.0607 82.0224 57.0112C82.1437 56.9617 82.2541 56.8886 82.3467 56.7959C82.4396 56.7031 82.5127 56.5927 82.5622 56.4714C82.6117 56.3501 82.6364 56.2199 82.6349 56.0887V54.6946C82.6346 54.4309 82.5296 54.1779 82.3431 53.9914C82.1564 53.8049 81.9036 53.6999 81.6397 53.6994H77.4762C77.3766 53.6991 77.2809 53.6599 77.2097 53.5901C77.1386 53.5204 77.0972 53.4256 77.0947 53.3259V51.9317C77.0961 51.8309 77.1366 51.7346 77.2079 51.6632C77.2792 51.5921 77.3756 51.5514 77.4762 51.5502H81.6334C81.7342 51.5514 81.8306 51.5921 81.9019 51.6632C81.9731 51.7346 82.0137 51.8309 82.0149 51.9317V52.1256H82.6286V51.9269C82.6301 51.7957 82.6054 51.6657 82.5559 51.5444C82.5064 51.4229 82.4331 51.3126 82.3404 51.2199C82.2477 51.1272 82.1374 51.0539 82.0161 51.0044C81.8946 50.9549 81.7646 50.9302 81.6334 50.9317H77.4762C77.3452 50.9302 77.2151 50.9549 77.0937 51.0044C76.9722 51.0539 76.8621 51.1272 76.7692 51.2199C76.6766 51.3126 76.6034 51.4229 76.5539 51.5444C76.5044 51.6657 76.4796 51.7957 76.4811 51.9269V53.3211C76.4811 53.5851 76.5859 53.8382 76.7726 54.0247C76.9592 54.2114 77.2124 54.3162 77.4762 54.3162H81.6334C81.7331 54.3167 81.8287 54.3559 81.9001 54.4256C81.9712 54.4954 82.0124 54.5902 82.0149 54.6899V56.0841C82.0137 56.1849 81.9731 56.2812 81.9019 56.3524C81.8306 56.4237 81.7342 56.4644 81.6334 56.4656H77.4762C77.3756 56.4644 77.2792 56.4237 77.2079 56.3524C77.1366 56.2812 77.0961 56.1849 77.0947 56.0841V55.8854L76.4876 55.8901Z" fill="white"/>
<path d="M81.6334 57.1502H77.4762C77.3364 57.1515 77.1979 57.1249 77.0684 57.072C76.939 57.019 76.8214 56.9409 76.7225 56.842C76.6237 56.7432 76.5455 56.6255 76.4925 56.4962C76.4397 56.3667 76.413 56.228 76.4144 56.0884V55.8229H77.1615V56.0884C77.1615 56.1725 77.195 56.2535 77.2545 56.313C77.3142 56.3727 77.395 56.4062 77.4794 56.4062H81.6365C81.7209 56.4062 81.8017 56.3727 81.8614 56.313C81.921 56.2535 81.9545 56.1725 81.9545 56.0884V54.694C81.9517 54.6117 81.9169 54.5337 81.8575 54.4764C81.7982 54.4192 81.719 54.3872 81.6365 54.3874H77.4762C77.1947 54.3869 76.9249 54.2749 76.7259 54.0757C76.5267 53.8767 76.4147 53.6069 76.4144 53.3254V51.9312C76.413 51.7914 76.4397 51.6527 76.4925 51.5232C76.5455 51.3939 76.6237 51.2764 76.7225 51.1774C76.8214 51.0785 76.939 51.0004 77.0684 50.9475C77.1979 50.8945 77.3364 50.868 77.4762 50.8692H81.6334C81.7732 50.8677 81.912 50.8942 82.0415 50.947C82.171 50.9999 82.2887 51.078 82.3875 51.1769C82.4865 51.2759 82.5647 51.3935 82.6175 51.523C82.6704 51.6525 82.6969 51.7914 82.6954 51.9312V52.1967H81.9482V51.9312C81.9482 51.8469 81.9147 51.766 81.855 51.7064C81.7954 51.6467 81.7145 51.6132 81.6302 51.6132H77.4762C77.3919 51.6132 77.311 51.6467 77.2514 51.7064C77.1919 51.766 77.1584 51.8469 77.1584 51.9312V53.3254C77.1612 53.4077 77.196 53.4857 77.2552 53.543C77.3145 53.6002 77.3939 53.6322 77.4762 53.6322H81.6334C81.9149 53.6325 82.1847 53.7445 82.3839 53.9437C82.5829 54.1427 82.6949 54.4125 82.6954 54.694V56.0884C82.6969 56.2282 82.6704 56.3669 82.6175 56.4964C82.5647 56.6259 82.4865 56.7435 82.3875 56.8425C82.2887 56.9414 82.171 57.0195 82.0415 57.0724C81.912 57.1252 81.7732 57.1517 81.6334 57.1502ZM76.4604 55.8689V56.0884C76.4589 56.222 76.4842 56.3549 76.5347 56.4789C76.5852 56.6027 76.66 56.7154 76.7547 56.8099C76.8492 56.9045 76.9619 56.9794 77.0857 57.0299C77.2097 57.0804 77.3424 57.1055 77.4762 57.1042H81.6334C81.7672 57.1059 81.9002 57.0807 82.0242 57.0302C82.1482 56.9799 82.2609 56.905 82.3555 56.8104C82.4502 56.7157 82.5249 56.603 82.5754 56.479C82.6259 56.355 82.6509 56.2222 82.6492 56.0884V54.694C82.6489 54.4249 82.5417 54.1667 82.3512 53.9762C82.1609 53.7859 81.9027 53.6787 81.6334 53.6782H77.4762C77.3822 53.6779 77.292 53.6407 77.2249 53.5749C77.1577 53.5089 77.119 53.4194 77.117 53.3254V51.9312C77.1179 51.836 77.1559 51.7449 77.223 51.6775C77.2902 51.61 77.381 51.5715 77.4762 51.5704H81.6334C81.7287 51.5715 81.8197 51.6099 81.8872 51.6774C81.9545 51.7447 81.993 51.8359 81.9942 51.9312V52.1522H82.6492V51.9312C82.6507 51.7974 82.6255 51.6645 82.5749 51.5407C82.5244 51.4167 82.4497 51.3042 82.355 51.2095C82.2604 51.1149 82.1479 51.0402 82.0239 50.9895C81.9 50.939 81.7672 50.9139 81.6334 50.9154H77.4762C77.3425 50.914 77.2099 50.9395 77.086 50.99C76.9622 51.0407 76.8497 51.1154 76.755 51.21C76.6605 51.3045 76.5857 51.417 76.5352 51.5409C76.4845 51.6647 76.4592 51.7974 76.4604 51.9312V53.3254C76.4604 53.5949 76.5674 53.8535 76.7579 54.0442C76.9484 54.235 77.2067 54.3424 77.4762 54.3427H81.6334C81.7275 54.3427 81.8179 54.3794 81.8852 54.445C81.9527 54.5107 81.9917 54.6 81.9942 54.694V56.0884C81.993 56.1835 81.9545 56.2747 81.8872 56.342C81.8197 56.4095 81.7287 56.4479 81.6334 56.4492H77.4762C77.381 56.4479 77.2902 56.4094 77.223 56.342C77.1559 56.2745 77.1179 56.1835 77.117 56.0884V55.8689H76.4604Z" fill="white"/>
<path d="M81.6334 57.1934H77.4764C77.3301 57.1961 77.1848 57.1696 77.0491 57.1151C76.9133 57.0606 76.7899 56.9794 76.6861 56.8764C76.5823 56.7734 76.5003 56.6506 76.4449 56.5152C76.3894 56.3797 76.3618 56.2347 76.3636 56.0884V55.7817H77.1981V56.0901C77.1989 56.1616 77.2276 56.2301 77.2781 56.2809C77.3286 56.3316 77.3969 56.3607 77.4684 56.3619H81.6256C81.6973 56.3607 81.7658 56.3316 81.8164 56.2809C81.8671 56.2302 81.8961 56.1617 81.8974 56.0901V54.6959C81.8953 54.6252 81.8658 54.5584 81.8149 54.5094C81.7641 54.4602 81.6961 54.4331 81.6256 54.4336H77.4764C77.1813 54.4336 76.8983 54.3164 76.6894 54.1076C76.4808 53.8989 76.3636 53.6159 76.3636 53.3207V51.9266C76.3618 51.7804 76.3894 51.6352 76.4449 51.4999C76.5003 51.3646 76.5823 51.2417 76.6861 51.1386C76.7899 51.0356 76.9133 50.9544 77.0491 50.9001C77.1848 50.8456 77.3301 50.8189 77.4764 50.8217H81.6334C81.7796 50.8192 81.9249 50.8459 82.0604 50.9004C82.1961 50.9549 82.3194 51.0361 82.4233 51.1391C82.5269 51.2421 82.6091 51.3649 82.6644 51.5001C82.7199 51.6354 82.7478 51.7804 82.7463 51.9266V52.2446H81.9118V51.9266C81.9104 51.8551 81.8814 51.7867 81.8306 51.7362C81.7799 51.6859 81.7114 51.6571 81.6399 51.6562H77.4764C77.4049 51.6571 77.3368 51.6859 77.2861 51.7364C77.2356 51.7869 77.2069 51.8552 77.2061 51.9266V53.3207C77.2081 53.3911 77.2376 53.4577 77.2881 53.5067C77.3384 53.5557 77.4061 53.5831 77.4764 53.5831H81.6334C81.9286 53.5831 82.2116 53.7002 82.4204 53.9091C82.6291 54.1177 82.7463 54.4007 82.7463 54.6959V56.0901C82.7476 56.2361 82.7196 56.3809 82.6641 56.5161C82.6084 56.6511 82.5264 56.7736 82.4226 56.8764C82.3189 56.9792 82.1956 57.0604 82.0601 57.1147C81.9246 57.1692 81.7796 57.1959 81.6334 57.1934ZM76.5034 55.9121V56.0884C76.5021 56.2166 76.5264 56.3437 76.5749 56.4622C76.6234 56.5809 76.6949 56.6887 76.7856 56.7792C76.8761 56.8699 76.9839 56.9414 77.1026 56.9899C77.2211 57.0384 77.3483 57.0627 77.4764 57.0614H81.6334C81.7616 57.0627 81.8888 57.0384 82.0073 56.9899C82.1259 56.9414 82.2338 56.8699 82.3243 56.7792C82.4149 56.6887 82.4864 56.5809 82.5349 56.4622C82.5834 56.3437 82.6076 56.2166 82.6064 56.0884V54.6942C82.6059 54.4364 82.5033 54.1892 82.3209 54.0067C82.1386 53.8244 81.8914 53.7217 81.6334 53.7214H77.4764C77.3708 53.7211 77.2694 53.6794 77.1941 53.6054C77.1186 53.5316 77.0751 53.4311 77.0726 53.3256V51.9314C77.0743 51.8247 77.1173 51.7231 77.1926 51.6476C77.2681 51.5722 77.3698 51.5292 77.4764 51.5276H81.6334C81.7401 51.5292 81.8418 51.5722 81.9173 51.6476C81.9926 51.7231 82.0356 51.8247 82.0373 51.9314V52.1077H82.6064V51.9314C82.6088 51.8031 82.5853 51.6756 82.5371 51.5564C82.4891 51.4374 82.4174 51.3294 82.3266 51.2386C82.2358 51.1479 82.1276 51.0766 82.0084 51.0287C81.8894 50.9807 81.7618 50.9574 81.6334 50.9601H77.4764C77.3481 50.9574 77.2204 50.9807 77.1014 51.0287C76.9823 51.0766 76.8741 51.1479 76.7833 51.2386C76.6924 51.3294 76.6208 51.4374 76.5728 51.5564C76.5246 51.6756 76.5011 51.8031 76.5034 51.9314V53.3256C76.5039 53.5834 76.6064 53.8307 76.7889 54.0131C76.9713 54.1954 77.2184 54.2981 77.4764 54.2984H81.6334C81.7391 54.2989 81.8404 54.3404 81.9158 54.4144C81.9913 54.4882 82.0348 54.5887 82.0373 54.6942V56.0884C82.0361 56.1952 81.9931 56.2972 81.9176 56.3726C81.8423 56.4481 81.7403 56.4911 81.6334 56.4922H77.4764C77.3696 56.4911 77.2676 56.4481 77.1923 56.3726C77.1168 56.2972 77.0738 56.1952 77.0726 56.0884V55.9121H76.5034Z" fill="white"/>
<path d="M90.6058 51.5941H85.6173V53.6608H89.6266V54.3713H85.6173V56.4379H90.6058V57.1406H84.9131V50.8929H90.6026L90.6058 51.5941Z" fill="white"/>
<path d="M90.6488 57.1708H84.8733V50.8533H90.6488V51.6481H85.6618V53.6226H89.6711V54.4174H85.6618V56.3919H90.6488V57.1708ZM84.9608 57.0834H90.5615V56.4698H85.5745V54.3204H89.5836V53.6989H85.5745V51.5496H90.5615V50.9359H84.9608V57.0834Z" fill="white"/>
<path d="M90.6361 57.1501H84.8939V50.8691H90.6361V51.6163H85.6411V53.632H89.6504V54.3871H85.6411V56.403H90.6361V57.1501ZM84.9481 57.104H90.5916V56.449H85.5951V54.3506H89.6044V53.6861H85.5951V51.5701H90.5836V50.9151H84.9401L84.9481 57.104Z" fill="white"/>
<path d="M90.6725 57.1933H84.8494V50.8264H90.6725V51.6611H85.684V53.5877H89.6934V54.4319H85.684V56.3602H90.6725V57.1933ZM84.983 57.0613H90.539V56.4923H85.5489V54.2984H89.5597V53.7149H85.5489V51.5211H90.5375V50.9536H84.983V57.0613Z" fill="white"/>
<path d="M93.8711 51.594C93.7822 51.5956 93.6976 51.6316 93.6346 51.6945C93.5717 51.7573 93.5357 51.8421 93.5341 51.931V56.0882C93.5357 56.177 93.5717 56.2618 93.6346 56.3247C93.6976 56.3875 93.7822 56.4235 93.8711 56.4252H99.0504V57.1278H93.8711C93.7344 57.1288 93.5987 57.1027 93.4722 57.0508C93.3457 56.999 93.2307 56.9223 93.1342 56.8255C93.0376 56.7288 92.9612 56.6138 92.9094 56.4871C92.8577 56.3605 92.8317 56.2248 92.8331 56.0882V51.931C92.8321 51.7943 92.8581 51.659 92.9099 51.5325C92.9617 51.4061 93.0381 51.2911 93.1347 51.1946C93.2314 51.098 93.3462 51.0216 93.4726 50.9698C93.5991 50.918 93.7346 50.8918 93.8711 50.893H99.0504V51.594H93.8711Z" fill="white"/>
<path d="M99.0935 57.1714H93.8713C93.7286 57.1729 93.5871 57.1459 93.4551 57.0921C93.3231 57.0382 93.2033 56.9584 93.1025 56.8576C93.0016 56.7569 92.9218 56.6369 92.868 56.5049C92.8141 56.3729 92.7871 56.2314 92.7886 56.0887V51.9317C92.7871 51.7891 92.8141 51.6477 92.868 51.5156C92.9218 51.3836 93.0016 51.2637 93.1025 51.1629C93.2033 51.0621 93.3231 50.9824 93.4551 50.9284C93.5871 50.8746 93.7286 50.8476 93.8713 50.8491H99.0935V51.6439H93.8713C93.794 51.6464 93.7206 51.6781 93.666 51.7327C93.6113 51.7874 93.5795 51.8607 93.5771 51.9381V56.0952C93.5795 56.1724 93.6113 56.2459 93.666 56.3004C93.7206 56.3551 93.794 56.3869 93.8713 56.3892H99.0935V57.1714ZM93.8713 50.9366C93.7401 50.9351 93.6101 50.9597 93.4886 51.0092C93.3673 51.0587 93.257 51.1319 93.1641 51.2247C93.0715 51.3174 92.9983 51.4277 92.9488 51.5491C92.8993 51.6706 92.8746 51.8006 92.8761 51.9317V56.0887C92.8746 56.2199 92.8993 56.3501 92.9488 56.4714C92.9983 56.5927 93.0715 56.7031 93.1641 56.7959C93.257 56.8886 93.3673 56.9617 93.4886 57.0112C93.6101 57.0607 93.7401 57.0854 93.8713 57.0839H99.006V56.4704H93.8713C93.7705 56.4691 93.6741 56.4286 93.6028 56.3572C93.5315 56.2859 93.491 56.1896 93.4896 56.0887V51.9317C93.491 51.8309 93.5315 51.7346 93.6028 51.6632C93.6741 51.5921 93.7705 51.5514 93.8713 51.5502H99.006V50.9366H93.8713Z" fill="white"/>
<path d="M99.0728 57.1502H93.8711C93.7314 57.1515 93.5927 57.1249 93.4632 57.072C93.3339 57.019 93.2163 56.9409 93.1174 56.842C93.0186 56.7432 92.9404 56.6255 92.8874 56.4962C92.8346 56.3667 92.8079 56.228 92.8093 56.0882V51.9312C92.8079 51.7914 92.8346 51.6527 92.8874 51.5232C92.9404 51.3939 93.0186 51.2762 93.1174 51.1774C93.2163 51.0785 93.3339 51.0004 93.4632 50.9474C93.5927 50.8945 93.7314 50.8679 93.8711 50.8692H99.0728V51.6164H93.8711C93.7869 51.6164 93.7059 51.6499 93.6464 51.7095C93.5867 51.7692 93.5533 51.85 93.5533 51.9344V56.0915C93.5533 56.1757 93.5867 56.2567 93.6464 56.3162C93.7059 56.3759 93.7869 56.4094 93.8711 56.4094H99.0728V57.1502ZM93.8711 50.9154C93.7374 50.914 93.6048 50.9394 93.4809 50.99C93.3571 51.0407 93.2446 51.1154 93.1501 51.21C93.0554 51.3045 92.9807 51.417 92.9301 51.5409C92.8794 51.6647 92.8541 51.7974 92.8554 51.9312V56.0882C92.8539 56.222 92.8791 56.3549 92.9296 56.4787C92.9801 56.6027 93.0549 56.7152 93.1496 56.8099C93.2443 56.9045 93.3568 56.9794 93.4808 57.0299C93.6046 57.0804 93.7374 57.1055 93.8711 57.104H99.0266V56.4492H93.8711C93.7759 56.4479 93.6851 56.4094 93.6179 56.342C93.5508 56.2745 93.5127 56.1835 93.5119 56.0882V51.9312C93.5127 51.836 93.5508 51.7449 93.6179 51.6774C93.6851 51.61 93.7759 51.5715 93.8711 51.5702H99.0266V50.9154H93.8711Z" fill="white"/>
<path d="M99.1156 57.1934H93.8696C93.7233 57.1963 93.5781 57.1696 93.4423 57.1153C93.3066 57.0608 93.1831 56.9796 93.0793 56.8766C92.9756 56.7734 92.8934 56.6506 92.8381 56.5153C92.7826 56.3799 92.7551 56.2349 92.7568 56.0886V51.9314C92.7551 51.7853 92.7826 51.6401 92.8381 51.5048C92.8934 51.3694 92.9756 51.2466 93.0793 51.1436C93.1831 51.0404 93.3066 50.9594 93.4423 50.9049C93.5781 50.8504 93.7233 50.8239 93.8696 50.8266H99.1156V51.6613H93.8696C93.7981 51.6621 93.7299 51.6908 93.6794 51.7413C93.6289 51.7918 93.6001 51.8601 93.5993 51.9314V56.0886C93.6001 56.1603 93.6288 56.2286 93.6793 56.2794C93.7298 56.3301 93.798 56.3593 93.8696 56.3604H99.1156V57.1934ZM93.8696 50.9601C93.7413 50.9576 93.6136 50.9809 93.4946 51.0288C93.3755 51.0766 93.2673 51.1481 93.1765 51.2388C93.0856 51.3294 93.014 51.4376 92.966 51.5566C92.9178 51.6756 92.8943 51.8031 92.8966 51.9314V56.0886C92.8955 56.2168 92.9196 56.3438 92.9681 56.4624C93.0166 56.5811 93.0881 56.6888 93.1788 56.7794C93.2694 56.8699 93.3771 56.9416 93.4958 56.9901C93.6143 57.0384 93.7415 57.0628 93.8696 57.0616H98.9821V56.4924H93.8711C93.7645 56.4911 93.6625 56.4483 93.587 56.3728C93.5116 56.2973 93.4686 56.1953 93.4673 56.0886V51.9314C93.469 51.8249 93.5121 51.7231 93.5874 51.6478C93.6628 51.5724 93.7646 51.5293 93.8711 51.5278H98.9838V50.9601H93.8696Z" fill="white"/>
<path d="M106.767 50.8929H107.468V56.0883C107.469 56.2251 107.443 56.3608 107.391 56.4873C107.339 56.6139 107.263 56.7289 107.166 56.8258C107.069 56.9224 106.954 56.9991 106.828 57.0509C106.701 57.1028 106.565 57.1289 106.428 57.1279H102.273C102.136 57.1289 102 57.1028 101.874 57.0509C101.747 56.9991 101.632 56.9224 101.535 56.8258C101.439 56.7289 101.362 56.6139 101.31 56.4873C101.258 56.3608 101.232 56.2251 101.233 56.0883V50.8929H101.934V56.0883C101.936 56.1774 101.972 56.2624 102.035 56.3253C102.099 56.3881 102.184 56.4239 102.273 56.4253H106.428C106.518 56.4239 106.603 56.3881 106.666 56.3253C106.729 56.2624 106.765 56.1774 106.767 56.0883V50.8929Z" fill="white"/>
<path d="M106.428 57.1708H102.273C102.13 57.1726 101.989 57.1458 101.856 57.0919C101.724 57.0381 101.604 56.9584 101.503 56.8576C101.402 56.7568 101.322 56.6368 101.268 56.5046C101.214 56.3726 101.187 56.2309 101.189 56.0883V50.8533H101.984V56.0994C101.986 56.1768 102.017 56.2504 102.072 56.3051C102.127 56.3598 102.2 56.3914 102.278 56.3934H106.433C106.511 56.3914 106.584 56.3598 106.639 56.3051C106.694 56.2504 106.725 56.1768 106.727 56.0994V50.8533H107.522V56.0994C107.522 56.2419 107.494 56.3831 107.439 56.5146C107.383 56.6461 107.302 56.7653 107.2 56.8649C107.099 56.9648 106.978 57.0433 106.845 57.0958C106.713 57.1483 106.571 57.1738 106.428 57.1708ZM101.278 50.9359V56.0883C101.276 56.2193 101.301 56.3494 101.35 56.4708C101.4 56.5923 101.473 56.7026 101.566 56.7953C101.659 56.8879 101.769 56.9613 101.89 57.0108C102.012 57.0601 102.142 57.0849 102.273 57.0834H106.428C106.56 57.0849 106.69 57.0601 106.811 57.0108C106.932 56.9613 107.043 56.8879 107.135 56.7953C107.228 56.7026 107.301 56.5923 107.351 56.4708C107.4 56.3494 107.425 56.2193 107.424 56.0883V50.9359H106.81V56.0883C106.809 56.1891 106.768 56.2854 106.697 56.3566C106.626 56.4279 106.529 56.4686 106.428 56.4698H102.273C102.172 56.4686 102.075 56.4279 102.004 56.3568C101.932 56.2856 101.891 56.1893 101.89 56.0883V50.9359H101.278Z" fill="white"/>
<path d="M106.429 57.1501H102.273C102.133 57.1516 101.994 57.1251 101.865 57.0723C101.735 57.0195 101.618 56.9413 101.519 56.8423C101.42 56.7435 101.342 56.6258 101.289 56.4963C101.236 56.3668 101.209 56.228 101.211 56.0881V50.8691H101.957V56.0881C101.957 56.1725 101.99 56.2533 102.05 56.313C102.109 56.3726 102.19 56.4061 102.275 56.4061H106.43C106.514 56.4061 106.595 56.3726 106.655 56.313C106.714 56.2533 106.748 56.1725 106.748 56.0881V50.8691H107.487V56.0881C107.489 56.2278 107.462 56.3663 107.41 56.4956C107.357 56.6248 107.279 56.7423 107.181 56.8413C107.082 56.9401 106.965 57.0183 106.836 57.0713C106.707 57.1245 106.568 57.1511 106.429 57.1501ZM101.256 50.9151V56.0881C101.254 56.2221 101.279 56.355 101.33 56.479C101.381 56.6031 101.455 56.7156 101.55 56.8103C101.645 56.905 101.758 56.9798 101.882 57.0301C102.006 57.0806 102.139 57.1056 102.273 57.104H106.429C106.562 57.1056 106.695 57.0806 106.82 57.0301C106.944 56.9798 107.056 56.905 107.151 56.8103C107.246 56.7156 107.321 56.6031 107.372 56.479C107.422 56.355 107.447 56.2221 107.446 56.0881V50.9151H106.789V56.0881C106.788 56.1835 106.75 56.2746 106.682 56.342C106.615 56.4093 106.524 56.4478 106.429 56.449H102.273C102.178 56.4478 102.087 56.4093 102.019 56.342C101.952 56.2746 101.913 56.1835 101.912 56.0881V50.9151H101.256Z" fill="white"/>
<path d="M106.428 57.1933H102.273C102.127 57.1958 101.981 57.1691 101.846 57.1146C101.71 57.0601 101.587 56.9789 101.483 56.8759C101.379 56.7729 101.297 56.6501 101.242 56.5149C101.186 56.3796 101.159 56.2346 101.16 56.0884V50.8264H101.995V56.0884C101.997 56.1599 102.026 56.2279 102.076 56.2784C102.127 56.3289 102.195 56.3582 102.266 56.3602H106.422C106.494 56.3591 106.562 56.3299 106.613 56.2793C106.664 56.2286 106.693 56.1601 106.694 56.0884V50.8264H107.528V56.0884C107.53 56.2336 107.503 56.3774 107.448 56.5119C107.393 56.6462 107.312 56.7684 107.21 56.8713C107.107 56.9741 106.986 57.0556 106.851 57.1108C106.717 57.1661 106.573 57.1941 106.428 57.1933ZM101.3 50.9599V56.0884C101.298 56.2166 101.323 56.3438 101.371 56.4624C101.419 56.5813 101.491 56.6891 101.582 56.7797C101.672 56.8702 101.78 56.9419 101.899 56.9902C102.017 57.0386 102.145 57.0628 102.273 57.0613H106.428C106.556 57.0626 106.684 57.0383 106.802 56.9899C106.921 56.9414 107.029 56.8698 107.119 56.7793C107.21 56.6886 107.281 56.5809 107.33 56.4622C107.378 56.3436 107.403 56.2166 107.401 56.0884V50.9599H106.832V56.0884C106.831 56.1951 106.788 56.2971 106.713 56.3726C106.637 56.4481 106.535 56.4909 106.428 56.4923H102.273C102.166 56.4909 102.064 56.4481 101.988 56.3726C101.912 56.2972 101.869 56.1953 101.867 56.0884V50.9599H101.3Z" fill="white"/>
<path d="M115.946 53.7678C115.947 53.9043 115.92 54.0397 115.868 54.166C115.816 54.2923 115.74 54.4072 115.644 54.5038C115.547 54.6005 115.432 54.677 115.306 54.7292C115.18 54.7813 115.045 54.8078 114.908 54.8075H113.954L115.913 57.1285H114.986L113.037 54.8075H110.751C110.638 54.8023 110.525 54.7907 110.414 54.7725V57.1285H109.713V50.9015H114.91C115.046 50.9012 115.181 50.9277 115.308 50.9798C115.434 51.032 115.549 51.1085 115.645 51.2052C115.742 51.3018 115.818 51.4167 115.87 51.543C115.922 51.6693 115.948 51.8047 115.948 51.9412L115.946 53.7678ZM114.908 54.0968C114.951 54.0968 114.994 54.0883 115.034 54.0718C115.074 54.0553 115.11 54.031 115.141 54.0005C115.171 53.97 115.195 53.9337 115.212 53.8937C115.229 53.8538 115.237 53.811 115.237 53.7678V51.9412C115.237 51.853 115.203 51.768 115.142 51.7047C115.08 51.6413 114.996 51.6047 114.908 51.6027H110.751C110.662 51.6043 110.577 51.6405 110.514 51.7037C110.451 51.7668 110.415 51.852 110.414 51.9412V53.7678C110.416 53.8558 110.452 53.9395 110.515 54.001C110.578 54.0625 110.663 54.0968 110.751 54.0968H114.908Z" fill="white"/>
<path d="M116.006 57.1708H114.959L113.01 54.8499H110.751C110.652 54.8466 110.554 54.8371 110.457 54.8213V57.1708H109.662V50.8533H114.908C115.195 50.8538 115.47 50.9679 115.673 51.1708C115.876 51.3738 115.99 51.6489 115.991 51.9359V53.7624C115.99 54.0494 115.876 54.3246 115.673 54.5276C115.47 54.7304 115.195 54.8446 114.908 54.8451H114.05L116.006 57.1708ZM115.007 57.0834H115.819L113.86 54.7624H114.908C115.172 54.7619 115.425 54.6569 115.611 54.4704C115.798 54.2839 115.903 54.0311 115.903 53.7673V51.9406C115.903 51.6768 115.798 51.4236 115.612 51.2369C115.425 51.0503 115.172 50.9454 114.908 50.9454H109.756V57.0834H110.369V54.7226L110.463 54.7338C110.558 54.7494 110.654 54.7589 110.751 54.7624H113.051L115.007 57.0834ZM114.908 54.1408H110.751C110.651 54.1404 110.556 54.1013 110.484 54.0314C110.413 53.9618 110.372 53.8669 110.369 53.7673V51.9406C110.371 51.8398 110.411 51.7436 110.482 51.6723C110.554 51.6009 110.65 51.5604 110.751 51.5591H114.908C115.008 51.5616 115.102 51.6029 115.172 51.6743C115.241 51.7454 115.28 51.8411 115.28 51.9406V53.7673C115.28 53.8661 115.241 53.9608 115.171 54.0309C115.101 54.1009 115.007 54.1404 114.908 54.1408ZM110.751 51.6481C110.673 51.6501 110.6 51.6818 110.545 51.7364C110.49 51.7913 110.459 51.8649 110.457 51.9423V53.7688C110.459 53.8451 110.491 53.9176 110.546 53.9706C110.601 54.0238 110.674 54.0534 110.751 54.0534H114.908C114.983 54.0534 115.056 54.0234 115.109 53.9701C115.163 53.9168 115.193 53.8443 115.193 53.7688V51.9406C115.193 51.8641 115.163 51.7906 115.11 51.7356C115.057 51.6806 114.984 51.6486 114.908 51.6466L110.751 51.6481Z" fill="white"/>
<path d="M115.962 57.1504H114.975V57.1424L113.026 54.8279H110.751C110.651 54.8237 110.552 54.8142 110.454 54.7992H110.436V57.1521H109.689V50.8789H114.908C115.189 50.8794 115.459 50.9914 115.658 51.1904C115.857 51.3896 115.969 51.6594 115.97 51.9409V53.7676C115.969 54.0491 115.857 54.3189 115.658 54.5179C115.459 54.7171 115.189 54.8291 114.908 54.8294H114.005L115.962 57.1504ZM114.997 57.1044H115.863L113.906 54.7834H114.908C115.177 54.7829 115.435 54.6757 115.626 54.4854C115.816 54.2949 115.923 54.0367 115.924 53.7676V51.9409C115.924 51.6714 115.817 51.4127 115.626 51.2221C115.436 51.0312 115.178 50.9239 114.908 50.9234H109.735V57.1044H110.392V54.7467L110.46 54.7547C110.556 54.7704 110.653 54.7799 110.751 54.7834H113.051L114.997 57.1044ZM114.908 54.1189H110.751C110.657 54.1189 110.567 54.0821 110.5 54.0164C110.432 53.9507 110.394 53.8614 110.392 53.7676V51.9409C110.392 51.8457 110.43 51.7547 110.498 51.6872C110.565 51.6197 110.656 51.5812 110.751 51.5801H114.908C115.002 51.5826 115.091 51.6216 115.157 51.6891C115.223 51.7564 115.259 51.8469 115.259 51.9409V53.7676C115.259 53.8136 115.25 53.8592 115.233 53.9019C115.215 53.9446 115.189 53.9832 115.156 54.0159C115.124 54.0486 115.085 54.0744 115.042 54.0921C115 54.1097 114.954 54.1189 114.908 54.1189ZM110.751 51.6261C110.667 51.6261 110.586 51.6596 110.526 51.7192C110.466 51.7789 110.433 51.8597 110.433 51.9441V53.7707C110.436 53.8531 110.471 53.9311 110.53 53.9884C110.589 54.0456 110.668 54.0776 110.751 54.0776H114.908C114.989 54.0771 115.067 54.0446 115.124 53.9872C115.182 53.9297 115.214 53.8519 115.215 53.7707V51.9409C115.215 51.8584 115.183 51.7792 115.126 51.7199C115.068 51.6606 114.99 51.6259 114.908 51.6229L110.751 51.6261Z" fill="white"/>
<path d="M116.056 57.1938H114.959L113.011 54.8728H110.751C110.66 54.8706 110.57 54.8626 110.481 54.849V57.1938H109.646V50.835H114.908C115.203 50.835 115.486 50.9521 115.695 51.1608C115.904 51.3696 116.021 51.6526 116.021 51.9478V53.7743C116.019 54.0681 115.901 54.3491 115.692 54.5561C115.484 54.763 115.202 54.8791 114.908 54.8791H114.099L116.056 57.1938ZM115.016 57.0618H115.77L113.813 54.741H114.908C115.166 54.7405 115.413 54.6378 115.596 54.4555C115.778 54.2731 115.88 54.0258 115.881 53.768V51.9413C115.88 51.6835 115.778 51.4363 115.596 51.254C115.413 51.0715 115.166 50.969 114.908 50.9685H109.778V57.0618H110.349V54.6963L110.466 54.7123C110.561 54.7271 110.657 54.7366 110.752 54.741H113.07L113.083 54.7568L115.016 57.0618ZM114.908 54.1638H110.751C110.645 54.1635 110.544 54.1218 110.469 54.048C110.393 53.974 110.35 53.8736 110.347 53.768V51.9413C110.349 51.8348 110.392 51.733 110.467 51.6576C110.542 51.5823 110.644 51.5393 110.751 51.5376H114.908C115.014 51.5401 115.114 51.5836 115.188 51.6591C115.262 51.7345 115.304 51.8358 115.304 51.9413V53.768C115.304 53.8728 115.262 53.9733 115.188 54.0475C115.113 54.1216 115.013 54.1635 114.908 54.1638ZM110.751 51.6695C110.679 51.6708 110.611 51.6998 110.561 51.7506C110.51 51.8013 110.481 51.8698 110.481 51.9413V53.768C110.483 53.8383 110.512 53.905 110.563 53.954C110.613 54.003 110.681 54.0303 110.751 54.0303H114.908C114.978 54.0303 115.044 54.0026 115.093 53.9535C115.143 53.9043 115.17 53.8375 115.17 53.768V51.9413C115.171 51.8708 115.144 51.8028 115.094 51.752C115.045 51.7013 114.979 51.6716 114.908 51.6695H110.751Z" fill="white"/>
<path d="M118.173 50.8929H118.874V57.1279H118.173V50.8929Z" fill="white"/>
<path d="M118.919 57.1708H118.124V50.8533H118.919V57.1708ZM118.218 57.0834H118.831V50.9359H118.218V57.0834Z" fill="white"/>
<path d="M118.898 57.1501H118.151V50.8691H118.898V57.1501ZM118.197 57.104H118.852V50.9151H118.197V57.104Z" fill="white"/>
<path d="M118.941 57.1933H118.107V50.8264H118.941V57.1933ZM118.24 57.0613H118.809V50.9599H118.24V57.0613Z" fill="white"/>
<path d="M127.292 50.8929V51.5941H124.531V57.1279H123.828V51.5941H121.057V50.8929H127.292Z" fill="white"/>
<path d="M124.573 57.1716H123.779V51.6377H121.014V50.8429H127.336V51.6377H124.573V57.1716ZM123.872 57.0841H124.486V51.5502H127.249V50.9366H121.102V51.5502H123.872V57.0841Z" fill="white"/>
<path d="M124.553 57.1501H123.806V51.6163H121.035V50.8691H127.316V51.6163H124.553V57.1501ZM123.852 57.104H124.507V51.5701H127.27V50.9151H121.081V51.5701H123.852V57.104Z" fill="white"/>
<path d="M124.596 57.1933H123.763V51.6611H120.99V50.8264H127.359V51.6611H124.596V57.1933ZM123.895 57.0613H124.464V51.5274H127.227V50.9599H121.124V51.5274H123.895V57.0613Z" fill="white"/>
<path d="M135.338 50.8929L132.476 54.7799V57.1279H131.775V54.7799C130.848 53.5081 129.853 52.1648 128.913 50.8929H129.719L132.128 53.9404C132.88 52.9708 133.756 51.8628 134.512 50.8929H135.338Z" fill="white"/>
<path d="M132.516 57.1713H131.721V54.7947C130.804 53.5357 129.828 52.2208 128.885 50.9492L128.81 50.849H129.724L132.128 53.8742C132.714 53.1192 133.365 52.294 133.993 51.4897L134.498 50.8537H135.428L135.377 50.9237L132.516 54.7995V57.1713ZM131.815 57.0838H132.428V54.766L132.436 54.7548L135.252 50.9395H134.536L134.059 51.55C133.424 52.3623 132.757 53.205 132.161 53.9712L132.128 54.0157L129.691 50.9395H128.993C129.929 52.2113 130.901 53.5085 131.807 54.7548L131.816 54.766L131.815 57.0838Z" fill="white"/>
<path d="M132.495 57.1507H131.748V54.7884C130.829 53.5262 129.85 52.2067 128.904 50.9317L128.859 50.8697H129.721V50.8792L132.12 53.8997C132.71 53.1399 133.365 52.31 133.999 51.5009L134.498 50.8649H135.377L135.35 50.9015L132.489 54.7835L132.495 57.1507ZM131.792 57.1045H132.446V54.774L135.285 50.9222H134.519L134.036 51.5342C133.4 52.3482 132.734 53.1892 132.139 53.9554L132.122 53.9777L132.102 53.9554L129.694 50.9159H128.948C129.893 52.1875 130.87 53.507 131.788 54.7677L131.792 57.1045Z" fill="white"/>
<path d="M132.538 57.1936H131.703V54.809C130.816 53.5898 129.894 52.3466 128.869 50.9635L128.772 50.8331H129.743L129.758 50.8506L132.126 53.8393C132.651 53.1636 133.23 52.4293 133.789 51.7186L134.485 50.8331H135.466L132.535 54.8075L132.538 57.1936ZM131.837 57.0616H132.406V54.7581V54.747L135.199 50.9603H134.539L134.063 51.5613C133.365 52.4483 132.74 53.2416 132.166 53.9825L132.114 54.0491L132.061 53.9825L129.665 50.962H129.029C129.912 52.1495 130.904 53.488 131.818 54.7438V54.755V54.7756L131.837 57.0616Z" fill="white"/>
<path d="M141.189 50.8838H141.89V56.4255H147.423V57.1281H141.189V50.8838Z" fill="white"/>
<path d="M147.464 57.1714H141.142V50.8411H141.936V56.3829H147.47L147.464 57.1714ZM141.229 57.0839H147.377V56.4702H141.843V50.9286H141.229V57.0839Z" fill="white"/>
<path d="M147.443 57.1508H141.162V50.8618H141.909V56.4036H147.443V57.1508ZM141.208 57.1047H147.397V56.4496H141.863V50.9063H141.208V57.1047Z" fill="white"/>
<path d="M147.486 57.1938H141.119V50.8173H141.952V56.3608H147.486V57.1938ZM141.251 57.0618H147.354V56.4926H141.825V50.9509H141.256L141.251 57.0618Z" fill="white"/>
<path d="M154.929 51.5941H149.941V53.6608H153.95V54.3713H149.941V56.4379H154.929V57.1406H149.24V50.8929H154.929V51.5941Z" fill="white"/>
<path d="M154.972 57.1708H149.195V50.8533H154.972V51.6481H149.985V53.6226H153.995V54.4174H149.985V56.3919H154.972V57.1708ZM149.283 57.0834H154.885V56.4698H149.898V54.3204H153.907V53.6989H149.898V51.5496H154.885V50.9359H149.283V57.0834Z" fill="white"/>
<path d="M154.952 57.1501H149.217V50.8691H154.952V51.6163H149.963V53.632H153.974V54.3871H149.963V56.403H154.952V57.1501ZM149.262 57.104H154.905V56.449H149.918V54.3506H153.928V53.6861H149.918V51.5701H154.905V50.9151H149.262V57.104Z" fill="white"/>
<path d="M154.996 57.1933H149.173V50.8264H154.996V51.6611H150.008V53.5877H154.017V54.4319H150.008V56.3602H154.996V57.1933ZM149.306 57.0613H154.87V56.4923H149.874V54.2984H153.883V53.7149H149.874V51.5211H154.861V50.9536H149.297L149.306 57.0613Z" fill="white"/>
<path d="M162.368 50.893C162.504 50.8917 162.64 50.9177 162.767 50.9693C162.893 51.021 163.008 51.0975 163.105 51.194C163.202 51.2907 163.278 51.4057 163.33 51.5322C163.382 51.6587 163.408 51.7943 163.407 51.931V57.1278H162.706V54.8498H157.881V57.1278H157.18V51.931C157.179 51.7943 157.205 51.6587 157.257 51.5322C157.309 51.4057 157.386 51.2907 157.483 51.194C157.579 51.0975 157.694 51.021 157.821 50.9693C157.948 50.9177 158.083 50.8917 158.22 50.893H162.368ZM162.706 54.1487V51.923C162.705 51.834 162.668 51.749 162.605 51.686C162.542 51.6232 162.457 51.5873 162.368 51.586H158.212C158.123 51.5873 158.038 51.6232 157.975 51.686C157.911 51.749 157.875 51.834 157.873 51.923V54.1487H162.706Z" fill="white"/>
<path d="M163.445 57.1716H162.651V54.8951H157.918V57.1716H157.123V51.9256C157.122 51.7828 157.149 51.6413 157.203 51.5091C157.257 51.377 157.336 51.257 157.437 51.1561C157.538 51.0553 157.659 50.9756 157.791 50.922C157.923 50.8681 158.065 50.8413 158.207 50.843H162.363C162.506 50.8413 162.647 50.8681 162.779 50.922C162.912 50.9756 163.032 51.0553 163.133 51.1561C163.234 51.257 163.314 51.377 163.367 51.5091C163.421 51.6413 163.449 51.7828 163.447 51.9256L163.445 57.1716ZM162.743 57.0843H163.358V51.932C163.359 51.8008 163.334 51.6706 163.285 51.5493C163.235 51.4278 163.162 51.3175 163.069 51.2248C162.976 51.1321 162.866 51.059 162.744 51.0095C162.623 50.96 162.492 50.9353 162.361 50.9368H158.212C158.081 50.9353 157.951 50.96 157.829 51.0095C157.708 51.059 157.598 51.1323 157.505 51.225C157.412 51.3176 157.339 51.428 157.29 51.5493C157.24 51.6708 157.215 51.8008 157.217 51.932V57.0843H157.831V54.8078H162.749L162.743 57.0843ZM162.743 54.1925H157.831V51.932C157.832 51.8311 157.872 51.7348 157.944 51.6635C158.015 51.5923 158.111 51.5516 158.212 51.5505H162.368C162.468 51.5516 162.565 51.5923 162.636 51.6635C162.707 51.7348 162.748 51.8311 162.749 51.932L162.743 54.1925ZM157.912 54.1051H162.655V51.932C162.653 51.8546 162.622 51.781 162.567 51.7263C162.512 51.6715 162.439 51.6398 162.361 51.6378H158.212C158.135 51.6398 158.061 51.6715 158.006 51.7263C157.952 51.781 157.92 51.8546 157.918 51.932L157.912 54.1051Z" fill="white"/>
<path d="M163.431 57.1502H162.684V54.8722H157.897V57.1502H157.15V51.9312C157.149 51.7914 157.175 51.6525 157.228 51.523C157.281 51.3935 157.359 51.2759 157.458 51.1769C157.557 51.078 157.674 50.9999 157.804 50.947C157.933 50.8942 158.072 50.8677 158.212 50.8692H162.368C162.508 50.8677 162.646 50.8942 162.776 50.947C162.906 50.9999 163.023 51.078 163.122 51.1769C163.221 51.2757 163.3 51.3934 163.353 51.5229C163.406 51.6524 163.432 51.7912 163.431 51.9312V57.1502ZM162.728 57.1042H163.385V51.9312C163.386 51.7972 163.361 51.6645 163.31 51.5405C163.259 51.4165 163.185 51.304 163.09 51.2094C162.995 51.1149 162.882 51.04 162.758 50.9895C162.634 50.939 162.502 50.9139 162.368 50.9154H158.212C158.078 50.9139 157.945 50.939 157.821 50.9895C157.697 51.04 157.585 51.1149 157.49 51.2094C157.395 51.304 157.32 51.4165 157.27 51.5405C157.219 51.6645 157.193 51.7972 157.195 51.9312V57.1042H157.851V54.8277H162.728V57.1042ZM162.728 54.171H157.851V51.9312C157.852 51.8359 157.891 51.7447 157.958 51.6774C158.026 51.6099 158.117 51.5715 158.212 51.5704H162.368C162.463 51.5715 162.554 51.6099 162.621 51.6774C162.689 51.7447 162.727 51.8359 162.728 51.9312V54.171ZM157.897 54.1265H162.684V51.9312C162.684 51.8469 162.65 51.766 162.591 51.7064C162.531 51.6467 162.45 51.6132 162.366 51.6132H158.212C158.128 51.6132 158.047 51.6467 157.987 51.7064C157.928 51.766 157.894 51.8469 157.894 51.9312L157.897 54.1265Z" fill="white"/>
<path d="M163.474 57.1934H162.639V54.9169H157.94V57.1934H157.106V51.9314C157.104 51.7852 157.132 51.6402 157.187 51.5051C157.243 51.3697 157.325 51.2469 157.429 51.1439C157.532 51.0409 157.656 50.9599 157.791 50.9052C157.927 50.8507 158.072 50.8241 158.218 50.8266H162.374C162.52 50.8241 162.665 50.8507 162.801 50.9052C162.937 50.9599 163.06 51.0409 163.164 51.1439C163.267 51.2469 163.349 51.3697 163.405 51.5051C163.46 51.6402 163.488 51.7852 163.487 51.9314L163.474 57.1934ZM162.773 57.0614H163.34V51.9314C163.343 51.8031 163.319 51.6756 163.271 51.5566C163.223 51.4376 163.152 51.3294 163.061 51.2387C162.97 51.1481 162.862 51.0766 162.743 51.0287C162.623 50.9809 162.496 50.9576 162.368 50.9601H158.212C158.084 50.9576 157.956 50.9809 157.837 51.0287C157.718 51.0766 157.61 51.1481 157.519 51.2387C157.428 51.3294 157.356 51.4376 157.308 51.5566C157.26 51.6756 157.237 51.8031 157.239 51.9314V57.0614H157.808V54.7834H162.773V57.0614ZM162.773 54.2159H157.808V51.9314C157.81 51.8249 157.853 51.7231 157.928 51.6477C158.004 51.5724 158.105 51.5292 158.212 51.5276H162.368C162.474 51.5292 162.576 51.5722 162.652 51.6476C162.727 51.7229 162.771 51.8247 162.773 51.9314V54.2159ZM157.94 54.0824H162.639V51.9314C162.638 51.8599 162.609 51.7916 162.558 51.7411C162.508 51.6907 162.439 51.6621 162.368 51.6612H158.212C158.14 51.6621 158.072 51.6907 158.021 51.7411C157.971 51.7916 157.941 51.8599 157.94 51.9314V54.0824Z" fill="white"/>
<path d="M170.908 50.893C171.044 50.8917 171.18 50.9177 171.307 50.9693C171.433 51.021 171.548 51.0975 171.645 51.194C171.742 51.2907 171.818 51.4057 171.87 51.5322C171.922 51.6587 171.948 51.7943 171.947 51.931V56.0882C171.948 56.225 171.922 56.3607 171.87 56.4873C171.818 56.6138 171.742 56.729 171.645 56.8257C171.548 56.9225 171.433 56.999 171.307 57.0508C171.18 57.1027 171.044 57.1288 170.908 57.1278H165.712V50.893H170.908ZM171.246 51.931C171.245 51.8418 171.208 51.7568 171.145 51.694C171.082 51.631 170.997 51.5952 170.908 51.594H166.752C166.663 51.5952 166.578 51.631 166.515 51.694C166.451 51.7568 166.415 51.8418 166.413 51.931V56.0882C166.415 56.1773 166.451 56.2623 166.515 56.3252C166.578 56.3882 166.663 56.424 166.752 56.4252H170.908C170.997 56.424 171.082 56.3882 171.145 56.3252C171.208 56.2623 171.245 56.1773 171.246 56.0882V51.931Z" fill="white"/>
<path d="M170.908 57.1709H165.662V50.8534H170.908C171.05 50.8515 171.192 50.8784 171.324 50.9322C171.456 50.986 171.576 51.0657 171.677 51.1665C171.778 51.2674 171.858 51.3874 171.912 51.5195C171.966 51.6515 171.993 51.7932 171.992 51.9359V56.093C171.993 56.2354 171.965 56.3764 171.911 56.508C171.857 56.6395 171.777 56.759 171.676 56.8594C171.575 56.9597 171.455 57.0389 171.323 57.0924C171.191 57.1459 171.05 57.1725 170.908 57.1709ZM165.755 57.0834H170.908C171.039 57.0849 171.169 57.0602 171.29 57.0107C171.412 56.9612 171.522 56.888 171.615 56.7954C171.708 56.7027 171.781 56.5924 171.831 56.471C171.881 56.3495 171.906 56.2194 171.904 56.0882V51.9312C171.906 51.7999 171.881 51.6699 171.831 51.5484C171.781 51.427 171.708 51.3167 171.615 51.224C171.522 51.1314 171.412 51.058 171.29 51.0087C171.169 50.9592 171.039 50.9345 170.908 50.936H165.755V57.0834ZM170.908 56.4699H166.752C166.651 56.4685 166.555 56.428 166.484 56.3567C166.412 56.2854 166.372 56.189 166.371 56.0882V51.9312C166.372 51.8304 166.412 51.734 166.484 51.6627C166.555 51.5914 166.651 51.5509 166.752 51.5495H170.908C171.008 51.5509 171.105 51.5914 171.176 51.6627C171.247 51.734 171.288 51.8304 171.289 51.9312V56.0882C171.288 56.189 171.247 56.2854 171.176 56.3567C171.105 56.428 171.008 56.4685 170.908 56.4699ZM166.752 51.637C166.675 51.639 166.601 51.6707 166.546 51.7254C166.492 51.7802 166.46 51.8537 166.458 51.9312V56.0882C166.46 56.1657 166.492 56.2392 166.546 56.294C166.601 56.3487 166.675 56.3804 166.752 56.3824H170.908C170.985 56.3804 171.059 56.3487 171.113 56.294C171.168 56.2392 171.2 56.1657 171.202 56.0882V51.9312C171.2 51.8537 171.168 51.7802 171.113 51.7254C171.059 51.6707 170.985 51.639 170.908 51.637H166.752Z" fill="white"/>
<path d="M170.908 57.1502H165.69V50.8692H170.908C171.047 50.8677 171.186 50.8942 171.316 50.947C171.445 50.9999 171.563 51.078 171.662 51.1769C171.761 51.2759 171.839 51.3935 171.892 51.523C171.945 51.6525 171.971 51.7914 171.97 51.9312V56.0884C171.971 56.2282 171.945 56.3669 171.892 56.4964C171.839 56.6259 171.761 56.7435 171.662 56.8425C171.563 56.9414 171.445 57.0195 171.316 57.0724C171.186 57.1252 171.047 57.1517 170.908 57.1502ZM165.735 57.1042H170.908C171.042 57.1059 171.174 57.0807 171.299 57.0304C171.423 56.9799 171.535 56.9052 171.63 56.8105C171.725 56.7159 171.8 56.6032 171.851 56.4792C171.901 56.3552 171.927 56.2222 171.925 56.0884V51.9312C171.926 51.7972 171.901 51.6645 171.85 51.5405C171.799 51.4165 171.725 51.304 171.63 51.2094C171.535 51.1149 171.422 51.04 171.298 50.9895C171.174 50.939 171.041 50.9139 170.908 50.9154H165.735V57.1042ZM170.908 56.4492H166.752C166.657 56.4479 166.566 56.4095 166.498 56.342C166.431 56.2747 166.392 56.1835 166.391 56.0884V51.9312C166.392 51.8359 166.431 51.7447 166.498 51.6774C166.566 51.6099 166.657 51.5715 166.752 51.5704H170.908C171.003 51.5715 171.094 51.6099 171.161 51.6774C171.229 51.7447 171.267 51.8359 171.268 51.9312V56.0884C171.267 56.1835 171.229 56.2747 171.161 56.342C171.094 56.4095 171.003 56.4479 170.908 56.4492ZM166.752 51.6164C166.668 51.6164 166.587 51.6499 166.527 51.7095C166.468 51.7692 166.434 51.85 166.434 51.9344V56.0915C166.434 56.1759 166.468 56.2567 166.527 56.3164C166.587 56.3759 166.668 56.4094 166.752 56.4094H170.908C170.992 56.4094 171.073 56.3759 171.132 56.3164C171.192 56.2567 171.226 56.1759 171.226 56.0915V51.9312C171.226 51.8469 171.192 51.766 171.132 51.7064C171.073 51.6467 170.992 51.6132 170.908 51.6132L166.752 51.6164Z" fill="white"/>
<path d="M170.908 57.1934H165.646V50.8266H170.908C171.054 50.8241 171.199 50.8507 171.335 50.9052C171.47 50.9599 171.594 51.0409 171.697 51.1439C171.801 51.2469 171.883 51.3697 171.939 51.5051C171.994 51.6402 172.022 51.7852 172.02 51.9314V56.0886C172.022 56.2347 171.994 56.3797 171.939 56.5151C171.883 56.6502 171.801 56.7731 171.697 56.8761C171.594 56.9791 171.47 57.0602 171.335 57.1147C171.199 57.1692 171.054 57.1959 170.908 57.1934ZM165.779 57.0614H170.908C171.036 57.0627 171.163 57.0384 171.281 56.9901C171.4 56.9416 171.508 56.8699 171.598 56.7794C171.689 56.6887 171.761 56.5811 171.809 56.4624C171.857 56.3437 171.882 56.2167 171.881 56.0886V51.9314C171.883 51.8031 171.859 51.6756 171.811 51.5566C171.763 51.4376 171.692 51.3294 171.601 51.2387C171.51 51.1481 171.402 51.0766 171.283 51.0287C171.163 50.9809 171.036 50.9576 170.908 50.9601H165.779V57.0614ZM170.908 56.4924H166.752C166.645 56.4911 166.543 56.4482 166.467 56.3727C166.392 56.2974 166.348 56.1954 166.347 56.0886V51.9314C166.349 51.8247 166.392 51.7229 166.468 51.6476C166.543 51.5722 166.645 51.5292 166.752 51.5276H170.908C171.014 51.5292 171.116 51.5722 171.192 51.6476C171.268 51.7229 171.311 51.8247 171.313 51.9314V56.0886C171.311 56.1954 171.268 56.2974 171.192 56.3727C171.117 56.4482 171.014 56.4911 170.908 56.4924ZM166.752 51.6612C166.68 51.6621 166.612 51.6907 166.561 51.7411C166.511 51.7916 166.481 51.8599 166.48 51.9314V56.0886C166.481 56.1602 166.51 56.2287 166.561 56.2794C166.612 56.3301 166.68 56.3592 166.752 56.3604H170.908C170.979 56.3592 171.048 56.3301 171.098 56.2794C171.149 56.2287 171.178 56.1602 171.179 56.0886V51.9314C171.178 51.8599 171.149 51.7916 171.098 51.7411C171.048 51.6907 170.979 51.6621 170.908 51.6612H166.752Z" fill="white"/>
<path d="M179.923 51.5941H174.936V53.6608H178.945V54.3713H174.936V56.4379H179.923V57.1406H174.235V50.8929H179.923V51.5941Z" fill="white"/>
<path d="M179.967 57.1708H174.19V50.8533H179.967V51.6481H174.979V53.6226H178.988V54.4174H174.979V56.3919H179.967V57.1708ZM174.278 57.0834H179.88V56.4698H174.891V54.3204H178.901V53.6989H174.891V51.5496H179.88V50.9359H174.278V57.0834Z" fill="white"/>
<path d="M179.947 57.1501H174.211V50.8691H179.947V51.6163H174.958V53.632H178.968V54.3871H174.958V56.403H179.947V57.1501ZM174.257 57.104H179.901V56.449H174.914V54.3506H178.923V53.6861H174.914V51.5701H179.901V50.9151H174.256L174.257 57.104Z" fill="white"/>
<path d="M179.99 57.1933H174.168V50.8264H179.99V51.6611H175.003V53.5877H179.012V54.4319H175.003V56.3602H179.99V57.1933ZM174.3 57.0613H179.864V56.4923H174.876V54.2984H178.885V53.7149H174.876V51.5211H179.864V50.9536H174.3V57.0613Z" fill="white"/>
<path d="M188.377 53.7678C188.377 53.9045 188.351 54.0398 188.299 54.1662C188.247 54.2925 188.171 54.4073 188.074 54.5038C187.977 54.6005 187.862 54.6772 187.736 54.7292C187.609 54.7813 187.474 54.8078 187.337 54.8075H186.384L188.341 57.1285H187.414L185.465 54.8075H183.179C183.066 54.8023 182.953 54.7907 182.842 54.7725V57.1285H182.141V50.9015H187.336C187.472 50.9012 187.607 50.9277 187.734 50.9798C187.861 51.032 187.976 51.1085 188.072 51.2052C188.169 51.3017 188.246 51.4165 188.297 51.5428C188.349 51.6692 188.376 51.8045 188.376 51.9412L188.377 53.7678ZM187.337 54.0968C187.424 54.0968 187.509 54.0622 187.571 54.0005C187.632 53.9388 187.666 53.8552 187.666 53.7678V51.9412C187.667 51.853 187.632 51.768 187.571 51.7047C187.509 51.6413 187.426 51.6047 187.337 51.6027H183.18C183.091 51.6043 183.006 51.6405 182.943 51.7037C182.88 51.7668 182.844 51.852 182.843 51.9412V53.7678C182.845 53.8558 182.882 53.9395 182.945 54.001C183.008 54.0625 183.092 54.0968 183.18 54.0968H187.337Z" fill="white"/>
<path d="M188.436 57.1708H187.394L185.447 54.8499H183.18C183.082 54.8468 182.985 54.8371 182.888 54.8213V57.1708H182.093V50.8533H187.339C187.626 50.8533 187.901 50.9673 188.104 51.1704C188.307 51.3734 188.422 51.6488 188.422 51.9359V53.7624C188.422 54.0496 188.307 54.3249 188.104 54.5279C187.901 54.7311 187.626 54.8451 187.339 54.8451H186.481L188.436 57.1708ZM187.436 57.0834H188.246L186.287 54.7624H187.334C187.597 54.7619 187.851 54.6569 188.037 54.4704C188.224 54.2839 188.329 54.0311 188.329 53.7673V51.9406C188.329 51.6768 188.224 51.4236 188.037 51.2369C187.851 51.0503 187.597 50.9454 187.334 50.9454H182.182V57.0834H182.797V54.7226L182.886 54.7338C182.983 54.7488 183.08 54.7583 183.177 54.7624H185.484L187.436 57.0834ZM187.337 54.1408H183.18C183.081 54.1404 182.985 54.1011 182.914 54.0314C182.843 53.9616 182.802 53.8668 182.8 53.7673V51.9406C182.801 51.8399 182.841 51.7436 182.912 51.6723C182.983 51.6009 183.08 51.5604 183.18 51.5591H187.337C187.437 51.5616 187.532 51.6028 187.602 51.6741C187.671 51.7453 187.711 51.8409 187.711 51.9406V53.7673C187.711 53.8663 187.671 53.9609 187.601 54.0309C187.531 54.1009 187.436 54.1404 187.337 54.1408ZM183.18 51.6481C183.103 51.6501 183.03 51.6819 182.975 51.7366C182.921 51.7914 182.889 51.8651 182.888 51.9423V53.7688C182.89 53.8451 182.922 53.9174 182.976 53.9706C183.031 54.0238 183.104 54.0534 183.18 54.0534H187.337C187.412 54.0534 187.486 54.0234 187.539 53.9701C187.592 53.9168 187.622 53.8443 187.622 53.7688V51.9406C187.622 51.8641 187.592 51.7906 187.539 51.7356C187.486 51.6806 187.414 51.6486 187.337 51.6466L183.18 51.6481Z" fill="white"/>
<path d="M188.391 57.1504H187.404V57.1424L185.457 54.8279H183.18C183.08 54.8237 182.98 54.8142 182.881 54.7992H182.865V57.1521H182.118V50.8789H187.337C187.619 50.8794 187.889 50.9914 188.087 51.1904C188.287 51.3896 188.399 51.6594 188.399 51.9409V53.7676C188.399 54.0491 188.287 54.3189 188.087 54.5179C187.889 54.7171 187.619 54.8291 187.337 54.8294H186.434L188.391 57.1504ZM187.426 57.1044H188.292L186.337 54.7834H187.339C187.609 54.7834 187.867 54.6762 188.057 54.4857C188.247 54.2952 188.354 54.0369 188.354 53.7676V51.9409C188.354 51.6714 188.247 51.4127 188.057 51.2221C187.867 51.0312 187.609 50.9239 187.339 50.9234H182.166V57.1044H182.823V54.7467L182.888 54.7547C182.985 54.7696 183.083 54.7791 183.182 54.7834H185.479L187.426 57.1044ZM187.337 54.1189H183.18C183.086 54.1189 182.996 54.0821 182.929 54.0164C182.862 53.9507 182.823 53.8614 182.821 53.7676V51.9409C182.822 51.8457 182.86 51.7547 182.927 51.6872C182.994 51.6197 183.085 51.5812 183.18 51.5801H187.337C187.431 51.5826 187.521 51.6216 187.586 51.6891C187.652 51.7564 187.689 51.8469 187.689 51.9409V53.7676C187.689 53.8136 187.679 53.8592 187.662 53.9019C187.644 53.9446 187.619 53.9832 187.586 54.0159C187.552 54.0486 187.514 54.0744 187.472 54.0921C187.429 54.1097 187.384 54.1189 187.337 54.1189ZM183.18 51.6261C183.096 51.6261 183.015 51.6596 182.955 51.7192C182.896 51.7789 182.862 51.8597 182.862 51.9441V53.7707C182.865 53.8531 182.9 53.9311 182.959 53.9884C183.019 54.0456 183.098 54.0776 183.18 54.0776H187.337C187.419 54.0771 187.496 54.0446 187.554 53.9872C187.611 53.9297 187.644 53.8519 187.644 53.7707V51.9409C187.644 51.8584 187.612 51.7792 187.556 51.7199C187.497 51.6606 187.419 51.6259 187.337 51.6229L183.18 51.6261Z" fill="white"/>
<path d="M188.486 57.1938H187.386L185.436 54.8728H183.18C183.09 54.87 183 54.862 182.91 54.849V57.1938H182.075V50.835H187.337C187.632 50.835 187.916 50.9521 188.124 51.1608C188.332 51.3696 188.451 51.6526 188.451 51.9478V53.7743C188.447 54.0681 188.331 54.3491 188.121 54.5561C187.912 54.763 187.631 54.8791 187.337 54.8791H186.527L188.486 57.1938ZM187.447 57.0618H188.199L186.242 54.741H187.337C187.596 54.7405 187.842 54.6378 188.024 54.4555C188.207 54.2731 188.309 54.0258 188.311 53.768V51.9413C188.309 51.6835 188.207 51.4363 188.024 51.254C187.842 51.0715 187.596 50.969 187.337 50.9685H182.204V57.0618H182.772V54.698L182.888 54.7123C182.983 54.7268 183.079 54.7363 183.175 54.741H185.493L185.506 54.7568L187.447 57.0618ZM187.337 54.1638H183.18C183.075 54.1635 182.973 54.1218 182.898 54.048C182.823 53.974 182.779 53.8736 182.776 53.768V51.9413C182.778 51.8348 182.821 51.733 182.897 51.6576C182.972 51.5823 183.074 51.5393 183.18 51.5376H187.337C187.442 51.5401 187.544 51.5836 187.617 51.6591C187.691 51.7345 187.732 51.8358 187.732 51.9413V53.768C187.732 53.8728 187.691 53.9733 187.617 54.0475C187.542 54.1216 187.442 54.1635 187.337 54.1638ZM183.18 51.6695C183.109 51.6716 183.041 51.701 182.991 51.7515C182.941 51.8021 182.912 51.8701 182.91 51.9413V53.768C182.912 53.8383 182.941 53.905 182.992 53.954C183.042 54.003 183.11 54.0303 183.18 54.0303H187.337C187.407 54.0303 187.474 54.0026 187.522 53.9535C187.572 53.9043 187.599 53.8375 187.599 53.768V51.9413C187.601 51.8708 187.572 51.8028 187.524 51.752C187.474 51.7013 187.407 51.6716 187.337 51.6695H183.18Z" fill="white"/>
<path d="M196.512 53.8625C196.619 53.9606 196.704 54.0796 196.764 54.2123C196.824 54.3448 196.856 54.4881 196.857 54.6335V56.0882C196.859 56.2248 196.832 56.3603 196.781 56.4868C196.729 56.6133 196.652 56.7283 196.557 56.8252C196.461 56.9218 196.346 56.9983 196.219 57.0503C196.092 57.1023 195.957 57.1287 195.821 57.1278H190.624V50.893H195.551C195.687 50.8918 195.824 50.918 195.951 50.9698C196.076 51.0216 196.191 51.098 196.287 51.1946C196.384 51.2911 196.461 51.4061 196.512 51.5325C196.564 51.659 196.591 51.7943 196.589 51.931V53.2568C196.589 53.4161 196.549 53.573 196.477 53.7146L196.512 53.8625ZM191.662 51.594C191.574 51.5956 191.489 51.6316 191.426 51.6943C191.362 51.7571 191.326 51.842 191.324 51.931V53.2568C191.326 53.3458 191.362 53.4306 191.426 53.4935C191.489 53.5563 191.574 53.5921 191.662 53.5938H195.551C195.639 53.5918 195.722 53.5553 195.784 53.4923C195.846 53.4293 195.881 53.3448 195.881 53.2568V51.931C195.881 51.843 195.846 51.7585 195.784 51.6955C195.722 51.6325 195.639 51.596 195.551 51.594H191.662ZM196.157 54.6335C196.156 54.5443 196.121 54.4592 196.057 54.396C195.994 54.3328 195.909 54.2965 195.821 54.295H191.662C191.574 54.2965 191.489 54.3328 191.426 54.396C191.362 54.459 191.326 54.5443 191.324 54.6335V56.0882C191.326 56.1772 191.362 56.262 191.426 56.3248C191.489 56.3875 191.574 56.4235 191.662 56.4252H195.821C195.909 56.4235 195.994 56.3875 196.057 56.3247C196.119 56.2618 196.156 56.177 196.157 56.0882V54.6335Z" fill="white"/>
<path d="M195.817 57.171H190.571V50.8533H195.542C195.684 50.852 195.826 50.8788 195.957 50.9328C196.091 50.9867 196.211 51.0663 196.311 51.1672C196.411 51.268 196.491 51.388 196.546 51.52C196.599 51.652 196.626 51.7935 196.624 51.936V53.2618C196.622 53.423 196.586 53.5818 196.514 53.726L196.542 53.8453C196.651 53.9473 196.737 54.0705 196.799 54.207C196.859 54.3435 196.891 54.4908 196.892 54.6402V56.0947C196.894 56.2362 196.866 56.3765 196.812 56.5073C196.759 56.6382 196.679 56.7572 196.579 56.8572C196.479 56.9572 196.361 57.0365 196.229 57.0903C196.099 57.1442 195.959 57.1717 195.817 57.171ZM190.664 57.0835H195.817C195.947 57.085 196.077 57.0603 196.199 57.0108C196.321 56.9613 196.431 56.8882 196.524 56.7953C196.617 56.7027 196.691 56.5923 196.739 56.471C196.789 56.3495 196.814 56.2195 196.812 56.0883V54.6338C196.811 54.4943 196.779 54.357 196.722 54.2298C196.666 54.1027 196.582 53.9887 196.479 53.8945L196.469 53.8867L196.427 53.7102V53.6958C196.497 53.56 196.534 53.4098 196.536 53.257V51.9312C196.537 51.8002 196.512 51.67 196.462 51.5487C196.414 51.4272 196.341 51.317 196.247 51.2242C196.154 51.1315 196.044 51.0583 195.922 51.0088C195.801 50.9593 195.671 50.9345 195.541 50.936H190.657L190.664 57.0835ZM195.817 56.4698H191.659C191.559 56.4687 191.462 56.428 191.391 56.3568C191.321 56.2855 191.279 56.1892 191.279 56.0883V54.6338C191.279 54.533 191.321 54.4367 191.391 54.3653C191.462 54.294 191.559 54.2535 191.659 54.2522H195.817C195.917 54.2535 196.014 54.2942 196.084 54.3655C196.156 54.4368 196.196 54.5332 196.197 54.6338V56.0883C196.196 56.189 196.156 56.2853 196.084 56.3567C196.014 56.428 195.917 56.4687 195.817 56.4698ZM191.659 54.3397C191.582 54.3413 191.509 54.3728 191.454 54.4277C191.399 54.4823 191.367 54.5563 191.366 54.6338V56.0883C191.367 56.1657 191.399 56.2393 191.454 56.2942C191.509 56.3488 191.582 56.3805 191.659 56.3825H195.817C195.894 56.38 195.967 56.3483 196.022 56.2935C196.076 56.2388 196.107 56.1655 196.109 56.0883V54.6338C196.107 54.5565 196.076 54.4828 196.022 54.4282C195.967 54.3733 195.894 54.3417 195.817 54.3397H191.659ZM195.549 53.6387H191.659C191.559 53.6373 191.462 53.5968 191.391 53.5255C191.321 53.4542 191.279 53.3578 191.279 53.257V51.9312C191.279 51.8305 191.321 51.7342 191.391 51.6628C191.462 51.5915 191.559 51.551 191.659 51.5497H195.549C195.647 51.5522 195.742 51.5935 195.812 51.6648C195.881 51.736 195.921 51.8317 195.921 51.9312V53.257C195.921 53.3567 195.881 53.4523 195.812 53.5235C195.742 53.5948 195.647 53.6362 195.549 53.6387ZM191.659 51.6372C191.582 51.6392 191.509 51.6708 191.454 51.7255C191.399 51.7802 191.367 51.8538 191.366 51.9312V53.257C191.367 53.3345 191.399 53.408 191.454 53.4628C191.509 53.5175 191.582 53.5492 191.659 53.5512H195.549C195.624 53.5487 195.697 53.5167 195.751 53.4617C195.802 53.4068 195.832 53.3335 195.832 53.257V51.9312C195.832 51.8548 195.802 51.7815 195.751 51.7265C195.697 51.6717 195.624 51.6397 195.549 51.6372H191.659Z" fill="white"/>
<path d="M195.817 57.1502H190.597V50.8692H195.549C195.687 50.8679 195.827 50.8945 195.956 50.9474C196.086 51.0004 196.202 51.0785 196.302 51.1774C196.401 51.2762 196.479 51.3939 196.532 51.5232C196.586 51.6527 196.611 51.7914 196.611 51.9312V53.257C196.609 53.4172 196.571 53.5749 196.499 53.718L196.529 53.8499C196.637 53.9502 196.724 54.0714 196.784 54.206C196.844 54.3409 196.876 54.4862 196.877 54.6337V56.0882C196.879 56.228 196.852 56.3667 196.799 56.496C196.747 56.6254 196.669 56.743 196.571 56.8419C196.471 56.9409 196.354 57.019 196.224 57.0719C196.096 57.1249 195.957 57.1515 195.817 57.1502ZM190.642 57.104H195.817C195.951 57.1055 196.084 57.0804 196.207 57.0299C196.331 56.9794 196.444 56.9045 196.539 56.8099C196.634 56.7152 196.707 56.6027 196.759 56.4787C196.809 56.3549 196.834 56.222 196.832 56.0882V54.6337C196.831 54.4915 196.799 54.3512 196.741 54.2215C196.682 54.092 196.597 53.9757 196.492 53.8802V53.8739L196.456 53.7149V53.7069C196.527 53.568 196.564 53.4145 196.566 53.2585V51.9327C196.567 51.799 196.542 51.6664 196.491 51.5425C196.441 51.4187 196.366 51.3062 196.271 51.2115C196.176 51.117 196.064 51.0422 195.941 50.9917C195.816 50.941 195.684 50.9157 195.551 50.9169H190.644L190.642 57.104ZM195.817 56.4492H191.659C191.564 56.4479 191.474 56.4095 191.406 56.342C191.339 56.2747 191.301 56.1835 191.299 56.0882V54.6337C191.301 54.5384 191.339 54.4472 191.406 54.3799C191.474 54.3125 191.564 54.274 191.659 54.2729H195.817C195.912 54.274 196.002 54.3125 196.071 54.38C196.137 54.4474 196.176 54.5385 196.176 54.6337V56.0882C196.176 56.1835 196.137 56.2745 196.071 56.342C196.002 56.4094 195.912 56.4479 195.817 56.4492ZM191.659 54.3189C191.576 54.3189 191.494 54.3524 191.436 54.412C191.376 54.4717 191.342 54.5525 191.342 54.6369V56.0915C191.342 56.1757 191.376 56.2567 191.436 56.3162C191.494 56.3759 191.576 56.4094 191.659 56.4094H195.817C195.901 56.4094 195.982 56.3759 196.042 56.3162C196.101 56.2567 196.136 56.1757 196.136 56.0915V54.6369C196.136 54.5525 196.101 54.4717 196.042 54.412C195.982 54.3524 195.901 54.3189 195.817 54.3189H191.659ZM195.549 53.6162H191.659C191.564 53.6154 191.474 53.5774 191.406 53.5102C191.339 53.443 191.301 53.3522 191.299 53.257V51.9312C191.301 51.8359 191.339 51.7447 191.406 51.6774C191.474 51.6099 191.564 51.5715 191.659 51.5702H195.549C195.642 51.5727 195.732 51.6119 195.797 51.6794C195.862 51.7467 195.899 51.837 195.899 51.9312V53.257C195.899 53.3509 195.862 53.441 195.797 53.5082C195.732 53.5754 195.642 53.6142 195.549 53.6162ZM191.659 51.6164C191.576 51.6164 191.494 51.6499 191.436 51.7095C191.376 51.7692 191.342 51.85 191.342 51.9344V53.2602C191.342 53.3445 191.376 53.4254 191.436 53.485C191.494 53.5445 191.576 53.578 191.659 53.578H195.549C195.631 53.5749 195.707 53.5399 195.766 53.4805C195.822 53.4214 195.854 53.3424 195.854 53.2602V51.9344C195.854 51.8522 195.822 51.7732 195.766 51.7139C195.707 51.6545 195.631 51.6197 195.549 51.6164H191.659Z" fill="white"/>
<path d="M195.817 57.1934H190.554V50.8266H195.549C195.694 50.8239 195.839 50.8504 195.976 50.9049C196.111 50.9594 196.234 51.0404 196.339 51.1436C196.442 51.2466 196.524 51.3694 196.579 51.5048C196.636 51.6401 196.662 51.7853 196.661 51.9314V53.2573C196.661 53.4188 196.624 53.5779 196.552 53.7231L196.577 53.8281C196.686 53.9321 196.774 54.0569 196.834 54.1954C196.896 54.3338 196.927 54.4829 196.929 54.6341V56.0886C196.931 56.2348 196.904 56.3798 196.847 56.5151C196.792 56.6503 196.711 56.7731 196.607 56.8761C196.502 56.9791 196.379 57.0603 196.244 57.1148C196.109 57.1693 195.962 57.1961 195.817 57.1934ZM190.687 57.0616H195.817C195.946 57.0639 196.072 57.0404 196.192 56.9923C196.311 56.9443 196.419 56.8726 196.509 56.7818C196.601 56.6909 196.672 56.5828 196.719 56.4636C196.767 56.3444 196.791 56.2169 196.789 56.0886V54.6341C196.787 54.4984 196.759 54.3644 196.704 54.2404C196.649 54.1163 196.569 54.0046 196.471 53.9123L196.461 53.9028L196.452 53.8853L196.409 53.7073V53.6944C196.479 53.5593 196.517 53.4094 196.517 53.2573V51.9314C196.521 51.8033 196.497 51.6759 196.449 51.5569C196.401 51.4381 196.329 51.3301 196.239 51.2394C196.147 51.1488 196.041 51.0773 195.921 51.0293C195.802 50.9813 195.674 50.9578 195.547 50.9601H190.686L190.687 57.0616ZM195.817 56.4924H191.659C191.552 56.4913 191.451 56.4483 191.376 56.3729C191.299 56.2974 191.256 56.1954 191.254 56.0886V54.6341C191.256 54.5271 191.299 54.4253 191.376 54.3498C191.451 54.2744 191.552 54.2314 191.659 54.2303H195.817C195.924 54.2319 196.026 54.2749 196.101 54.3503C196.176 54.4258 196.219 54.5274 196.221 54.6341V56.0886C196.219 56.1953 196.176 56.2969 196.101 56.3723C196.026 56.4478 195.924 56.4908 195.817 56.4924ZM191.659 54.3623C191.589 54.3643 191.521 54.3934 191.469 54.4441C191.419 54.4946 191.391 54.5626 191.387 54.6341V56.0886C191.391 56.1601 191.419 56.2281 191.469 56.2786C191.521 56.3291 191.589 56.3584 191.659 56.3604H195.817C195.889 56.3593 195.957 56.3301 196.007 56.2794C196.057 56.2286 196.086 56.1603 196.087 56.0886V54.6341C196.086 54.5628 196.057 54.4948 196.006 54.4441C195.956 54.3936 195.889 54.3643 195.817 54.3623H191.659ZM195.549 53.6611H191.659C191.552 53.6594 191.451 53.6164 191.376 53.5411C191.299 53.4658 191.256 53.3641 191.254 53.2573V51.9314C191.256 51.8248 191.299 51.7229 191.376 51.6476C191.451 51.5723 191.552 51.5293 191.659 51.5278H195.549C195.654 51.5303 195.754 51.5738 195.827 51.6493C195.901 51.7248 195.942 51.8261 195.942 51.9314V53.2573C195.942 53.3628 195.901 53.4641 195.827 53.5396C195.754 53.6149 195.654 53.6586 195.549 53.6611ZM191.659 51.6613C191.589 51.6628 191.521 51.6918 191.471 51.7421C191.419 51.7924 191.391 51.8603 191.387 51.9314V53.2573C191.391 53.3286 191.419 53.3964 191.471 53.4468C191.521 53.4971 191.589 53.5259 191.659 53.5276H195.549C195.619 53.5254 195.686 53.4961 195.734 53.4456C195.782 53.3953 195.811 53.3276 195.811 53.2573V51.9314C195.811 51.8611 195.782 51.7936 195.734 51.7431C195.686 51.6928 195.619 51.6633 195.549 51.6613H191.659Z" fill="white"/>
<path d="M204.277 50.893C204.414 50.8917 204.549 50.9177 204.676 50.9693C204.802 51.021 204.917 51.0975 205.014 51.194C205.112 51.2907 205.187 51.4057 205.241 51.5322C205.292 51.6587 205.317 51.7943 205.317 51.931V56.0882C205.317 56.225 205.292 56.3607 205.241 56.4873C205.189 56.6138 205.112 56.729 205.016 56.8257C204.917 56.9225 204.802 56.999 204.676 57.0508C204.551 57.1027 204.414 57.1288 204.277 57.1278H200.121C199.984 57.1288 199.847 57.1027 199.721 57.0508C199.594 56.999 199.479 56.9225 199.382 56.8257C199.286 56.729 199.209 56.6138 199.157 56.4873C199.106 56.3607 199.079 56.225 199.081 56.0882V51.931C199.079 51.7943 199.106 51.6587 199.157 51.5322C199.209 51.4057 199.286 51.2907 199.382 51.194C199.479 51.0975 199.594 51.021 199.721 50.9693C199.847 50.9177 199.984 50.8917 200.121 50.893H204.277ZM204.277 56.4252C204.366 56.4235 204.451 56.3875 204.514 56.3247C204.577 56.2618 204.612 56.177 204.614 56.0882V51.931C204.612 51.8422 204.577 51.7573 204.514 51.6945C204.451 51.6317 204.366 51.5957 204.277 51.594H200.121C200.031 51.5957 199.947 51.6317 199.884 51.6945C199.821 51.7573 199.786 51.8422 199.784 51.931V56.0882C199.786 56.177 199.821 56.2618 199.884 56.3247C199.947 56.3875 200.031 56.4235 200.121 56.4252H204.277Z" fill="white"/>
<path d="M204.277 57.1714H200.121C199.977 57.1729 199.836 57.1459 199.704 57.0921C199.572 57.0382 199.452 56.9584 199.351 56.8576C199.251 56.7569 199.171 56.6369 199.117 56.5049C199.062 56.3729 199.036 56.2314 199.037 56.0887V51.9317C199.036 51.7891 199.062 51.6477 199.117 51.5156C199.171 51.3836 199.251 51.2637 199.351 51.1629C199.452 51.0621 199.572 50.9824 199.704 50.9284C199.836 50.8746 199.977 50.8476 200.121 50.8491H204.277C204.421 50.8476 204.561 50.8746 204.694 50.9284C204.826 50.9824 204.946 51.0621 205.046 51.1629C205.147 51.2637 205.227 51.3836 205.281 51.5156C205.334 51.6477 205.361 51.7891 205.361 51.9317V56.0887C205.361 56.2314 205.334 56.3729 205.281 56.5049C205.227 56.6369 205.147 56.7569 205.046 56.8576C204.946 56.9584 204.826 57.0382 204.694 57.0921C204.561 57.1459 204.421 57.1729 204.277 57.1714ZM200.121 50.9366C199.989 50.9351 199.859 50.9597 199.737 51.0092C199.616 51.0587 199.506 51.1319 199.414 51.2247C199.321 51.3174 199.247 51.4277 199.197 51.5491C199.149 51.6706 199.124 51.8006 199.126 51.9317V56.0887C199.124 56.2199 199.149 56.3501 199.197 56.4714C199.247 56.5927 199.321 56.7031 199.414 56.7959C199.506 56.8886 199.616 56.9617 199.737 57.0112C199.859 57.0607 199.989 57.0854 200.121 57.0839H204.277C204.409 57.0854 204.539 57.0607 204.661 57.0112C204.781 56.9617 204.892 56.8886 204.984 56.7959C205.077 56.7031 205.151 56.5927 205.199 56.4714C205.249 56.3501 205.274 56.2199 205.272 56.0887V51.9317C205.274 51.8006 205.249 51.6706 205.199 51.5491C205.151 51.4277 205.077 51.3174 204.984 51.2247C204.892 51.1319 204.781 51.0587 204.661 51.0092C204.539 50.9597 204.409 50.9351 204.277 50.9366H200.121ZM204.277 56.4704H200.121C200.019 56.4691 199.922 56.4286 199.852 56.3572C199.781 56.2859 199.741 56.1896 199.739 56.0887V51.9317C199.741 51.8309 199.781 51.7346 199.852 51.6632C199.922 51.5921 200.019 51.5514 200.121 51.5502H204.277C204.377 51.5514 204.474 51.5921 204.546 51.6632C204.617 51.7346 204.657 51.8309 204.659 51.9317V56.0887C204.657 56.1896 204.617 56.2859 204.546 56.3572C204.474 56.4286 204.377 56.4691 204.277 56.4704ZM200.121 51.6376C200.042 51.6399 199.969 51.6717 199.916 51.7264C199.861 51.7811 199.829 51.8544 199.826 51.9317V56.0887C199.829 56.1661 199.861 56.2394 199.916 56.2941C199.969 56.3487 200.042 56.3806 200.121 56.3829H204.277C204.354 56.3806 204.427 56.3487 204.482 56.2941C204.537 56.2394 204.569 56.1661 204.571 56.0887V51.9317C204.569 51.8544 204.537 51.7811 204.482 51.7264C204.427 51.6717 204.354 51.6399 204.277 51.6376H200.121Z" fill="white"/>
<path d="M204.277 57.1502H200.121C199.981 57.1515 199.842 57.1249 199.712 57.072C199.582 57.019 199.466 56.9409 199.367 56.842C199.267 56.7432 199.189 56.6255 199.137 56.4962C199.084 56.3667 199.057 56.228 199.059 56.0884V51.9312C199.057 51.7914 199.084 51.6527 199.137 51.5232C199.189 51.3939 199.267 51.2764 199.367 51.1774C199.466 51.0785 199.582 51.0004 199.712 50.9475C199.842 50.8945 199.981 50.868 200.121 50.8692H204.277C204.417 50.8677 204.556 50.8942 204.686 50.947C204.816 50.9999 204.932 51.078 205.032 51.1769C205.131 51.2759 205.209 51.3935 205.262 51.523C205.314 51.6525 205.341 51.7914 205.339 51.9312V56.0884C205.341 56.2282 205.314 56.3669 205.262 56.4964C205.209 56.6259 205.131 56.7435 205.032 56.8425C204.932 56.9414 204.816 57.0195 204.686 57.0724C204.556 57.1252 204.417 57.1517 204.277 57.1502ZM200.121 50.9154C199.987 50.914 199.854 50.9395 199.731 50.99C199.606 51.0407 199.494 51.1154 199.399 51.21C199.304 51.3045 199.229 51.417 199.179 51.5409C199.129 51.6647 199.104 51.7974 199.104 51.9312V56.0884C199.102 56.222 199.129 56.3549 199.179 56.4789C199.229 56.6027 199.304 56.7154 199.399 56.8099C199.494 56.9045 199.606 56.9794 199.729 57.0299C199.854 57.0804 199.986 57.1055 200.121 57.1042H204.277C204.411 57.1059 204.544 57.0807 204.669 57.0302C204.792 56.9799 204.906 56.905 204.999 56.8104C205.094 56.7157 205.169 56.603 205.219 56.479C205.271 56.355 205.296 56.2222 205.294 56.0884V51.9312C205.294 51.7974 205.269 51.6645 205.219 51.5407C205.169 51.4167 205.094 51.3042 204.999 51.2095C204.904 51.1149 204.792 51.0402 204.667 50.9895C204.544 50.939 204.411 50.9139 204.277 50.9154H200.121ZM204.277 56.4492H200.121C200.026 56.4479 199.934 56.4094 199.867 56.342C199.801 56.2745 199.762 56.1835 199.761 56.0884V51.9312C199.762 51.836 199.801 51.7449 199.867 51.6775C199.934 51.61 200.026 51.5715 200.121 51.5704H204.277C204.372 51.5715 204.464 51.6099 204.531 51.6774C204.599 51.7447 204.637 51.8359 204.639 51.9312V56.0884C204.637 56.1835 204.599 56.2747 204.531 56.342C204.464 56.4095 204.372 56.4479 204.277 56.4492ZM200.121 51.6164C200.036 51.6164 199.956 51.6499 199.896 51.7095C199.836 51.7692 199.802 51.85 199.802 51.9344V56.0915C199.802 56.1759 199.836 56.2567 199.896 56.3164C199.956 56.3759 200.036 56.4094 200.121 56.4094H204.277C204.362 56.4094 204.442 56.3759 204.502 56.3164C204.562 56.2567 204.596 56.1759 204.596 56.0915V51.9312C204.596 51.8469 204.562 51.766 204.502 51.7064C204.442 51.6467 204.362 51.6132 204.277 51.6132L200.121 51.6164Z" fill="white"/>
<path d="M204.277 57.1934H200.121C199.974 57.1963 199.829 57.1696 199.692 57.1153C199.557 57.0608 199.434 56.9796 199.331 56.8766C199.226 56.7734 199.144 56.6506 199.089 56.5153C199.034 56.3799 199.006 56.2349 199.007 56.0886V51.9314C199.006 51.7853 199.034 51.6401 199.089 51.5048C199.144 51.3694 199.226 51.2466 199.331 51.1436C199.434 51.0404 199.557 50.9594 199.692 50.9049C199.829 50.8504 199.974 50.8239 200.121 50.8266H204.277C204.424 50.8239 204.569 50.8504 204.704 50.9049C204.841 50.9594 204.964 51.0404 205.067 51.1436C205.171 51.2466 205.254 51.3694 205.309 51.5048C205.364 51.6401 205.392 51.7853 205.391 51.9314V56.0886C205.392 56.2349 205.364 56.3799 205.309 56.5153C205.254 56.6506 205.171 56.7734 205.067 56.8766C204.964 56.9796 204.841 57.0608 204.704 57.1153C204.569 57.1696 204.424 57.1963 204.277 57.1934ZM200.121 50.9601C199.992 50.9576 199.864 50.9809 199.746 51.0288C199.626 51.0766 199.517 51.1481 199.427 51.2388C199.336 51.3294 199.264 51.4376 199.217 51.5566C199.169 51.6756 199.146 51.8031 199.147 51.9314V56.0886C199.146 56.2168 199.171 56.3438 199.219 56.4624C199.267 56.5811 199.339 56.6888 199.429 56.7794C199.521 56.8699 199.627 56.9416 199.746 56.9901C199.866 57.0384 199.992 57.0628 200.121 57.0616H204.277C204.406 57.0628 204.532 57.0384 204.651 56.9901C204.771 56.9416 204.877 56.8699 204.969 56.7794C205.059 56.6888 205.131 56.5811 205.179 56.4624C205.227 56.3438 205.252 56.2168 205.251 56.0886V51.9314C205.252 51.8031 205.229 51.6756 205.181 51.5566C205.132 51.4376 205.061 51.3294 204.971 51.2388C204.879 51.1481 204.772 51.0766 204.652 51.0288C204.534 50.9809 204.406 50.9576 204.277 50.9601H200.121ZM204.277 56.4924H200.121C200.014 56.4908 199.912 56.4478 199.837 56.3723C199.761 56.2969 199.717 56.1953 199.716 56.0886V51.9314C199.717 51.8249 199.761 51.7231 199.837 51.6478C199.912 51.5724 200.014 51.5293 200.121 51.5278H204.277C204.384 51.5293 204.486 51.5724 204.561 51.6478C204.636 51.7231 204.679 51.8249 204.681 51.9314V56.0886C204.681 56.1953 204.637 56.2973 204.562 56.3728C204.486 56.4483 204.384 56.4911 204.277 56.4924ZM200.121 51.6613C200.049 51.6621 199.981 51.6908 199.931 51.7413C199.879 51.7918 199.851 51.8601 199.851 51.9314V56.0886C199.851 56.1603 199.879 56.2286 199.931 56.2794C199.981 56.3301 200.049 56.3593 200.121 56.3604H204.277C204.349 56.3593 204.417 56.3303 204.469 56.2794C204.519 56.2288 204.547 56.1603 204.549 56.0886V51.9314C204.547 51.8599 204.519 51.7916 204.467 51.7413C204.417 51.6908 204.349 51.6621 204.277 51.6613H200.121Z" fill="white"/>
<path d="M212.782 50.893C212.919 50.8917 213.054 50.9177 213.181 50.9693C213.307 51.021 213.422 51.0975 213.521 51.194C213.617 51.2907 213.694 51.4057 213.746 51.5322C213.797 51.6587 213.824 51.7943 213.822 51.931V57.1278H213.119V54.8498H208.289V57.1278H207.586V51.931C207.584 51.7943 207.611 51.6587 207.662 51.5322C207.714 51.4057 207.791 51.2907 207.887 51.194C207.984 51.0975 208.099 51.021 208.226 50.9693C208.352 50.9177 208.489 50.8917 208.626 50.893H212.782ZM213.119 54.1487V51.923C213.117 51.8342 213.082 51.7495 213.019 51.6865C212.956 51.6237 212.871 51.5877 212.782 51.586H208.626C208.536 51.5877 208.452 51.6237 208.389 51.6865C208.326 51.7495 208.291 51.8342 208.289 51.923V54.1487H213.119Z" fill="white"/>
<path d="M213.866 57.1716H213.071V54.8951H208.326V57.1716H207.531V51.9256C207.529 51.783 207.556 51.6415 207.609 51.5095C207.664 51.3775 207.742 51.2576 207.844 51.1568C207.944 51.056 208.064 50.9763 208.197 50.9223C208.329 50.8685 208.471 50.8415 208.612 50.843H212.769C212.912 50.8415 213.054 50.8685 213.186 50.9223C213.317 50.9763 213.437 51.056 213.539 51.1568C213.639 51.2576 213.719 51.3775 213.772 51.5095C213.827 51.6415 213.854 51.783 213.852 51.9256L213.866 57.1716ZM213.164 57.0843H213.777V51.932C213.779 51.8008 213.754 51.6708 213.706 51.5493C213.656 51.428 213.582 51.3176 213.489 51.225C213.397 51.1321 213.286 51.059 213.166 51.0095C213.044 50.96 212.914 50.9353 212.782 50.9368H208.626C208.494 50.9353 208.364 50.96 208.242 51.0095C208.121 51.059 208.011 51.1321 207.919 51.225C207.826 51.3176 207.752 51.428 207.702 51.5493C207.654 51.6708 207.629 51.8008 207.631 51.932V57.0843H208.244V54.8078H213.172L213.164 57.0843ZM213.164 54.1925H208.236V51.932C208.237 51.8311 208.277 51.7348 208.349 51.6635C208.421 51.5923 208.517 51.5516 208.617 51.5505H212.774C212.876 51.5516 212.972 51.5923 213.042 51.6635C213.114 51.7348 213.154 51.8311 213.156 51.932L213.164 54.1925ZM208.331 54.1051H213.077V51.932C213.074 51.8546 213.042 51.7813 212.987 51.7266C212.932 51.672 212.859 51.6403 212.782 51.6378H208.626C208.547 51.6403 208.474 51.672 208.421 51.7266C208.366 51.7813 208.334 51.8546 208.331 51.932V54.1051Z" fill="white"/>
<path d="M213.839 57.1502H213.092V54.8722H208.306V57.1502H207.559V51.9312C207.557 51.7914 207.584 51.6527 207.637 51.5232C207.689 51.3939 207.767 51.2764 207.867 51.1774C207.966 51.0785 208.084 51.0004 208.212 50.9475C208.342 50.8945 208.481 50.868 208.621 50.8692H212.777C212.917 50.8677 213.056 50.8942 213.186 50.947C213.316 50.9999 213.432 51.078 213.532 51.1769C213.631 51.2759 213.709 51.3935 213.762 51.523C213.814 51.6525 213.841 51.7914 213.839 51.9312V57.1502ZM213.139 57.1042H213.794V51.9312C213.796 51.7974 213.769 51.6645 213.719 51.5407C213.669 51.4167 213.594 51.3042 213.499 51.2095C213.404 51.1149 213.292 51.0402 213.167 50.9895C213.044 50.939 212.911 50.9139 212.777 50.9154H208.626C208.492 50.914 208.359 50.9395 208.236 50.99C208.111 51.0407 207.999 51.1154 207.904 51.21C207.809 51.3045 207.734 51.417 207.684 51.5409C207.634 51.6647 207.609 51.7974 207.609 51.9312V57.1042H208.266V54.8277H213.144L213.139 57.1042ZM213.139 54.171H208.261V51.9312C208.262 51.836 208.301 51.7449 208.367 51.6775C208.434 51.61 208.526 51.5715 208.621 51.5704H212.777C212.872 51.5715 212.964 51.6099 213.031 51.6774C213.099 51.7447 213.137 51.8359 213.139 51.9312V54.171ZM208.306 54.1265H213.092V51.9312C213.092 51.8469 213.059 51.766 212.999 51.7064C212.939 51.6467 212.859 51.6132 212.774 51.6132H208.626C208.541 51.6132 208.461 51.6467 208.401 51.7064C208.341 51.766 208.307 51.8469 208.307 51.9312L208.306 54.1265Z" fill="white"/>
<path d="M213.887 57.1934H213.054V54.9169H208.356V57.1934H207.521V51.9314C207.519 51.7853 207.546 51.6401 207.602 51.5048C207.657 51.3694 207.739 51.2466 207.842 51.1436C207.947 51.0404 208.071 50.9594 208.206 50.9049C208.342 50.8504 208.487 50.8239 208.634 50.8266H212.791C212.937 50.8239 213.082 50.8504 213.217 50.9049C213.354 50.9594 213.477 51.0404 213.581 51.1436C213.684 51.2466 213.766 51.3694 213.822 51.5048C213.877 51.6401 213.906 51.7853 213.902 51.9314L213.887 57.1934ZM213.186 57.0616H213.756V51.9314C213.758 51.8031 213.734 51.6756 213.686 51.5566C213.637 51.4376 213.566 51.3294 213.476 51.2388C213.384 51.1481 213.276 51.0766 213.157 51.0288C213.039 50.9809 212.911 50.9576 212.782 50.9601H208.626C208.497 50.9576 208.369 50.9809 208.251 51.0288C208.131 51.0766 208.022 51.1481 207.932 51.2388C207.841 51.3294 207.769 51.4376 207.722 51.5566C207.674 51.6756 207.651 51.8031 207.652 51.9314V57.0616H208.221V54.7834H213.186V57.0616ZM213.186 54.2159H208.221V51.9314C208.222 51.8249 208.266 51.7231 208.342 51.6478C208.417 51.5724 208.519 51.5293 208.626 51.5278H212.782C212.889 51.5293 212.991 51.5724 213.066 51.6478C213.141 51.7231 213.184 51.8249 213.186 51.9314V54.2159ZM208.356 54.0824H213.054V51.9314C213.052 51.8599 213.024 51.7916 212.972 51.7413C212.922 51.6908 212.854 51.6621 212.782 51.6613H208.626C208.554 51.6621 208.486 51.6908 208.436 51.7413C208.384 51.7918 208.356 51.8601 208.356 51.9314V54.0824Z" fill="white"/>
<path d="M222.336 53.7678C222.336 53.9045 222.309 54.0398 222.257 54.1662C222.204 54.2925 222.127 54.4073 222.031 54.5038C221.934 54.6005 221.821 54.6772 221.694 54.7292C221.567 54.7813 221.432 54.8078 221.296 54.8075H220.342L222.299 57.1285H221.372L219.424 54.8075H217.137C217.024 54.8023 216.911 54.7907 216.799 54.7725V57.1285H216.099V50.9015H221.294C221.431 50.9012 221.566 50.9277 221.692 50.9798C221.819 51.032 221.934 51.1085 222.031 51.2052C222.126 51.3017 222.202 51.4165 222.256 51.5428C222.307 51.6692 222.334 51.8045 222.334 51.9412L222.336 53.7678ZM221.296 54.0968C221.382 54.0968 221.466 54.0622 221.527 54.0005C221.589 53.9388 221.624 53.8552 221.624 53.7678V51.9412C221.626 51.853 221.591 51.768 221.529 51.7047C221.467 51.6413 221.384 51.6047 221.296 51.6027H217.139C217.049 51.6043 216.964 51.6405 216.901 51.7037C216.839 51.7668 216.802 51.852 216.801 51.9412V53.7678C216.804 53.8558 216.839 53.9395 216.902 54.001C216.966 54.0625 217.051 54.0968 217.139 54.0968H221.296Z" fill="white"/>
<path d="M222.394 57.1708H221.352L219.404 54.8499H217.137C217.039 54.8468 216.941 54.8371 216.844 54.8213V57.1708H216.049V50.8533H221.296C221.582 50.8533 221.857 50.9673 222.061 51.1704C222.264 51.3734 222.377 51.6488 222.377 51.9359V53.7624C222.377 54.0496 222.264 54.3249 222.061 54.5279C221.857 54.7311 221.582 54.8451 221.296 54.8451H220.437L222.394 57.1708ZM221.394 57.0834H222.206L220.249 54.7624H221.296C221.559 54.7619 221.812 54.6569 221.999 54.4704C222.186 54.2839 222.291 54.0311 222.291 53.7673V51.9406C222.291 51.6768 222.186 51.4236 221.999 51.2369C221.812 51.0503 221.559 50.9454 221.296 50.9454H216.142V57.0834H216.759V54.7226L216.849 54.7338C216.944 54.7486 217.041 54.7581 217.139 54.7624H219.446L221.394 57.0834ZM221.296 54.1408H217.139C217.039 54.1404 216.944 54.1011 216.872 54.0314C216.801 53.9616 216.761 53.8668 216.759 53.7673V51.9406C216.759 51.8399 216.799 51.7436 216.871 51.6723C216.941 51.6009 217.037 51.5604 217.139 51.5591H221.296C221.396 51.5616 221.491 51.6028 221.559 51.6741C221.629 51.7453 221.669 51.8409 221.669 51.9406V53.7673C221.669 53.8663 221.629 53.9609 221.559 54.0309C221.489 54.1009 221.394 54.1404 221.296 54.1408ZM217.139 51.6481C217.061 51.6501 216.987 51.6819 216.932 51.7366C216.879 51.7914 216.847 51.8651 216.846 51.9423V53.7688C216.847 53.8451 216.879 53.9174 216.934 53.9706C216.989 54.0238 217.062 54.0534 217.139 54.0534H221.296C221.371 54.0534 221.444 54.0234 221.497 53.9701C221.551 53.9168 221.581 53.8444 221.582 53.7688V51.9406C221.582 51.8639 221.552 51.7904 221.499 51.7354C221.444 51.6806 221.372 51.6486 221.296 51.6466L217.139 51.6481Z" fill="white"/>
<path d="M222.349 57.1504H221.362V57.1424L219.414 54.8279H217.139C217.039 54.8237 216.939 54.8142 216.839 54.7992H216.824V57.1521H216.077V50.8789H221.296C221.577 50.8794 221.847 50.9914 222.046 51.1904C222.246 51.3896 222.357 51.6594 222.357 51.9409V53.7676C222.357 54.0491 222.246 54.3189 222.046 54.5179C221.847 54.7171 221.577 54.8291 221.296 54.8294H220.392L222.349 57.1504ZM221.384 57.1044H222.251L220.294 54.7834H221.296C221.429 54.7834 221.561 54.7571 221.684 54.7061C221.807 54.6549 221.919 54.5801 222.014 54.4857C222.107 54.3914 222.182 54.2796 222.234 54.1562C222.286 54.0331 222.311 53.9009 222.311 53.7676V51.9409C222.311 51.6714 222.204 51.4127 222.014 51.2221C221.824 51.0312 221.566 50.9239 221.296 50.9234H216.122V57.1044H216.779V54.7467L216.846 54.7547C216.942 54.7696 217.041 54.7792 217.139 54.7834H219.436L221.384 57.1044ZM221.296 54.1189H217.139C217.044 54.1189 216.954 54.0821 216.887 54.0164C216.821 53.9507 216.781 53.8614 216.779 53.7676V51.9409C216.781 51.8457 216.817 51.7547 216.886 51.6872C216.952 51.6197 217.042 51.5812 217.139 51.5801H221.296C221.389 51.5826 221.479 51.6216 221.544 51.6891C221.611 51.7564 221.647 51.8469 221.647 51.9409V53.7676C221.647 53.8136 221.637 53.8592 221.621 53.9019C221.602 53.9446 221.576 53.9832 221.544 54.0159C221.511 54.0486 221.472 54.0744 221.431 54.0921C221.387 54.1097 221.342 54.1189 221.296 54.1189ZM217.139 51.6261C217.054 51.6261 216.972 51.6596 216.914 51.7192C216.854 51.7789 216.821 51.8597 216.821 51.9441V53.7707C216.824 53.8531 216.857 53.9311 216.917 53.9884C216.977 54.0456 217.056 54.0776 217.139 54.0776H221.296C221.377 54.0771 221.454 54.0446 221.512 53.9872C221.569 53.9297 221.602 53.8519 221.602 53.7707V51.9409C221.602 51.8584 221.571 51.7792 221.512 51.7199C221.456 51.6606 221.377 51.6259 221.296 51.6229L217.139 51.6261Z" fill="white"/>
<path d="M222.444 57.1938H221.342L219.394 54.8728H217.139C217.047 54.87 216.957 54.862 216.867 54.849V57.1938H216.034V50.835H221.296C221.591 50.835 221.874 50.9521 222.082 51.1608C222.291 51.3696 222.409 51.6526 222.409 51.9478V53.7743C222.406 54.0681 222.287 54.3491 222.079 54.5561C221.871 54.763 221.589 54.8791 221.296 54.8791H220.486L222.444 57.1938ZM221.406 57.0618H222.157L220.199 54.741H221.294C221.552 54.7405 221.799 54.6378 221.981 54.4555C222.164 54.2731 222.266 54.0258 222.267 53.768V51.9413C222.267 51.6833 222.164 51.436 221.982 51.2535C221.799 51.071 221.552 50.9685 221.294 50.9685H216.166V57.0618H216.732V54.698L216.849 54.7123C216.944 54.7268 217.041 54.7363 217.137 54.741H219.454L219.467 54.7568L221.406 57.0618ZM221.296 54.1638H217.139C217.032 54.1635 216.931 54.1218 216.856 54.048C216.781 53.974 216.737 53.8736 216.734 53.768V51.9413C216.736 51.8348 216.779 51.733 216.854 51.6576C216.931 51.5823 217.032 51.5393 217.139 51.5376H221.296C221.401 51.5401 221.501 51.5836 221.576 51.6591C221.649 51.7345 221.691 51.8358 221.691 51.9413V53.768C221.691 53.8728 221.649 53.9733 221.576 54.0475C221.501 54.1216 221.401 54.1635 221.296 54.1638ZM217.139 51.6695C217.067 51.6716 216.999 51.701 216.949 51.7515C216.899 51.8021 216.869 51.8701 216.867 51.9413V53.768C216.871 53.8383 216.899 53.905 216.951 53.954C217.001 54.003 217.067 54.0303 217.139 54.0303H221.296C221.366 54.0303 221.432 54.0026 221.481 53.9535C221.531 53.9043 221.557 53.8375 221.557 53.768V51.9413C221.557 51.8708 221.531 51.8028 221.482 51.752C221.432 51.7013 221.366 51.6716 221.296 51.6695H217.139Z" fill="white"/>
<path d="M229.766 50.893C229.902 50.8917 230.037 50.9177 230.164 50.9693C230.291 51.021 230.406 51.0975 230.502 51.194C230.599 51.2907 230.676 51.4057 230.727 51.5322C230.781 51.6587 230.806 51.7943 230.806 51.931V56.0882C230.806 56.225 230.781 56.3607 230.727 56.4873C230.676 56.6138 230.599 56.729 230.502 56.8257C230.406 56.9225 230.291 56.999 230.164 57.0508C230.037 57.1027 229.902 57.1288 229.766 57.1278H224.571V50.893H229.766ZM230.104 51.931C230.102 51.8418 230.066 51.7568 230.002 51.694C229.939 51.631 229.854 51.5952 229.766 51.594H225.604C225.514 51.5952 225.429 51.631 225.366 51.694C225.302 51.7568 225.267 51.8418 225.266 51.931V56.0882C225.267 56.1773 225.302 56.2623 225.366 56.3252C225.429 56.3882 225.514 56.424 225.604 56.4252H229.759C229.849 56.424 229.934 56.3882 229.997 56.3252C230.059 56.2623 230.096 56.1773 230.097 56.0882L230.104 51.931Z" fill="white"/>
<path d="M229.766 57.1709H224.519V50.8534H229.766C229.907 50.8515 230.049 50.8784 230.182 50.9322C230.314 50.986 230.434 51.0657 230.536 51.1665C230.636 51.2674 230.716 51.3874 230.771 51.5195C230.824 51.6515 230.851 51.7932 230.849 51.9359V56.093C230.851 56.2354 230.823 56.3764 230.769 56.508C230.714 56.6395 230.634 56.759 230.534 56.8594C230.432 56.9597 230.312 57.0389 230.181 57.0924C230.049 57.1459 229.907 57.1725 229.766 57.1709ZM224.614 57.0834H229.766C229.897 57.0849 230.028 57.0602 230.149 57.0107C230.269 56.9612 230.381 56.888 230.472 56.7954C230.566 56.7027 230.639 56.5924 230.689 56.471C230.739 56.3495 230.764 56.2194 230.762 56.0882V51.9312C230.764 51.7999 230.739 51.6699 230.689 51.5484C230.639 51.427 230.566 51.3167 230.472 51.224C230.381 51.1314 230.269 51.058 230.149 51.0087C230.028 50.9592 229.897 50.9345 229.766 50.936H224.614V57.0834ZM229.766 56.4699H225.604C225.503 56.4685 225.406 56.428 225.336 56.3567C225.264 56.2854 225.224 56.189 225.222 56.0882V51.9312C225.224 51.8304 225.264 51.734 225.336 51.6627C225.406 51.5914 225.503 51.5509 225.604 51.5495H229.759C229.861 51.5509 229.956 51.5914 230.027 51.6627C230.099 51.734 230.139 51.8304 230.141 51.9312V56.0882C230.139 56.188 230.099 56.2834 230.029 56.3545C229.961 56.4255 229.866 56.4669 229.766 56.4699ZM225.604 51.637C225.526 51.639 225.453 51.6707 225.398 51.7254C225.343 51.7802 225.311 51.8537 225.309 51.9312V56.0882C225.311 56.1657 225.343 56.2392 225.398 56.294C225.453 56.3487 225.526 56.3804 225.604 56.3824H229.759C229.836 56.3804 229.911 56.3487 229.964 56.294C230.019 56.2392 230.051 56.1657 230.054 56.0882V51.9312C230.051 51.8537 230.019 51.7802 229.964 51.7254C229.911 51.6707 229.836 51.639 229.759 51.637H225.604Z" fill="white"/>
<path d="M229.766 57.1502H224.547V50.8692H229.766C229.906 50.8677 230.044 50.8942 230.174 50.947C230.302 50.9999 230.421 51.078 230.519 51.1769C230.619 51.2759 230.697 51.3935 230.749 51.523C230.802 51.6525 230.829 51.7914 230.827 51.9312V56.0884C230.829 56.2282 230.802 56.3669 230.749 56.4964C230.697 56.6259 230.619 56.7435 230.519 56.8425C230.421 56.9414 230.302 57.0195 230.174 57.0724C230.044 57.1252 229.906 57.1517 229.766 57.1502ZM224.592 57.1042H229.766C229.899 57.1059 230.032 57.0807 230.156 57.0304C230.281 56.9799 230.394 56.9052 230.487 56.8105C230.582 56.7159 230.657 56.6032 230.709 56.4792C230.759 56.3552 230.784 56.2222 230.782 56.0884V51.9312C230.784 51.7972 230.759 51.6645 230.707 51.5405C230.657 51.4165 230.582 51.304 230.487 51.2094C230.392 51.1149 230.281 51.04 230.156 50.9895C230.032 50.939 229.899 50.9139 229.766 50.9154H224.592V57.1042ZM229.766 56.4492H225.604C225.509 56.4479 225.417 56.4095 225.349 56.342C225.282 56.2747 225.244 56.1835 225.242 56.0884V51.9312C225.244 51.8359 225.282 51.7447 225.349 51.6774C225.417 51.6099 225.509 51.5715 225.604 51.5704H229.759C229.854 51.5715 229.946 51.6099 230.012 51.6774C230.081 51.7447 230.119 51.8359 230.121 51.9312V56.0884C230.119 56.1825 230.081 56.2727 230.016 56.3399C229.949 56.4072 229.859 56.4464 229.766 56.4492ZM225.604 51.6164C225.519 51.6164 225.439 51.6499 225.379 51.7095C225.319 51.7692 225.286 51.85 225.286 51.9344V56.0915C225.286 56.1759 225.319 56.2567 225.379 56.3164C225.439 56.3759 225.519 56.4094 225.604 56.4094H229.759C229.844 56.4094 229.924 56.3759 229.984 56.3164C230.044 56.2567 230.077 56.1759 230.077 56.0915V51.9312C230.077 51.8469 230.044 51.766 229.984 51.7064C229.924 51.6467 229.844 51.6132 229.759 51.6132L225.604 51.6164Z" fill="white"/>
<path d="M229.766 57.1934H224.504V50.8266H229.766C229.912 50.8241 230.057 50.8507 230.192 50.9052C230.327 50.9599 230.451 51.0409 230.556 51.1439C230.659 51.2469 230.741 51.3697 230.796 51.5051C230.852 51.6402 230.879 51.7852 230.879 51.9314V56.0886C230.879 56.2347 230.852 56.3797 230.796 56.5151C230.741 56.6502 230.659 56.7731 230.556 56.8761C230.451 56.9791 230.327 57.0602 230.192 57.1147C230.057 57.1692 229.912 57.1959 229.766 57.1934ZM224.637 57.0614H229.766C229.894 57.0629 230.021 57.0387 230.139 56.9904C230.259 56.9421 230.366 56.8704 230.457 56.7799C230.547 56.6892 230.619 56.5814 230.667 56.4626C230.716 56.3439 230.741 56.2167 230.739 56.0886V51.9314C230.741 51.8031 230.717 51.6756 230.669 51.5566C230.621 51.4376 230.549 51.3294 230.459 51.2387C230.367 51.1481 230.259 51.0766 230.141 51.0287C230.021 50.9809 229.894 50.9576 229.766 50.9601H224.637V57.0614ZM229.766 56.4924H225.604C225.497 56.4911 225.394 56.4482 225.319 56.3727C225.242 56.2974 225.201 56.1954 225.199 56.0886V51.9314C225.201 51.8247 225.244 51.7229 225.319 51.6476C225.396 51.5722 225.497 51.5292 225.604 51.5276H229.759C229.866 51.5292 229.967 51.5722 230.044 51.6476C230.119 51.7229 230.162 51.8247 230.164 51.9314V56.0886C230.162 56.1944 230.121 56.2954 230.046 56.3706C229.972 56.4459 229.871 56.4896 229.766 56.4924ZM225.604 51.6612C225.532 51.6621 225.464 51.6907 225.412 51.7411C225.362 51.7916 225.332 51.8599 225.332 51.9314V56.0886C225.332 56.1602 225.362 56.2287 225.412 56.2794C225.464 56.3301 225.532 56.3592 225.604 56.3604H229.759C229.831 56.3592 229.899 56.3301 229.951 56.2794C230.001 56.2287 230.029 56.1602 230.031 56.0886V51.9314C230.029 51.8599 230.001 51.7916 229.951 51.7411C229.899 51.6907 229.831 51.6621 229.759 51.6612H225.604Z" fill="white"/>
</svg>
