<svg width="251" height="75" viewBox="0 0 251 75" fill="none" xmlns="http://www.w3.org/2000/svg">
<path d="M96.6441 37.1346C96.5907 35.8155 96.7989 34.4988 97.2569 33.2605C97.7149 32.0223 98.4135 30.8869 99.3125 29.9201C100.212 28.9532 101.293 28.1739 102.495 27.6272C103.697 27.0805 104.995 26.7771 106.314 26.7346H106.724C111.824 26.7346 114.834 29.7346 115.724 33.2446L112.554 34.3046C112.269 32.9966 111.524 31.8346 110.454 31.0306C109.383 30.2265 108.06 29.834 106.724 29.9246C103.424 29.9246 100.114 32.3346 100.114 37.1946C100.114 42.0546 103.344 44.3746 106.764 44.3746C108.106 44.4113 109.422 43.9967 110.501 43.1972C111.579 42.3977 112.359 41.2594 112.714 39.9646L115.824 40.9646C115.287 42.9398 114.093 44.673 112.439 45.8783C110.785 47.0836 108.769 47.689 106.724 47.5946C104.097 47.6428 101.559 46.646 99.667 44.8234C97.775 43.0007 96.6841 40.5013 96.6341 37.8746C96.6241 37.6346 96.6341 37.3846 96.6441 37.1346Z" fill="white"/>
<path d="M121.994 47.135H118.714V26.675H121.994V34.675C122.47 34.1103 123.069 33.6617 123.745 33.3636C124.421 33.0656 125.156 32.9258 125.894 32.955C129.284 32.955 130.894 35.385 130.894 38.415V47.135H127.734V38.995C127.829 38.3011 127.647 37.5978 127.228 37.0366C126.809 36.4755 126.186 36.1014 125.494 35.995C125.298 35.9749 125.1 35.9749 124.904 35.995C124.146 35.995 123.418 36.2964 122.882 36.8327C122.345 37.3691 122.044 38.0965 122.044 38.855C122.039 38.9383 122.039 39.0218 122.044 39.105L121.994 47.135Z" fill="white"/>
<path d="M138.254 39.2551L141.774 38.7051C142.574 38.6051 142.774 38.1951 142.774 37.7051C142.774 36.5451 141.994 35.6151 140.174 35.6151C139.487 35.5595 138.805 35.7772 138.277 36.2208C137.749 36.6645 137.418 37.2984 137.354 37.9851V38.1351L134.354 37.4651C134.604 35.0851 136.764 32.9651 140.144 32.9651C144.384 32.9651 145.994 35.3651 145.994 38.1651V44.9951C145.991 45.7352 146.047 46.4743 146.164 47.2051H143.164C143.056 46.625 143.012 46.0348 143.034 45.4451C142.579 46.1459 141.948 46.7151 141.204 47.0958C140.46 47.4766 139.629 47.6556 138.794 47.6151C137.654 47.7092 136.523 47.3473 135.649 46.6086C134.776 45.87 134.231 44.815 134.134 43.6751C134.134 43.6051 134.134 43.5351 134.134 43.4751C134.084 40.9451 135.894 39.5851 138.254 39.2551ZM142.794 41.4651V40.8351L139.204 41.3751C138.717 41.3905 138.254 41.5937 137.913 41.9422C137.572 42.2907 137.379 42.7575 137.374 43.2451C137.378 43.4867 137.43 43.7251 137.527 43.9464C137.624 44.1678 137.764 44.3676 137.939 44.5342C138.114 44.7008 138.32 44.8309 138.546 44.9169C138.772 45.0029 139.013 45.0431 139.254 45.0351H139.404C139.813 45.0779 140.227 45.0394 140.622 44.9216C141.016 44.8039 141.383 44.6092 141.702 44.349C142.021 44.0887 142.285 43.7679 142.479 43.4052C142.673 43.0424 142.794 42.6447 142.834 42.2351C142.848 41.9773 142.832 41.7188 142.784 41.4651H142.794Z" fill="white"/>
<path d="M151.574 26.3952C151.856 26.3913 152.136 26.443 152.398 26.5476C152.659 26.6521 152.898 26.8073 153.1 27.0043C153.301 27.2013 153.462 27.4362 153.573 27.6955C153.683 27.9548 153.742 28.2334 153.744 28.5152C153.744 28.9372 153.619 29.3497 153.385 29.701C153.152 30.0522 152.819 30.3265 152.43 30.4893C152.041 30.6521 151.612 30.6962 151.198 30.6161C150.783 30.5359 150.402 30.335 150.101 30.0387C149.801 29.7424 149.595 29.3639 149.509 28.9508C149.423 28.5377 149.461 28.1084 149.619 27.7169C149.776 27.3254 150.046 26.9891 150.393 26.7504C150.741 26.5117 151.152 26.3812 151.574 26.3752V26.3952ZM149.974 47.1952V33.3752H153.254V47.1352L149.974 47.1952Z" fill="white"/>
<path d="M160.724 47.1345H157.454V33.3745H160.644V35.2045C161.06 34.5018 161.657 33.924 162.373 33.5316C163.09 33.1393 163.898 32.9468 164.714 32.9745C168.074 32.9745 169.714 35.4045 169.714 38.4345V47.1345H166.444V38.9945C166.444 37.3045 165.674 35.9345 163.614 35.9345C163.233 35.9372 162.857 36.0148 162.506 36.1629C162.155 36.3111 161.837 36.5269 161.569 36.7981C161.302 37.0692 161.09 37.3904 160.947 37.7432C160.804 38.0961 160.731 38.4737 160.734 38.8545C160.734 38.9645 160.734 39.0745 160.734 39.1845L160.724 47.1345Z" fill="white"/>
<path d="M173.674 47.135V26.675H176.954V47.135H173.674Z" fill="white"/>
<path d="M182.804 26.3948C183.226 26.3928 183.639 26.5163 183.991 26.7496C184.343 26.9829 184.618 27.3154 184.78 27.7051C184.942 28.0947 184.986 28.5238 184.904 28.9379C184.822 29.352 184.619 29.7324 184.32 30.0309C184.022 30.3294 183.641 30.5325 183.227 30.6143C182.813 30.6962 182.384 30.6532 181.994 30.4907C181.605 30.3283 181.272 30.0537 181.039 29.7019C180.806 29.3501 180.682 28.9369 180.684 28.5148C180.689 27.9542 180.914 27.418 181.311 27.0215C181.707 26.625 182.243 26.4 182.804 26.3948V26.3948ZM181.194 47.1948V33.3748H184.444V47.1348L181.194 47.1948Z" fill="white"/>
<path d="M191.964 47.1353H188.684V33.3753H191.874V35.2053C192.291 34.5033 192.888 33.9261 193.604 33.5338C194.32 33.1416 195.128 32.9487 195.944 32.9753C199.304 32.9753 200.944 35.4053 200.944 38.4353V47.1353H197.664V38.9953C197.759 38.3014 197.577 37.5981 197.158 37.0369C196.739 36.4758 196.116 36.1017 195.424 35.9953C195.225 35.9753 195.024 35.9753 194.824 35.9953C194.06 36.0032 193.33 36.3123 192.793 36.8553C192.255 37.3983 191.954 38.1314 191.954 38.8953C191.944 39.0118 191.944 39.1289 191.954 39.2453L191.964 47.1353Z" fill="white"/>
<path d="M212.134 39.185L217.904 47.185H213.904L209.904 41.515L208.214 43.295V47.135H204.964V26.675H208.214V38.935L213.494 33.375H217.844L212.134 39.185Z" fill="white"/>
<path d="M57.8141 21.135L71.9942 29.275V45.635L57.8542 53.825L43.6842 45.705V29.355L57.8141 21.135ZM57.8141 9.13501L52.6142 12.135L38.4542 20.355L33.2542 23.355V51.725L38.4542 54.725L52.6341 62.865L57.8342 65.865L63.0342 62.865L77.1642 54.665L82.3642 51.665V23.255L77.1642 20.255L62.9942 12.135L57.7942 9.13501H57.8141Z" fill="white"/>
</svg>
