<svg width="43" height="42" viewBox="0 0 43 42" fill="none" xmlns="http://www.w3.org/2000/svg">
<path d="M21.5793 39C31.5205 39 39.5793 30.9411 39.5793 21C39.5793 11.0589 31.5205 3 21.5793 3C11.6382 3 3.57935 11.0589 3.57935 21C3.57935 30.9411 11.6382 39 21.5793 39Z" fill="#3343CC"/>
<path d="M21.5794 19.5665C24.5233 19.5665 26.9098 17.18 26.9098 14.2361C26.9098 11.2921 24.5233 8.90558 21.5794 8.90558C18.6354 8.90558 16.2489 11.2921 16.2489 14.2361C16.2489 17.18 18.6354 19.5665 21.5794 19.5665Z" fill="#72F9FB"/>
<path d="M21.5793 21.6953C19.5199 21.6964 17.5145 22.3534 15.8537 23.5712C14.193 24.789 12.9634 26.5041 12.3432 28.4678C12.238 28.804 12.2134 29.1601 12.2716 29.5075C12.3298 29.8549 12.4691 30.1836 12.6781 30.4671C12.8872 30.7505 13.1601 30.9807 13.4748 31.1389C13.7894 31.2972 14.137 31.379 14.4892 31.3777H28.6608C29.013 31.379 29.3606 31.2972 29.6752 31.1389C29.9899 30.9807 30.2628 30.7505 30.4719 30.4671C30.6809 30.1836 30.8202 29.8549 30.8784 29.5075C30.9365 29.1601 30.912 28.804 30.8068 28.4678C30.1882 26.5048 28.9602 24.7899 27.3009 23.5721C25.6417 22.3543 23.6375 21.6969 21.5793 21.6953V21.6953Z" fill="#72F9FB"/>
</svg>
