<svg width="250" height="75" viewBox="0 0 250 75" fill="none" xmlns="http://www.w3.org/2000/svg">
<path d="M111.693 33.4648H97.1216V36.8271H97.5993C97.7188 36.3468 98.5548 35.3861 99.6297 35.3861C99.6297 35.3861 102.735 35.3861 102.854 35.3861C102.854 35.5062 102.854 52.5579 102.854 52.5579H106.079C106.079 52.5579 106.079 35.5062 106.079 35.3861C106.199 35.3861 109.423 35.3861 109.423 35.3861C110.498 35.3861 111.215 35.9866 111.334 36.587V36.7071H111.812L111.693 33.4648Z" fill="white"/>
<path d="M16.7419 32.3841C14.5921 34.5456 13.3977 37.6677 13.3977 40.6698C13.3977 44.1522 14.8309 47.2743 17.2196 49.4358C19.6083 51.5973 22.8331 52.7981 26.1773 52.7981C27.9688 52.7981 31.4324 52.4379 34.896 50.3965L35.0155 50.2764L35.3738 45.4731L34.7766 45.353L34.6571 45.5932C32.149 50.7567 28.3271 50.7567 26.7744 50.7567C20.2055 50.7567 17.2196 45.2329 17.2196 40.1894C17.2196 35.2661 20.2055 30.2226 26.7744 30.2226C28.8048 30.2226 32.5073 30.9431 34.4183 35.3862L34.5377 35.6263L35.1349 35.3862L34.896 30.4628L34.7766 30.3427C31.6713 29.0218 29.1631 28.4214 26.655 28.4214C22.5942 28.5415 19.1306 29.8624 16.7419 32.3841V32.3841Z" fill="white"/>
<path d="M38.5986 33.4648L38.4791 33.9452C38.718 34.0652 39.0763 34.7857 39.0763 35.6263V52.4379H42.1816C42.1816 52.4379 42.1816 43.912 42.1816 43.7919C42.301 43.7919 43.4954 43.7919 43.4954 43.7919C44.6897 43.912 45.1675 44.6325 45.8841 45.7132L46.0035 45.8333L46.3618 46.5538C47.0784 47.6346 47.9145 49.1956 48.87 50.6366C49.5866 51.7174 50.4226 52.1977 51.4975 52.4379C52.2142 52.5579 53.7668 52.5579 54.364 52.3178L55.0806 52.1977L55.3195 52.0776L54.364 51.8374C54.0057 51.7174 53.4085 51.4772 52.5725 50.5165C52.0947 49.9161 51.2587 48.5952 50.0643 46.6739L48.87 44.7526C48.5117 44.2722 48.0339 43.5518 47.0785 42.9513C48.87 42.3509 50.5421 40.7899 50.5421 38.3882C50.5421 37.6677 50.4226 36.3468 49.2283 35.2661C48.0339 34.1853 46.2424 33.5849 43.7343 33.5849L38.5986 33.4648ZM43.9731 35.2661C47.1979 35.3861 47.3173 38.148 47.3173 38.5083C47.3173 41.2702 45.2869 42.2308 43.6148 42.2308C43.6148 42.2308 42.5399 42.2308 42.301 42.2308C42.301 42.1108 42.301 35.5062 42.301 35.3861C42.6594 35.2661 43.2565 35.146 43.9731 35.2661V35.2661Z" fill="white"/>
<path d="M70.7266 33.4648V33.9452C70.9654 34.0652 71.2043 34.7857 71.2043 35.3861V52.4378H76.5789C80.1619 52.4378 83.0284 51.3571 85.0588 49.1956C86.7309 47.3944 87.6864 45.1128 87.6864 42.5911C87.6864 41.1501 87.2086 38.8685 85.7754 37.0673C83.8644 34.6656 80.998 33.3447 77.0566 33.3447L70.7266 33.4648ZM74.429 35.3861C74.5485 35.3861 76.1011 35.3861 76.1011 35.3861C76.5789 35.3861 77.6538 35.3861 78.4898 35.5062C83.745 36.3468 84.3422 40.7898 84.3422 42.7112C84.3422 44.2722 84.1033 46.4337 82.7895 48.235C81.4757 49.9161 79.4453 50.7567 76.6983 50.7567C76.1011 50.7567 75.2651 50.7567 74.429 50.7567C74.429 50.5165 74.429 35.5062 74.429 35.3861V35.3861Z" fill="white"/>
<path d="M94.2553 33.4648H90.5529V33.9452C90.9112 34.0652 91.15 34.7857 91.15 35.5062V52.4379H94.2553V33.4648Z" fill="white"/>
<path d="M157.556 33.4648H153.853V33.9452C154.212 34.0652 154.45 34.7857 154.45 35.5062V52.4379H157.556V33.4648Z" fill="white"/>
<path d="M66.6658 33.4648H56.1555L56.275 33.9452C56.5138 34.0652 56.8721 34.7857 56.8721 35.6263V52.4379H67.3824L68.099 49.0755L67.6213 48.9555L67.5019 49.1956C66.6658 50.5165 65.7103 50.7567 62.7244 50.7567C61.6495 50.7567 60.5746 50.6366 59.858 50.6366C59.858 50.5165 59.858 43.0714 59.858 42.9513C59.9774 42.9513 65.2326 42.9513 65.2326 42.9513V41.1501C65.2326 41.1501 60.0969 41.1501 59.858 41.1501C59.858 41.03 59.858 35.3861 59.858 35.2661C59.9774 35.2661 64.1577 35.2661 64.1577 35.2661C65.1132 35.2661 66.1881 36.2267 66.3075 36.8271V36.9472H66.7852L66.6658 33.4648Z" fill="white"/>
<path d="M201.389 33.4648H190.878V33.9452C191.117 34.0652 191.475 34.6657 191.475 35.6263V52.4379H201.986L202.702 49.0755L202.225 48.9555L202.105 49.1956C201.269 50.5165 200.314 50.7567 197.328 50.7567C196.253 50.7567 195.178 50.6366 194.461 50.6366C194.461 50.5165 194.461 43.0714 194.461 42.9513C194.581 42.9513 199.836 42.9513 199.836 42.9513V41.1501C199.836 41.1501 194.7 41.1501 194.461 41.1501C194.461 41.03 194.461 35.3861 194.461 35.2661C194.581 35.2661 198.761 35.2661 198.761 35.2661C199.955 35.2661 200.791 36.2267 200.791 36.8271V36.9472H201.269L201.389 33.4648Z" fill="white"/>
<path d="M120.889 29.9824C119.815 30.823 118.501 32.264 118.381 34.7857C118.381 34.7857 118.381 34.7857 118.381 34.9058C118.381 37.9079 120.292 39.589 123.398 41.1501C123.517 41.2702 123.756 41.3903 124.592 41.7505C127.22 43.0714 129.011 44.0321 129.011 46.6739C129.011 47.6345 128.653 48.9555 127.697 49.9161C126.861 50.7567 125.786 51.1169 124.472 51.1169C120.531 51.1169 119.098 47.6345 118.74 46.0735L118.62 45.8333L117.904 45.9534L118.142 50.8768L118.501 50.7567C119.815 51.4772 121.845 52.678 124.95 52.7981C127.1 52.7981 129.25 51.9575 130.803 50.3964C132.116 49.0755 132.833 47.3944 132.833 45.5932C132.833 41.6304 129.967 40.0694 126.981 38.5083L126.383 38.148C123.278 36.587 121.845 35.6263 121.845 33.705C121.845 32.3841 122.92 30.2226 125.547 30.2226C128.653 30.2226 130.325 32.6243 130.683 34.0652L130.803 34.3054L131.519 34.1853L131.28 29.8624L131.161 29.7423C129.369 28.5415 127.1 28.3013 126.145 28.3013C123.995 28.4214 122.203 29.0218 120.889 29.9824V29.9824Z" fill="white"/>
<path d="M162.691 38.2681C162.691 40.9099 164.244 42.2308 166.752 43.5518L167.708 44.0321C169.738 44.9927 171.052 45.7132 171.052 47.6346C171.052 47.9948 170.932 49.0755 170.096 50.0362C169.499 50.6366 168.663 50.9969 167.588 50.8768C164.602 50.8768 163.527 48.4751 163.05 47.1542L162.93 46.9141L162.333 47.0341L162.453 50.9969L162.572 51.1169C163.527 51.7174 165.2 52.678 167.708 52.678C169.38 52.678 171.171 51.9575 172.366 50.7567C173.441 49.676 173.918 48.3551 173.918 46.9141C173.918 43.5518 171.649 42.3509 169.26 41.1501L168.783 40.9099C166.155 39.589 165.319 38.9886 165.319 37.5476C165.319 36.4669 166.036 35.0259 168.185 35.0259C170.694 35.0259 171.769 36.9472 172.007 37.9079L172.127 38.148L172.724 38.028L172.485 34.5456L172.366 34.4255C170.932 33.4648 169.141 33.3447 168.424 33.3447C165.677 33.3447 162.691 35.0259 162.691 38.2681V38.2681Z" fill="white"/>
<path d="M176.785 38.2681C176.785 40.9099 178.338 42.2308 180.846 43.5518L181.801 44.0321C183.832 44.9927 185.145 45.7132 185.145 47.6346C185.145 47.9948 185.026 49.0755 184.19 50.0362C183.593 50.6366 182.757 50.9969 181.682 50.8768C178.696 50.8768 177.621 48.4751 177.143 47.1542L177.024 46.9141L176.427 47.0341L176.546 50.9969L176.666 51.1169C177.621 51.7174 179.293 52.678 181.801 52.678C183.473 52.678 185.265 51.9575 186.459 50.7567C187.534 49.676 188.012 48.3551 188.012 46.9141C188.012 43.5518 185.743 42.3509 183.354 41.1501L182.876 40.9099C180.249 39.589 179.413 38.9886 179.413 37.5476C179.413 36.9472 179.651 36.2267 180.129 35.7464C180.607 35.2661 181.323 35.0259 182.16 35.0259C184.668 35.0259 185.743 36.9472 185.981 37.9079L186.101 38.148L186.698 38.028L186.459 34.5456L186.34 34.4255C184.907 33.4648 183.115 33.3447 182.398 33.3447C179.89 33.3447 176.785 35.0259 176.785 38.2681V38.2681Z" fill="white"/>
<path d="M149.793 33.4648H147.285V33.9452C147.404 34.0652 147.762 34.3054 147.762 35.5062V46.3136C147.762 48.355 147.046 50.8768 143.343 50.8768C139.88 50.8768 139.163 48.8354 139.163 45.7132V33.4648H135.222V33.9452C135.46 34.0652 135.938 34.5456 135.938 35.6263V45.7132C135.938 51.9575 139.999 52.678 143.104 52.678C144.657 52.678 149.554 52.1977 149.554 46.3136L149.793 33.4648Z" fill="white"/>
<path d="M228.5 28.0611C230.769 28.7816 233.039 29.7423 235.547 31.1833C229.456 21.0963 218.707 10.1688 208.077 3.08397C210.824 5.84586 215.243 11.85 216.437 18.2144C220.737 21.3365 224.798 24.6988 228.5 28.0611Z" fill="white"/>
<path d="M228.5 28.0611C223.245 26.38 218.826 26.2599 215.601 26.6201C216.796 23.8582 216.915 20.9762 216.437 18.2143C208.435 12.4504 199.478 7.40693 190.998 3.68437C197.208 7.88726 204.136 20.2557 207.002 33.4648C213.213 31.6636 222.648 30.3427 234.95 34.5456C232.919 32.3841 230.77 30.2226 228.5 28.0611V28.0611Z" fill="white"/>
</svg>
