<svg width="80" height="81" viewBox="0 0 80 81" fill="none" xmlns="http://www.w3.org/2000/svg">
<g clip-path="url(#clip0)">
<path d="M53.0729 47.8805C48.1001 56.4935 42.0492 63.313 36.3466 67.3978C30.5218 71.57 25.5909 72.5516 22.4467 70.7364C19.3025 68.9211 17.6872 64.1599 18.3881 57.0294C19.0742 50.0485 21.9546 41.3984 26.9274 32.7854C31.9001 24.1724 37.9511 17.3528 43.6537 13.2681C49.4784 9.09591 54.4094 8.11425 57.5535 9.92953C60.6977 11.7448 62.313 16.506 61.6122 23.6365C60.926 30.6174 58.0456 39.2675 53.0729 47.8805Z" stroke="url(#paint0_linear)" stroke-width="3"/>
<path d="M26.9273 47.8805C31.9 56.4935 37.9509 63.313 43.6536 67.3978C49.4783 71.57 54.4093 72.5516 57.5534 70.7364C60.6976 68.9211 62.3129 64.1599 61.612 57.0294C60.9259 50.0485 58.0455 41.3984 53.0727 32.7854C48.1 24.1724 42.0491 17.3528 36.3464 13.2681C30.5217 9.09591 25.5907 8.11425 22.4466 9.92953C19.3024 11.7448 17.6871 16.506 18.388 23.6365C19.0741 30.6174 21.9545 39.2675 26.9273 47.8805Z" stroke="url(#paint1_linear)" stroke-width="3"/>
<path d="M40 55.7639C49.9418 55.7639 58.8693 53.8971 65.2553 50.9436C71.7676 47.9316 75.1069 44.0724 75.1069 40.3333C75.1069 36.5941 71.7676 32.7349 65.2553 29.7229C58.8693 26.7694 49.9418 24.9026 40 24.9026C30.0583 24.9026 21.1307 26.7694 14.7447 29.7229C8.23243 32.7348 4.89319 36.5941 4.89319 40.3332C4.89319 44.0724 8.23243 47.9316 14.7447 50.9436C21.1307 53.8971 30.0583 55.7639 40 55.7639Z" stroke="#3343CC" stroke-width="3"/>
</g>
<defs>
<linearGradient id="paint0_linear" x1="58.3035" y1="8.6305" x2="21.6967" y2="72.0354" gradientUnits="userSpaceOnUse">
<stop stop-color="#72F9FB"/>
<stop offset="1" stop-color="#72F9FB" stop-opacity="0"/>
</linearGradient>
<linearGradient id="paint1_linear" x1="21.6966" y1="8.6305" x2="58.3034" y2="72.0354" gradientUnits="userSpaceOnUse">
<stop stop-color="#7940D4"/>
<stop offset="1" stop-color="#7940D4" stop-opacity="0"/>
</linearGradient>
<clipPath id="clip0">
<rect width="80" height="80" fill="white" transform="translate(0 0.332947)"/>
</clipPath>
</defs>
</svg>
