<svg width="80" height="81" viewBox="0 0 80 81" fill="none" xmlns="http://www.w3.org/2000/svg">
<path d="M67.5217 40.6017C67.5217 55.248 55.0404 67.2034 39.54 67.2034C24.0395 67.2034 11.5582 55.248 11.5582 40.6017C11.5582 25.9554 24.0395 14.0001 39.54 14.0001C55.0404 14.0001 67.5217 25.9554 67.5217 40.6017Z" stroke="url(#paint0_linear)" stroke-width="2"/>
<ellipse cx="16.43" cy="22.1386" rx="13.2323" ry="12.8187" fill="#3343CC"/>
<ellipse cx="16.43" cy="58.5273" rx="13.2323" ry="12.8187" fill="#3343CC"/>
<ellipse cx="63.5699" cy="22.1386" rx="13.2323" ry="12.8187" fill="#3343CC"/>
<ellipse cx="63.5699" cy="58.5273" rx="13.2323" ry="12.8187" fill="#3343CC"/>
<path d="M16.7788 12.6868C17.247 12.4427 17.8185 13.009 17.5697 13.4768C17.4253 13.8581 16.8775 13.9595 16.5977 13.6688C16.3013 13.3899 16.3979 12.8386 16.7788 12.6868ZM11.7431 13.2296C12.0275 13.1126 12.3876 13.3731 12.3586 13.6831C12.3887 14.0196 11.9773 14.2673 11.6874 14.1074C11.3033 13.9586 11.3472 13.3351 11.7431 13.2296V13.2296ZM22.0568 14.1168C21.6123 14.0631 21.542 13.3643 21.9699 13.2236C22.3018 13.0618 22.6063 13.3653 22.6548 13.6799C22.5852 13.9485 22.3603 14.1945 22.0568 14.1168ZM12.8889 15.3729C13.3644 15.0722 14.0429 15.52 13.9697 16.0723C13.945 16.63 13.2044 16.953 12.7865 16.576C12.3824 16.2799 12.4436 15.6006 12.8889 15.3729ZM20.1474 15.692C20.3596 15.1453 21.2191 15.1288 21.4606 15.661C21.6992 16.0751 21.4057 16.588 20.9805 16.7288C20.4172 16.8339 19.8823 16.2251 20.1474 15.692ZM16.1724 16.6977C16.1678 16.2278 16.5958 15.8777 17.0424 15.8457C17.3386 15.9051 17.6615 16.0313 17.7885 16.3302C18.0253 16.7425 17.815 17.3103 17.3871 17.4995C17.1914 17.6092 16.9601 17.568 16.747 17.5553C16.4212 17.3953 16.1469 17.0817 16.1724 16.6977V16.6977ZM8.6836 17.3824C9.11794 17.1154 9.70394 17.6027 9.53951 18.0746C9.44897 18.4827 8.90034 18.6487 8.58672 18.3882C8.25194 18.1441 8.305 17.5571 8.6836 17.3824V17.3824ZM24.7648 17.3816C25.1333 17.0955 25.7414 17.4237 25.6975 17.889C25.7222 18.3132 25.1964 18.6332 24.8306 18.4147C24.4277 18.2336 24.3866 17.6138 24.7648 17.3816V17.3816ZM18.2784 18.2263C18.8865 18.0079 19.6088 18.2693 19.9554 18.8115C20.4126 19.4743 20.1693 20.4836 19.4598 20.864C18.7246 21.3138 17.6511 20.9325 17.3796 20.1115C17.0714 19.3765 17.5204 18.4567 18.2784 18.2263V18.2263ZM14.7104 18.2986C15.3844 17.9805 16.2914 18.2474 16.6169 18.9368C17.0001 19.6079 16.7038 20.5423 16.0189 20.8888C15.3331 21.2782 14.3656 20.983 14.0337 20.2625C13.6616 19.5658 13.9921 18.6194 14.7104 18.2986V18.2986ZM11.1378 19.52C11.189 19.0858 11.5987 18.8032 12.012 18.774C12.4573 18.8277 12.813 19.1735 12.8614 19.6242C12.8322 20.0704 12.4874 20.5064 12.0146 20.5037C11.4945 20.5485 11.0384 20.031 11.1378 19.52V19.52ZM21.6901 18.8684C22.2241 18.5576 22.9656 19.0101 22.9419 19.6236C22.9785 20.2736 22.1578 20.7316 21.6261 20.3504C21.0737 20.0329 21.1168 19.1387 21.6901 18.8684V18.8684ZM13.2584 21.1593C13.883 20.9875 14.5971 21.2819 14.9034 21.856C15.2389 22.4338 15.1018 23.2365 14.5807 23.6604C13.9123 24.282 12.6796 24.0324 12.3239 23.184C11.9151 22.4063 12.4116 21.364 13.2584 21.1593V21.1593ZM20.0259 21.1561C20.633 20.9824 21.3463 21.2165 21.6727 21.7696C22.1042 22.4022 21.8982 23.3458 21.2557 23.7536C20.5828 24.2271 19.5403 23.9785 19.1699 23.238C18.721 22.4721 19.1727 21.3897 20.0259 21.1561V21.1561ZM9.24135 21.8779C9.78085 21.6738 10.3789 22.2691 10.1603 22.804C10.0268 23.2913 9.34006 23.4714 8.9853 23.1122C8.57018 22.7748 8.72388 22.0242 9.24135 21.8779V21.8779ZM23.8645 22.6541C23.8489 22.2071 24.176 21.8112 24.6344 21.7865C25.0039 21.845 25.3631 22.1431 25.3339 22.5453C25.3677 23.0765 24.7276 23.4376 24.275 23.188C24.0629 23.0802 23.9541 22.8626 23.8645 22.6541V22.6541ZM6.58867 22.1403C6.91325 21.9986 7.31473 22.2799 7.24062 22.6403C7.22322 23.0485 6.62068 23.2054 6.39932 22.8644C6.20373 22.6276 6.3208 22.2624 6.58867 22.1403ZM27.0539 22.1321C27.2824 21.9694 27.6491 22.0863 27.7397 22.3533C27.8933 22.645 27.6116 23.0445 27.2834 22.9952C26.8226 23.0372 26.6736 22.335 27.0539 22.1321ZM15.0213 24.0913C15.8754 23.8692 16.7935 24.5814 16.7989 25.4608C16.8546 26.3494 15.9504 27.1375 15.0761 26.9322C14.4003 26.8234 13.8701 26.1724 13.892 25.4896C13.8901 24.8364 14.383 24.2294 15.0213 24.0913ZM18.4037 24.0894C19.2706 23.8471 20.2161 24.5721 20.2023 25.4718C20.2481 26.3441 19.3721 27.1056 18.5161 26.9325C17.7105 26.8284 17.1162 25.9434 17.3411 25.1617C17.4546 24.6407 17.8898 24.2171 18.4037 24.0894V24.0894ZM11.8822 24.6308C12.4821 24.5284 13.0444 25.1976 12.8012 25.7672C12.6237 26.3742 11.7404 26.5388 11.3499 26.043C10.8918 25.5669 11.2338 24.6965 11.8822 24.6308ZM21.8016 24.6575C22.3365 24.4335 22.993 24.8962 22.9519 25.4767C22.9734 26.1157 22.1628 26.5564 21.6397 26.1834C21.0473 25.8485 21.1551 24.863 21.8016 24.6575V24.6575ZM24.5741 27.4384C24.3647 27.048 24.7451 26.5305 25.1786 26.6028C25.3944 26.5992 25.5453 26.7692 25.6834 26.9118C25.7118 27.1432 25.7593 27.4192 25.5673 27.5975C25.3065 27.9275 24.7158 27.8334 24.5741 27.4384ZM8.68177 26.7115C9.0869 26.4418 9.6699 26.844 9.57882 27.3177C9.53038 27.7366 9.0027 27.976 8.65514 27.7383C8.28212 27.5225 8.29587 26.9082 8.68177 26.7115V26.7115ZM16.6856 27.5884C17.2159 27.3543 17.8916 27.8161 17.8414 28.4002C17.8807 29.0457 17.0449 29.4928 16.5264 29.1051C15.9504 28.7723 16.0464 27.7931 16.6856 27.5884V27.5884ZM12.9785 28.4532C13.4302 28.2155 14.0364 28.626 13.9953 29.1316C14.009 29.5467 13.6039 29.9005 13.1943 29.8391C12.855 29.8318 12.6337 29.5277 12.5249 29.2384C12.5305 28.9232 12.6603 28.5721 12.9785 28.4532V28.4532ZM20.4876 28.4605C20.9521 28.1734 21.6123 28.5857 21.5684 29.1264C21.5803 29.6915 20.8342 30.0534 20.4017 29.6822C19.9829 29.3913 20.034 28.6918 20.4876 28.4605ZM21.7934 31.6888C21.5868 31.3761 21.83 30.9994 22.1656 30.9281C22.4354 30.983 22.7206 31.1859 22.6639 31.4986C22.6246 31.9219 22.0055 32.0518 21.7934 31.6888V31.6888ZM11.4277 31.4172C11.51 31.1694 11.7093 30.9232 12.001 30.9876C12.4262 31.0178 12.5524 31.6587 12.1803 31.8562C11.8456 32.0819 11.4573 31.7728 11.4277 31.4172V31.4172ZM16.4286 31.7015C16.51 31.335 16.9845 31.1567 17.2972 31.3514C17.5039 31.4401 17.5642 31.6714 17.6173 31.8679C17.589 31.9703 17.5636 32.0727 17.5387 32.1751C17.4107 32.3268 17.2461 32.4786 17.033 32.4731C16.637 32.5195 16.2798 32.0719 16.4286 31.7015Z" fill="white"/>
<path fill-rule="evenodd" clip-rule="evenodd" d="M63.5699 12.6279C58.5486 12.6279 54.4728 16.7037 54.4728 21.7251C54.4728 26.7465 58.5486 30.8223 63.5699 30.8223C68.5913 30.8223 72.6671 26.7465 72.6671 21.7251C72.6671 16.7037 68.5913 12.6279 63.5699 12.6279ZM62.123 25.5645C61.8078 26.0516 61.2849 26.3596 60.7047 26.3955H57.8323C57.2019 26.3955 56.9441 25.9585 57.2592 25.4069L62.9826 15.3284C63.2978 14.784 63.7992 14.784 64.1143 15.3284L64.5513 16.1164L65.5828 17.9286C65.8335 18.4444 65.8335 19.0533 65.5828 19.569L62.123 25.5645ZM69.3076 26.3955H65.3536C64.7304 26.3955 64.4725 25.9513 64.7805 25.4069L66.779 21.9615C67.0942 21.4171 67.6028 21.4171 67.918 21.9615L69.8807 25.4069C70.1958 25.9513 69.938 26.3955 69.3076 26.3955Z" fill="white"/>
<path d="M11.9638 61.8933C12.0436 61.8134 12.1534 61.7669 12.2699 61.7669H22.8293C23.0223 61.7669 23.1187 61.9998 22.9823 62.1362L20.8964 64.2221C20.8166 64.3019 20.7068 64.3485 20.5903 64.3485H10.0309C9.83792 64.3485 9.74144 64.1156 9.87785 63.9792L11.9638 61.8933Z" fill="white"/>
<path d="M11.9638 54.1051C12.047 54.0253 12.1567 53.9787 12.2699 53.9787H22.8293C23.0223 53.9787 23.1187 54.2116 22.9823 54.348L20.8964 56.4339C20.8166 56.5138 20.7068 56.5603 20.5903 56.5603H10.0309C9.83792 56.5603 9.74144 56.3275 9.87785 56.1911L11.9638 54.1051Z" fill="white"/>
<path d="M20.8964 57.9743C20.8166 57.8944 20.7068 57.8478 20.5903 57.8478H10.0309C9.83792 57.8478 9.74144 58.0807 9.87785 58.2171L11.9638 60.3031C12.0436 60.3829 12.1534 60.4295 12.2699 60.4295H22.8293C23.0223 60.4295 23.1187 60.1966 22.9823 60.0602L20.8964 57.9743Z" fill="white"/>
<path d="M63.7754 67.9519L69.3591 60.1093L63.7754 63.4034L58.1918 60.1093L63.7754 67.9519V67.9522V67.9519Z" fill="white"/>
<path d="M63.7754 62.3513L69.3591 59.0485L63.7754 56.5126L58.1918 59.0485L63.7754 62.3513Z" fill="white"/>
<path d="M63.7764 55.4293L68.4616 57.5571L63.7764 49.7838L59.0913 57.5571L63.7764 55.4293Z" fill="white"/>
<g filter="url(#filter0_d)">
<path d="M33.3344 34.9573H46.4433C48.4337 34.9573 49.9052 36.8114 49.453 38.7499V38.7499H32.439L33.3344 34.9573Z" fill="#85E7F7"/>
<path d="M32.175 40.1194H49.1363V40.1194C48.6049 42.3433 46.6171 43.912 44.3307 43.912H35.8096L30.4894 47.4413L32.175 40.1194Z" fill="#3178F2"/>
</g>
<defs>
<filter id="filter0_d" x="10.4894" y="14.9573" width="59.0458" height="52.484" filterUnits="userSpaceOnUse" color-interpolation-filters="sRGB">
<feFlood flood-opacity="0" result="BackgroundImageFix"/>
<feColorMatrix in="SourceAlpha" type="matrix" values="0 0 0 0 0 0 0 0 0 0 0 0 0 0 0 0 0 0 127 0" result="hardAlpha"/>
<feOffset/>
<feGaussianBlur stdDeviation="10"/>
<feComposite in2="hardAlpha" operator="out"/>
<feColorMatrix type="matrix" values="0 0 0 0 0 0 0 0 0 0 0 0 0 0 0 0 0 0 0.25 0"/>
<feBlend mode="normal" in2="BackgroundImageFix" result="effect1_dropShadow"/>
<feBlend mode="normal" in="SourceGraphic" in2="effect1_dropShadow" result="shape"/>
</filter>
<linearGradient id="paint0_linear" x1="39.54" y1="13.0001" x2="39.54" y2="68.2034" gradientUnits="userSpaceOnUse">
<stop stop-color="#7940D4"/>
<stop offset="1" stop-color="#7940D4" stop-opacity="0"/>
</linearGradient>
</defs>
</svg>
