<svg width="80" height="81" viewBox="0 0 80 81" fill="none" xmlns="http://www.w3.org/2000/svg">
<path d="M64.1345 50.3512L58.3174 44.5341C58.1482 45.271 57.9323 45.9964 57.671 46.7059V46.7059C57.6193 46.861 57.5611 47.0161 57.4965 47.1712C57.3479 47.559 57.1798 47.9404 57.0053 48.3153C56.6291 49.1179 56.1971 49.8933 55.7126 50.6356C54.9675 51.7656 54.1005 52.8103 53.1272 53.751C52.1459 54.7112 51.0621 55.5608 49.8955 56.2847C47.7007 57.6414 45.2495 58.5304 42.6952 58.8959V55.1083L38.7525 59.051L33.3362 64.4739L38.6427 69.7803L42.6952 73.8329V69.6834C43.5419 69.6123 44.3887 69.4959 45.2224 69.3473C46.5825 69.1007 47.9237 68.7595 49.2362 68.3261C51.6466 67.5311 53.9448 66.4298 56.0746 65.0491C60.2995 62.3045 63.7491 58.5211 66.0929 54.0613C66.7343 52.8337 67.2915 51.564 67.7604 50.2608C67.7992 50.125 67.8574 49.9958 67.9026 49.8665L68.0384 49.4528C68.4671 48.1452 68.7997 46.808 69.0337 45.452V45.452L64.1345 50.3512Z" fill="url(#paint0_linear)"/>
<path d="M29.9817 64.4677L35.8311 58.6506C35.0919 58.4823 34.3643 58.2664 33.6529 58.0042V58.0042C33.4978 57.9525 33.3427 57.8944 33.1875 57.8297C32.7997 57.6811 32.4184 57.513 32.0435 57.3385C31.2408 56.9623 30.4655 56.5304 29.7231 56.0458C28.5932 55.3007 27.5484 54.4337 26.6078 53.4604C25.6476 52.4791 24.798 51.3954 24.0741 50.2287C22.7083 48.036 21.8105 45.5846 21.437 43.0285H25.244L21.3013 39.0858L15.8784 33.6694L10.5526 38.9953L6.5 43.0285H10.6495C10.7206 43.8752 10.837 44.7219 10.9856 45.5557C11.465 48.2091 12.3067 50.7841 13.487 53.2084C14.0173 54.3057 14.6174 55.3679 15.2838 56.3884C18.0285 60.6134 21.8118 64.0629 26.2717 66.4067C27.5003 67.0476 28.7699 67.6068 30.0722 68.0807C30.2079 68.0807 30.3372 68.1712 30.4729 68.2165L30.8801 68.3522C32.1879 68.7802 33.5251 69.1128 34.881 69.3476V69.3476L29.9817 64.4677Z" fill="url(#paint1_linear)"/>
<path d="M15.859 30.3146L21.7084 36.1641C21.8767 35.4248 22.0926 34.6973 22.3547 33.9859V33.9859L22.5293 33.5205C22.6779 33.1327 22.846 32.7514 23.0205 32.3765C23.3967 31.5738 23.8286 30.7984 24.3132 30.0561C25.8219 27.7755 27.8064 25.8483 30.1303 24.4071C32.3191 23.0429 34.7659 22.1452 37.3176 21.77V25.5769L41.2603 21.6343L46.6767 16.2179L41.3379 10.8856L37.2853 6.83298V10.9825C36.4386 11.0601 35.5919 11.1699 34.7581 11.3186C33.398 11.5652 32.0568 11.9064 30.7443 12.3398C29.4994 12.7509 28.2837 13.2454 27.1054 13.82C26.0168 14.3512 24.9633 14.9514 23.9512 15.6168C22.9226 16.2906 21.9362 17.0266 20.9974 17.8208C18.0778 20.2677 15.6629 23.26 13.8876 26.6305C13.2467 27.8592 12.6875 29.1288 12.2136 30.431C12.1752 30.5647 12.1299 30.6963 12.0779 30.8253L11.9421 31.2389C11.5142 32.5468 11.1815 33.8839 10.9468 35.2398V35.2398L15.859 30.3146Z" fill="url(#paint2_linear)"/>
<path d="M69.3504 37.6184C69.2793 36.7717 69.163 35.925 69.0143 35.0912C68.7677 33.7312 68.4265 32.39 67.9931 31.0774C67.1945 28.6827 66.0933 26.3999 64.7161 24.2844C61.9715 20.0594 58.1881 16.6098 53.7283 14.266C52.5008 13.6246 51.231 13.0674 49.9278 12.5985C49.792 12.5597 49.6628 12.5015 49.527 12.4563L49.1198 12.3205C47.812 11.8926 46.4749 11.5599 45.119 11.3252V11.3252L50.0183 16.2245L44.2012 22.0415C44.9404 22.2098 45.668 22.4257 46.3793 22.6879V22.6879C46.5345 22.7396 46.6896 22.7978 46.8447 22.8624C47.2325 23.0111 47.6139 23.1791 47.9887 23.3536C48.7914 23.7298 49.5668 24.1618 50.3091 24.6463C52.5898 26.1551 54.5169 28.1395 55.9582 30.4634C57.3223 32.6522 58.2201 35.0991 58.5952 37.6507H54.7754L58.7181 41.5934L64.1409 47.0098L69.4474 41.7033L73.4999 37.6507L69.3504 37.6184Z" fill="url(#paint3_linear)"/>
<g filter="url(#filter0_d)">
<path d="M32.7025 33.8984H46.2157C48.2675 33.8984 49.7843 35.8097 49.3182 37.808V37.808H31.7794L32.7025 33.8984Z" fill="#72F9FB"/>
<path d="M31.5072 39.2198H48.9917V39.2198C48.444 41.5122 46.3949 43.1294 44.0379 43.1294H35.2539L29.7697 46.7675L31.5072 39.2198Z" fill="#3178F2"/>
</g>
<defs>
<filter id="filter0_d" x="9.76965" y="13.8984" width="59.6333" height="52.8691" filterUnits="userSpaceOnUse" color-interpolation-filters="sRGB">
<feFlood flood-opacity="0" result="BackgroundImageFix"/>
<feColorMatrix in="SourceAlpha" type="matrix" values="0 0 0 0 0 0 0 0 0 0 0 0 0 0 0 0 0 0 127 0" result="hardAlpha"/>
<feOffset/>
<feGaussianBlur stdDeviation="10"/>
<feComposite in2="hardAlpha" operator="out"/>
<feColorMatrix type="matrix" values="0 0 0 0 0 0 0 0 0 0 0 0 0 0 0 0 0 0 0.25 0"/>
<feBlend mode="normal" in2="BackgroundImageFix" result="effect1_dropShadow"/>
<feBlend mode="normal" in="SourceGraphic" in2="effect1_dropShadow" result="shape"/>
</filter>
<linearGradient id="paint0_linear" x1="39" y1="68.333" x2="65" y2="51.833" gradientUnits="userSpaceOnUse">
<stop stop-color="#3343CC"/>
<stop offset="1" stop-color="#3343CC" stop-opacity="0"/>
</linearGradient>
<linearGradient id="paint1_linear" x1="11.5" y1="36.333" x2="21.5" y2="61.333" gradientUnits="userSpaceOnUse">
<stop stop-color="#72F9FB"/>
<stop offset="1" stop-color="#72F9FB" stop-opacity="0"/>
</linearGradient>
<linearGradient id="paint2_linear" x1="40.9999" y1="14.833" x2="28.8117" y2="36.1641" gradientUnits="userSpaceOnUse">
<stop stop-color="white"/>
<stop offset="1" stop-color="white" stop-opacity="0"/>
</linearGradient>
<linearGradient id="paint3_linear" x1="67.9999" y1="51.333" x2="47.9999" y2="18.333" gradientUnits="userSpaceOnUse">
<stop stop-color="#7940D4"/>
<stop offset="1" stop-color="#7940D4" stop-opacity="0"/>
</linearGradient>
</defs>
</svg>
