<svg width="43" height="42" viewBox="0 0 43 42" fill="none" xmlns="http://www.w3.org/2000/svg">
<path d="M21.869 39C31.8101 39 39.869 30.9411 39.869 21C39.869 11.0589 31.8101 3 21.869 3C11.9279 3 3.86902 11.0589 3.86902 21C3.86902 30.9411 11.9279 39 21.869 39Z" fill="#3343CC"/>
<path d="M21.869 32.2103C28.0603 32.2103 33.0793 27.1913 33.0793 21C33.0793 14.8088 28.0603 9.78973 21.869 9.78973C15.6777 9.78973 10.6587 14.8088 10.6587 21C10.6587 27.1913 15.6777 32.2103 21.869 32.2103Z" fill="#72F9FB"/>
<path d="M22.7274 15.8155H21.0106V26.2018H22.7274V15.8155Z" fill="#3343CC"/>
<path d="M27.0622 20.1416H16.6759V21.8583H27.0622V20.1416Z" fill="#3343CC"/>
</svg>
