<svg width="250" height="75" viewBox="0 0 250 75" fill="none" xmlns="http://www.w3.org/2000/svg">
<path d="M97.9404 27.8124C99.3476 28.6605 100.538 29.8266 101.296 31.4167C102.162 33.0068 102.595 34.915 102.595 37.035C102.595 39.1552 102.162 40.9574 101.188 42.5475C100.322 44.1376 99.0228 45.3037 97.399 46.0456C95.7755 46.8938 93.8269 47.3179 91.7704 47.3179C90.5796 47.3179 89.497 47.1057 88.4147 46.6819C87.3321 46.3639 86.3579 45.7276 85.6001 44.9857V56.0105H79.3219V26.9644H84.7342L85.2756 29.2966C87.6569 27.3884 90.2548 26.4343 92.9609 26.4343C94.8011 26.4343 96.533 26.8584 97.9404 27.8124ZM94.4765 40.9574C95.5589 40.0034 96.1001 38.7311 96.1001 37.1411C96.1001 35.551 95.5589 34.279 94.5847 33.2188C93.6105 32.1587 92.3116 31.7347 90.9044 31.7347C89.7136 31.7347 88.6311 31.9467 87.7651 32.4768C86.8991 32.9008 86.2497 33.6429 85.7085 34.597V39.3672C86.0331 40.3214 86.6827 41.0633 87.4405 41.5935C88.3065 42.1234 89.2806 42.4414 90.4714 42.4414C92.095 42.4414 93.3939 41.9115 94.4765 40.9574Z" fill="white"/>
<path d="M106.275 31.5205C107.249 30.0364 108.548 28.7643 110.28 27.9162C112.012 27.0682 113.96 26.5381 116.125 26.5381C118.29 26.5381 120.239 26.9622 121.971 27.9162C123.594 28.7643 124.893 30.0364 125.868 31.6265C126.842 33.2166 127.275 34.9128 127.275 36.9269C127.275 38.9411 126.842 40.6372 125.868 42.2273C124.893 43.8173 123.703 45.0894 121.971 45.9375C120.347 46.7855 118.29 47.3157 116.125 47.3157C113.96 47.3157 112.012 46.8916 110.28 46.0436C108.548 45.1954 107.249 44.0295 106.275 42.4392C105.409 40.8491 104.868 39.0469 104.868 36.9269C104.868 34.9128 105.409 33.1106 106.275 31.5205ZM112.661 40.7431C113.527 41.8032 114.718 42.2273 116.125 42.2273C117.533 42.2273 118.723 41.6973 119.589 40.7431C120.455 39.789 120.888 38.4109 120.888 36.9269C120.888 35.3369 120.455 34.0647 119.589 33.1106C118.615 32.0505 117.533 31.5205 116.017 31.5205C114.61 31.5205 113.527 32.0505 112.553 33.0046C111.687 34.0647 111.254 35.3369 111.254 36.9269C111.254 38.4109 111.687 39.6832 112.661 40.7431Z" fill="white"/>
<path d="M137.451 11.9103V46.7868H131.173V11.9103H137.451Z" fill="white"/>
<path d="M163.213 27.493L150.44 56.115H144.378L149.141 45.8324L140.048 27.493H147.193L152.388 38.9417L157.584 27.493H163.213Z" fill="white"/>
<path d="M187.243 27.4922V46.7855C187.243 48.5877 186.701 50.2838 185.619 51.768C184.537 53.252 183.129 54.4182 181.289 55.2662C179.449 56.1143 177.5 56.5382 175.336 56.5382C173.712 56.5382 172.305 56.3263 171.114 56.0083C169.923 55.5842 168.949 55.1601 168.191 54.7362C167.325 54.2061 166.459 53.57 165.485 52.7221L169.166 48.4816C170.031 49.3298 171.006 49.9658 171.872 50.3899C172.738 50.8138 173.928 51.1318 175.227 51.1318C176.851 51.1318 178.15 50.7079 179.232 49.9658C180.315 49.2237 180.856 48.0578 180.856 46.6796V43.9234C180.207 44.8774 179.341 45.7256 178.042 46.3616C176.743 46.9977 175.227 47.3157 173.495 47.3157C171.763 47.3157 170.031 46.8916 168.516 45.9375C167.001 45.0894 165.81 43.8173 164.836 42.2273C163.97 40.6372 163.428 38.9411 163.428 37.033C163.428 35.1247 163.861 33.3226 164.836 31.7325C165.81 30.1424 167.001 28.8703 168.624 27.9162C170.14 26.9622 171.763 26.5381 173.495 26.5381C175.119 26.5381 176.526 26.7502 177.825 27.1742C179.124 27.5982 180.098 28.2343 180.748 28.9763L181.397 27.4922H187.243ZM180.856 39.3652V34.5948C180.423 33.6407 179.774 32.8986 178.799 32.3686C177.825 31.8385 176.743 31.5205 175.444 31.5205C173.928 31.5205 172.629 32.0505 171.547 33.0046C170.464 33.9587 169.923 35.2308 169.923 36.8209C169.923 38.3051 170.464 39.6832 171.547 40.7431C172.629 41.8032 173.928 42.3333 175.444 42.3333C177.933 42.2273 179.774 41.2732 180.856 39.3652Z" fill="white"/>
<path d="M192.44 31.5227C193.415 29.9326 194.713 28.7665 196.445 27.8124C198.177 26.9644 200.126 26.4343 202.291 26.4343C204.456 26.4343 206.404 26.8584 208.136 27.8124C209.76 28.6605 211.059 29.9326 212.033 31.5227C212.899 33.1128 213.44 34.8089 213.44 36.8231C213.44 38.8372 213.007 40.5334 212.033 42.1234C211.167 43.7135 209.868 44.9857 208.136 45.8337C206.512 46.6819 204.456 47.2118 202.291 47.2118C200.126 47.2118 198.177 46.7877 196.445 45.9398C194.713 45.0916 193.415 43.9256 192.44 42.3356C191.466 40.7453 191.033 38.9433 191.033 36.717C191.033 34.915 191.466 33.1128 192.44 31.5227ZM198.719 40.7453C199.585 41.8054 200.775 42.2295 202.182 42.2295C203.59 42.2295 204.78 41.6993 205.646 40.7453C206.512 39.7913 206.945 38.4131 206.945 36.9292C206.945 35.3389 206.512 34.0669 205.646 33.1128C204.78 32.1587 203.59 31.6287 202.182 31.6287C200.775 31.6287 199.693 32.1587 198.719 33.1128C197.744 34.0669 197.311 35.445 197.311 36.9292C197.42 38.4131 197.853 39.6852 198.719 40.7453Z" fill="white"/>
<path d="M235.631 28.1283C236.931 29.1883 237.47 30.5664 237.578 32.2626V46.7855H231.192V34.5948C231.084 32.6866 230.11 31.7325 228.27 31.7325C226.863 31.7325 225.672 32.3686 224.806 33.7467C223.94 35.1247 223.507 36.8208 223.507 38.835V46.7855H217.229V27.4922H222.966L223.399 30.5664C224.156 29.2943 225.131 28.3403 226.43 27.5982C227.729 26.8562 229.244 26.5381 230.976 26.5381C232.816 26.5381 234.44 27.0682 235.631 28.1283Z" fill="white"/>
<path d="M52.4766 27.1766C51.394 26.5406 49.9868 26.5406 48.7963 27.1766L40.3529 32.053L34.6158 35.2332L26.1727 40.1095C25.0902 40.7455 23.683 40.7455 22.4923 40.1095L15.781 36.2931C14.6985 35.6571 13.9408 34.4911 13.9408 33.219V25.6925C13.9408 24.4204 14.5903 23.2543 15.781 22.6183L22.384 18.908C23.4665 18.272 24.8737 18.272 26.0644 18.908L32.6675 22.6183C33.7498 23.2543 34.5076 24.4204 34.5076 25.6925V30.5688L40.2447 27.2826V22.4063C40.2447 21.1342 39.5953 19.9681 38.4045 19.332L26.1727 12.3356C25.0902 11.6995 23.683 11.6995 22.4923 12.3356L10.0439 19.332C8.85321 19.9681 8.20374 21.1342 8.20374 22.4063V36.5053C8.20374 37.7773 8.85321 38.9435 10.0439 39.5795L22.4923 46.576C23.5747 47.212 24.982 47.212 26.1727 46.576L34.6158 41.8056L40.3529 38.5194L48.7963 33.7491C49.8786 33.113 51.2858 33.113 52.4766 33.7491L59.0796 37.4593C60.1619 38.0953 60.9197 39.2615 60.9197 40.5336V48.06C60.9197 49.3323 60.2704 50.4982 59.0796 51.1342L52.4766 54.9506C51.394 55.5866 49.9868 55.5866 48.7963 54.9506L42.1932 51.2403C41.1107 50.6043 40.3529 49.4381 40.3529 48.1661V43.2898L34.6158 46.576V51.4523C34.6158 52.7243 35.2654 53.8905 36.456 54.5265L48.9045 61.523C49.9868 62.159 51.394 62.159 52.5847 61.523L65.0332 54.5265C66.1156 53.8905 66.8734 52.7243 66.8734 51.4523V37.3532C66.8734 36.0812 66.2238 34.9152 65.0332 34.2792L52.4766 27.1766Z" fill="white"/>
</svg>
