<svg width="62" height="75" viewBox="0 0 62 75" fill="none" xmlns="http://www.w3.org/2000/svg">
<path d="M57.9642 64.2643C57.9642 66.6062 57.0054 67.9674 55.13 68.6916C47.8411 71.5 39.2102 72.9457 31.0021 72.9457C22.7899 72.9457 14.159 71.4986 6.87149 68.6916C4.99609 67.9674 4.03589 66.6062 4.03589 64.2643V2.05426H57.9642V64.2643Z" fill="white"/>
<path d="M18.4988 39.9659C11.0313 35.304 8.56809 33.2404 8.35532 30.1825C8.31986 29.5633 8.46171 28.5144 8.72222 27.767L8.01843 27.3005C7.45649 28.198 7.09778 29.3778 7.09778 30.4594C7.09778 32.227 7.66108 33.5637 8.35532 34.6316C9.40418 36.2465 10.5076 37.2626 13.2273 39.3031C16.157 41.5004 18.1565 44.0659 19.3077 46.7528H19.7236V43.7045C23.6804 45.9522 27.1721 48.0636 28.8892 51.8416H29.3039C28.6315 47.9272 26.4164 44.9088 18.4988 39.9659V39.9659ZM52.8944 51.8471H52.3842C52.3842 49.062 49.8296 48.2995 47.1549 48.2995H38.7913C39.0614 49.6744 39.1855 51.2824 38.9796 52.8019H38.5622C37.7889 46.5387 34.2508 43.4399 29.3025 40.116V42.9693H28.8865C27.5703 40.026 24.6829 37.2681 21.9496 35.3095C21.2226 34.7912 20.4656 34.2538 19.7196 33.7232V36.7934H19.3036C18.1442 33.7464 16.0397 31.4728 13.0377 28.7626C9.7929 25.8438 8.48762 24.0966 7.72655 22.0876C7.26554 20.871 7.13733 19.8876 7.1196 18.5523C7.09096 16.1641 8.30076 14.0063 9.80381 13.2016V14.3582C9.05911 15.3443 8.67311 16.5978 8.67039 17.8676C8.66629 19.0419 8.94726 20.3459 9.53102 21.4561C11.3573 24.9314 17.5086 29.1977 21.4122 31.8206C33.558 39.9659 35.983 41.3872 37.9989 45.7094C38.224 46.1909 38.4476 46.8374 38.6345 47.5917C40.3885 47.3202 46.754 46.3491 47.9256 46.1636C48.1533 46.1268 48.6212 46.0709 48.8639 46.0545C49.9619 45.3616 50.8157 44.4778 51.5645 43.3758L46.9135 43.0143C46.6721 43.5476 46.4362 43.9977 46.2275 44.3564H45.8456C45.9738 43.8845 46.0843 43.418 46.1811 42.9584L44.989 42.8738V42.6174L46.2779 42.4578C46.5235 41.1416 46.6421 39.895 46.6653 38.7316L40.799 38.3974C40.7704 39.0003 40.765 39.5663 40.7854 40.0941H40.4117C40.2835 39.5077 40.1853 38.9266 40.1116 38.3606L38.8268 38.2842V37.8941L40.0489 37.8273C39.877 36.2738 39.8661 34.8267 39.9275 33.5814L36.4999 33.4273C36.6595 33.7301 36.8273 34.0315 36.9446 34.3657C37.6866 36.4347 37.5093 38.8571 37.2665 39.9741H36.8505C36.7891 38.6838 36.3567 37.1003 35.9435 36.1374C34.9955 33.9019 32.8692 31.9242 29.3011 29.6328V32.4889H28.8851C27.6999 28.7381 24.7456 26.6499 20.3551 24.3953C16.7326 22.5363 15.6073 20.2954 15.8119 16.8283L17.0367 17.5539C17.3491 20.7946 19.8396 22.6686 22.4488 22.6495C23.9846 22.6359 25.4235 22.4313 26.812 22.1558C28.8197 21.748 30.6773 21.4056 32.2281 21.9526V20.039H31.0088C30.5723 20.414 29.6885 20.8491 28.3887 20.8723C26.9606 20.8969 24.2573 20.0744 24.2573 17.0533C24.2573 14.4291 26.4765 14.009 28.2837 14.009C29.2548 14.009 30.8642 13.9749 31.4098 13.9463C31.8121 13.919 32.1149 13.859 32.3127 13.6626C32.5173 13.4621 32.5787 13.2548 32.625 12.9861C32.6823 12.6601 32.6823 12.3287 32.6823 11.7654V9.84771H24.3037V13.1689L21.1326 11.9618V11.1666H22.6493V9.84771H16.9985V7.09257H15.0727C14.0443 7.09257 12.8563 7.81546 12.7704 9.21348C12.6926 10.5542 13.2955 11.6849 14.6771 11.6849H14.924V13.2903H14.6771C12.2562 13.2903 10.4339 11.4735 10.4339 9.06208C10.4339 6.547 12.5739 4.63205 15.164 4.63205H19.2504V7.38855H35.1469V11.4626C35.1469 12.15 35.1074 13.0707 35.0419 13.6517C34.9928 14.0772 34.8441 14.8397 34.0422 15.4534C33.5552 15.8217 32.8242 15.9704 31.6403 15.9758C31.2516 15.9772 30.125 15.9595 28.7747 15.8749C26.9634 15.759 26.4478 16.46 26.3742 17.1093C26.3592 17.2456 26.3592 17.3779 26.3769 17.5048C27.2252 16.8501 28.4255 16.385 29.7867 16.816C32.1845 17.5703 32.8705 17.6357 34.1199 16.6551L34.2467 16.9347C34.1103 17.1434 33.8717 17.4434 33.5211 17.7094H34.6791V23.9862L38.2853 21.823H48.4111C48.4111 21.823 52.6884 24.0585 53.3908 24.4267C54.0128 24.7541 54.2569 25.1496 54.3524 25.7293C54.4356 26.2135 54.3074 26.8272 54.0714 27.22C53.9228 27.4656 52.7593 29.371 52.1469 30.3884C53.8668 32.2502 55.0275 34.8553 55.0275 37.7564C55.0275 40.386 54.0551 43.7768 50.8948 46.2973C52.286 46.7528 53.1767 47.5112 53.8764 48.5082L52.8944 51.8471ZM30.32 18.0476C28.8974 17.7353 28.1036 17.9112 27.2866 18.69C27.6876 18.881 28.1882 18.9847 28.7406 18.9478C29.5412 18.8905 30.0349 18.4132 30.32 18.0476ZM29.5003 27.0918L33.5075 24.69C32.7191 24.3012 31.849 24.0516 30.8178 24.0394C29.4362 24.0148 27.1052 24.6477 25.98 24.8236C26.4833 25.166 28.27 26.3089 29.5003 27.0918V27.0918ZM47.3855 27.3469L47.9406 26.564L47.0813 25.4197L47.2245 25.1646L49.64 26.4672L49.1122 28.0657C49.5036 28.2539 49.8623 28.4885 50.3384 28.8049L51.9014 26.238L47.8546 24.1239H38.9168L31.6607 28.4885C33.0219 29.4351 34.2795 30.458 35.1701 31.4891C37.1124 28.659 40.529 26.8572 43.9129 26.8572C45.019 26.8586 46.3066 26.9773 47.3855 27.3469V27.3469ZM46.6585 37.4781C46.6094 36.1429 46.4443 34.9344 46.2193 33.8692L41.4824 33.6551C41.1591 35.0967 40.9436 36.5029 40.8454 37.7877L46.6585 37.4781ZM48.2515 33.9633C48.4029 35.1867 48.422 36.3311 48.3416 37.3881L53.0348 37.1426C52.9171 36.0999 52.6204 35.0852 52.1578 34.1433L48.2515 33.9633ZM45.8619 32.4275C45.3709 30.7322 44.7858 29.5551 44.4776 29.0013C44.2795 28.9897 44.0812 28.9843 43.8829 28.985C43.5515 28.985 43.22 29.0272 42.8995 29.0613C42.4262 30.2466 42.0402 31.4428 41.7265 32.6567L45.8619 32.4275ZM47.1631 29.5824C47.5137 30.5248 47.7769 31.4332 47.9692 32.3102L50.8362 32.1534C49.842 31.0072 48.5804 30.1241 47.1631 29.5824V29.5824ZM52.4402 41.6872C52.7757 40.8702 52.9898 40.086 53.0539 39.093L48.1765 38.8161C47.9542 40.1828 47.5914 41.3708 47.2013 42.3433L52.4402 41.6872ZM40.4117 29.7747C38.7791 30.5057 37.6525 31.5 36.6459 32.9267L39.9848 32.7521C40.1048 31.2695 40.2998 30.2834 40.4117 29.7747Z" fill="#241838"/>
<path d="M34.2182 59.0514C35.5794 58.8304 36.8778 57.772 36.8778 56.1722C36.8778 54.7305 36.2641 53.147 32.0195 53.147H24.8535V53.2629C25.0703 53.3297 25.4154 53.5057 25.6405 53.7239C26.126 54.2026 26.2883 54.9105 26.3074 55.8544V66.5789H32.2446C35.5098 66.5789 37.8735 65.3364 37.8735 62.4789C37.8749 60.1589 36.0677 59.1728 34.2182 59.0514V59.0514ZM31.163 54.425C32.6824 54.425 33.7122 54.7564 33.7122 56.3767C33.7122 58.1062 32.3332 58.5822 30.7579 58.5822H29.4008V54.425H31.163ZM31.3171 65.3105H29.4008V59.8247H31.2298C33.7422 59.8247 34.7051 60.5763 34.7051 62.4571C34.7038 64.4907 33.4448 65.3105 31.3171 65.3105ZM19.5696 66.5762H23.4391L18.4989 60.2626C20.478 59.732 21.9606 58.6477 21.9606 56.6795C21.9606 54.3704 20.5762 53.1456 16.9618 53.1456H9.48474V53.2615C9.76162 53.357 10.0685 53.5357 10.2717 53.7334C10.7941 54.2504 10.951 55.0387 10.951 56.1026V66.5762H14.0539V60.6254H15.186L19.5696 66.5762ZM14.0553 54.425H16.1434C17.8852 54.425 18.7935 54.9351 18.7935 56.7818C18.7935 58.4322 17.6069 59.4115 15.6988 59.4115H14.0553V54.425ZM50.423 54.9883C51.2509 55.4547 51.5046 56.0726 51.5114 56.078C51.5496 56.1231 51.6396 56.108 51.6396 56.108L52.3148 53.8098C52.3148 53.8098 51.1022 52.9383 48.2162 52.9383C43.8489 52.9383 40.5795 55.1383 40.5795 59.953C40.5795 65.3773 44.4736 66.7862 47.9093 66.7862C51.1022 66.7862 52.3598 65.7687 52.3598 65.7687V64.1948C52.3598 64.1948 51.2291 65.2477 48.8081 65.2477C46.8127 65.2477 43.8748 64.3339 43.8161 59.8766C43.7561 55.7562 45.5524 54.4154 47.9557 54.4154C49.2978 54.4154 49.9675 54.7305 50.423 54.9883" fill="#241838"/>
</svg>
