<svg width="42" height="42" viewBox="0 0 42 42" fill="none" xmlns="http://www.w3.org/2000/svg">
<path d="M21 39C30.9411 39 39 30.9411 39 21C39 11.0589 30.9411 3 21 3C11.0589 3 3 11.0589 3 21C3 30.9411 11.0589 39 21 39Z" fill="#3343CC"/>
<path d="M14.1588 12.7425H27.7811V22.6309C27.7811 23.3309 27.6433 24.024 27.3754 24.6708C27.1075 25.3175 26.7149 25.9051 26.2199 26.4001C25.7249 26.8951 25.1373 27.2877 24.4905 27.5556C23.8438 27.8235 23.1507 27.9613 22.4507 27.9613H19.455C18.0472 27.9523 16.7002 27.3867 15.7079 26.388C14.7157 25.3893 14.1588 24.0387 14.1588 22.6309V12.7425Z" fill="#72F9FB"/>
<path d="M27.1031 33.0945H14.9572C14.9572 32.1839 15.3189 31.3106 15.9628 30.6667C16.6067 30.0228 17.48 29.661 18.3906 29.661H23.6696C24.5802 29.661 25.4535 30.0228 26.0974 30.6667C26.7413 31.3106 27.1031 32.1839 27.1031 33.0945Z" fill="#72F9FB"/>
<path d="M16.9999 25.5665L13.7725 24.382C12.7191 23.9931 11.8099 23.2912 11.167 22.3705C10.5241 21.4499 10.1782 20.3546 10.1759 19.2317V14.4506H17.0429L16.9999 25.5665ZM11.8926 16.1674V19.2317C11.8995 19.9987 12.1397 20.7454 12.5813 21.3726C13.0229 21.9997 13.6449 22.4775 14.3647 22.7425L15.2832 23.0858V16.1674H11.8926Z" fill="#72F9FB"/>
<path d="M24.9915 25.5665V14.4506H31.8584V19.2317C31.8549 20.3543 31.5085 21.4491 30.8658 22.3695C30.2231 23.2899 29.3146 23.992 28.2618 24.382L24.9915 25.5665ZM26.7082 16.1674V23.1116L27.6352 22.7425C28.3591 22.476 28.9841 21.9942 29.426 21.362C29.868 20.7298 30.1057 19.9774 30.1073 19.206V16.1674H26.7082Z" fill="#72F9FB"/>
</svg>
